<?xml version="1.0" standalone="no"?>
<!DOCTYPE svg PUBLIC "-//W3C//DTD SVG 1.1//EN" "http://www.w3.org/Graphics/SVG/1.1/DTD/svg11.dtd" >
<svg xmlns="http://www.w3.org/2000/svg" xmlns:xlink="http://www.w3.org/1999/xlink" version="1.1">
<metadata>
Created by FontForge 20180930 at Mon Oct  8 19:07:16 2018
 By root
</metadata>
<defs>
<font id="StrawberryBlossom" horiz-adv-x="273" >
  <font-face 
    font-family="Strawberry Blossom"
    font-weight="400"
    font-stretch="normal"
    units-per-em="1000"
    panose-1="0 0 0 0 0 0 0 0 0 0"
    ascent="750"
    descent="-250"
    x-height="278"
    cap-height="532"
    bbox="-845 -250 5203 834"
    underline-thickness="50"
    underline-position="-125"
    unicode-range="U+0020-2122"
  />
    <missing-glyph />
    <glyph glyph-name="a" unicode="a" horiz-adv-x="358" 
d="M358 198q3 7 10 7q5 0 9 -4t2 -11q-21 -59 -41 -104q-12 -28 -20.5 -44.5t-17.5 -29.5t-18 -22t-17 -9q-24 0 -40 14.5t-26 36t-14 47t-4 46.5q0 11 0.5 22t1.5 23q-12 -28 -27 -58.5t-31.5 -55t-33 -40.5t-32.5 -16q-41 0 -60.5 30t-19.5 84q0 30 11 62t31 57.5t48.5 42
t63.5 16.5q26 0 42 -5t25 -13q2 4 4 10q3 6 10 8.5t15 2.5q18 0 36 -8t16 -18q-10 -44 -13 -86.5t-2 -76t4.5 -54t6.5 -20.5q8 0 22 26t27 57q15 37 32 83zM76 53q9 0 20 12t22.5 31t22.5 42.5t21 46.5q0 8 -1 19t-3 21.5t-6.5 18t-11.5 7.5q-9 0 -22.5 -12.5t-25.5 -35
t-21 -53t-9 -67.5q0 -17 4.5 -23.5t9.5 -6.5z" />
    <glyph glyph-name="b" unicode="b" horiz-adv-x="321" 
d="M380 192q8 0 10.5 -9.5t-8.5 -12.5q-32 -10 -63 -21.5t-60 -24.5q-8 -34 -23 -66t-35 -56.5t-45.5 -39t-54.5 -14.5q-26 0 -34 13.5t-8 26.5q0 35 33.5 66.5t81.5 56.5q11 50 11 99q0 42 -6 62t-10 20q-14 0 -28 -17t-26 -47.5t-23 -71.5t-19 -89q-3 -33 -3 -35
q0 -5 -5.5 -7.5t-13.5 -2.5q-12 0 -24.5 4.5t-13.5 10.5q-9 54 -12.5 113t-3 116t3 108.5t6.5 91t8 63t6 25.5q8 5 15 6.5t16 1.5q13 -1 26 -5t15 -12q1 -3 -0.5 -37t-3.5 -85t-5 -111.5t-6 -116.5q8 27 18.5 51t23 42t27.5 28.5t32 10.5q39 0 64.5 -33.5t25.5 -89.5
q0 -13 -1.5 -25.5t-3.5 -25.5q6 2 22.5 8.5t35.5 13.5t36 12t22 5zM98 -25q18 0 36 29.5t32 74.5q-37 -22 -58.5 -44t-21.5 -44q0 -10 4 -13t8 -3z" />
    <glyph glyph-name="c" unicode="c" horiz-adv-x="253" 
d="M103 0q-18 0 -38 5.5t-36.5 20t-27.5 39.5t-11 65q0 49 14.5 80.5t35 49.5t42 25t35.5 7q27 0 41 -16.5t14 -39.5q0 -18 -13 -18q-5 0 -9 4t-4 11t-2.5 13.5t-7.5 6.5t-14 -8.5t-18 -25t-15.5 -40.5t-6.5 -54q0 -16 1 -33.5t4.5 -32t9 -24t14.5 -9.5q23 1 46 23.5t43 52
t34 57.5t19 39q3 7 11 7q5 0 8.5 -4t1.5 -11q-2 -6 -17 -36t-39 -64.5t-54 -62t-61 -27.5z" />
    <glyph glyph-name="d" unicode="d" horiz-adv-x="357" 
d="M357 198q3 7 10 7q6 0 10 -4t2 -11q-29 -74 -56 -133q-17 -35 -28.5 -55.5t-23.5 -38t-24 -28.5t-23 -11q-15 0 -28.5 11.5t-21.5 37.5q-9 46 -11.5 102t-0.5 116q-9 -24 -20 -49t-24 -46t-26.5 -34t-28.5 -13q-21 0 -35 8t-22.5 20.5t-12 28.5t-3.5 32q0 29 9 58t25 52
t36.5 37t43.5 14t37 -7t22 -21q1 5 5 15q4 48 9.5 93.5t12.5 85t14 72t13 53.5q2 6 9.5 9t15.5 3q10 0 19 -3.5t11 -11.5q1 -4 -4 -50t-11.5 -124.5t-12 -185t-5.5 -231.5q0 -9 6 -9t14 9t17 24t18.5 34t18.5 39q21 46 44 105zM81 98q6 0 13.5 11t16 29t18 41t18.5 47
q-3 16 -9 29t-17 13q-10 0 -22.5 -26.5t-20.5 -58.5t-9 -58.5t12 -26.5z" />
    <glyph glyph-name="e" unicode="e" horiz-adv-x="234" 
d="M234 198q3 7 10 7q5 0 9 -4t2 -11q-22 -53 -45 -95q-14 -25 -24.5 -40t-23 -27t-25.5 -20t-27 -8q-24 0 -45 9.5t-37.5 27t-26 43t-9.5 57.5t8.5 62.5t23 54t35 38t44.5 14.5q6 0 17.5 -2t23 -7.5t20 -16t8.5 -27.5q0 -30 -27 -56t-64 -34q-1 -5 -1 -16q0 -52 16 -74.5
t28 -22.5q20 0 39.5 23t35.5 51q18 33 35 74zM116 281q-5 0 -16 -27t-17 -66q15 12 28.5 30.5t13.5 35.5q0 8 -2 17.5t-7 9.5z" />
    <glyph glyph-name="f" unicode="f" horiz-adv-x="142" 
d="M138 602q40 0 59 -20t19 -64q0 -8 -9 -13.5t-17 -5.5q-11 0 -11 8q0 20 -4 39t-18 19q-6 0 -15 -10t-18 -33t-18 -60t-15 -91q19 1 38.5 2.5t39.5 4.5h2q6 0 8.5 -4t2 -8.5t-4 -8.5t-9.5 -5q-20 -2 -40 -4.5t-40 -4.5q-9 -82 -9 -206q0 -43 3 -87t6.5 -80.5t6.5 -60
t3 -26.5q1 -9 -8.5 -14t-22.5 -5q-14 0 -27 6.5t-15 20.5q-7 45 -12 79.5t-8 67.5t-4.5 67.5t-1.5 78.5q0 39 1 78t4 76q-13 -1 -23.5 -1h-18.5h-11q-10 0 -13.5 5t-2.5 11t5.5 11t10.5 5q5 0 20 -0.5t36 -0.5q6 49 15.5 92t25.5 74.5t38 49.5t52 18z" />
    <glyph glyph-name="g" unicode="g" horiz-adv-x="363" 
d="M363 198q3 7 10 7q5 0 9.5 -4t1.5 -11q-27 -72 -67.5 -129t-82.5 -101q-8 -42 -18 -80t-23 -67t-29 -46t-35 -17q-26 0 -42 13.5t-16 38.5t23 50t58 59q10 54 17.5 117.5t13.5 120.5q-16 -25 -35.5 -51.5t-38.5 -48.5t-37 -35.5t-33 -13.5q-8 0 -21.5 1.5t-27 9.5
t-23.5 25.5t-10 50.5q0 42 18 75t45.5 56.5t60 35.5t61.5 12q31 0 49 -13q1 11 1.5 18.5t0.5 11.5q0 8 10 11.5t23 3.5q16 0 30 -4.5t14 -12.5q0 -2 -1.5 -26.5t-4.5 -63.5t-8.5 -88t-13.5 -100q32 38 63.5 85.5t57.5 109.5zM56 41q11 0 27 15t33.5 38t35.5 50.5t33 52.5
q-2 14 -8 23.5t-17 9.5q-12 0 -31 -14.5t-38 -38.5t-32.5 -55t-13.5 -63q0 -18 11 -18zM110 -210q9 0 17.5 21.5t16.5 56.5q-22 -21 -34.5 -37t-12.5 -28q0 -5 2.5 -9t10.5 -4z" />
    <glyph glyph-name="h" unicode="h" horiz-adv-x="347" 
d="M347 198q3 7 10 7q5 0 9 -4t2 -11q-28 -74 -56 -133q-16 -35 -27.5 -55.5t-23.5 -38t-24 -28.5t-23 -11q-35 0 -56.5 45t-13.5 143q3 29 9.5 62.5t12.5 62.5t9.5 48.5t0.5 19.5q-9 1 -24.5 -21.5t-32 -60t-31 -85t-22.5 -97.5q0 -11 0.5 -17t1.5 -11q1 -8 -5.5 -12
t-15.5 -4q-8 0 -16.5 4.5t-11.5 15.5q-8 28 -13 73t-6.5 98t-0.5 108.5t4 105t7.5 88t9.5 56.5q5 11 18.5 13.5t24.5 2.5q22 -2 31.5 -10t8.5 -18q0 -3 -1.5 -17.5t-4 -35.5t-5.5 -47t-5 -54q-6 -69 -10 -119.5t-6 -88.5q12 35 26.5 67.5t31 57.5t36 40t40.5 15
q23 0 39.5 -22.5t16.5 -50.5q0 -16 -5 -40t-11.5 -55.5t-13 -69.5t-10.5 -82q-2 -29 2.5 -37t11.5 -8q6 0 14 9t17 24t18.5 34t18.5 39q21 46 44 105z" />
    <glyph glyph-name="i" unicode="i" horiz-adv-x="177" 
d="M177 198q1 7 9 7q5 0 9.5 -4t2.5 -11q-19 -53 -39 -95q-11 -25 -19 -40t-16.5 -27t-17 -20t-16.5 -8q-25 0 -42.5 14t-28 39t-15 59t-4.5 74q0 38 3.5 63t5.5 31q2 9 14 13.5t23 4.5q15 0 26 -5.5t11 -10.5q0 -3 -1.5 -15.5t-3.5 -31t-3.5 -41t-1.5 -45.5q0 -31 3 -50
t7.5 -29.5t9.5 -14.5t8 -4q9 0 21.5 23t25.5 51q14 32 29 73zM62 343q-13 0 -21.5 5.5t-13.5 13.5t-7 17t-2 15q0 12 10 23.5t36 11.5t36.5 -10t10.5 -25q0 -6 -3 -14.5t-9 -17t-15.5 -14t-21.5 -5.5z" />
    <glyph glyph-name="j" unicode="j" horiz-adv-x="204" 
d="M204 198q3 7 11 7q5 0 9.5 -4t1.5 -11q-27 -72 -68 -129t-82 -101q-8 -42 -18.5 -80t-23.5 -67t-29 -46t-35 -17q-26 0 -42 13.5t-16 38.5t23 50t58 59q6 35 12 75t10.5 80t8 77.5t6.5 67.5l-9 -21q-3 -6 -10 -6q-5 0 -9 4t-2 10l34 88q4 7 13 9.5t20 2.5q16 0 30 -4.5
t14 -12.5q0 -2 -1.5 -26.5t-4.5 -63.5t-8.5 -88t-13.5 -100q32 38 63.5 85.5t57.5 109.5zM-49 -210q9 0 17.5 21.5t16.5 56.5q-21 -21 -33.5 -37t-12.5 -28q0 -5 2 -9t10 -4zM81 343q-13 0 -21.5 5.5t-13.5 13.5t-7 17t-2 15q0 12 10 23.5t36 11.5t36.5 -10t10.5 -25
q0 -6 -3 -14.5t-9 -17t-15.5 -14t-21.5 -5.5z" />
    <glyph glyph-name="k" unicode="k" horiz-adv-x="266" 
d="M190 9q5 -2 4 -11t-11 -9q-14 4 -31 11.5t-33.5 18t-31 22.5t-24.5 24q-4 -46 -7.5 -78t-5.5 -40q-2 -4 -7.5 -6.5t-12.5 -2.5q-14 0 -17 9q-5 18 -8 66t-4.5 109.5t-1 130.5t3 129.5t7 106.5t11.5 61q3 5 9 8.5t19 3.5q33 0 38 -23q3 -12 2 -45t-3.5 -80t-6.5 -103
t-7 -113q23 45 46 73.5t52 28.5q20 -4 37 -13q14 -8 25 -21t11 -33q0 -25 -10.5 -48.5t-28.5 -43t-42.5 -35t-52.5 -24.5q9 -14 21 -26t23.5 -21.5t21.5 -16t15 -9.5zM170 269q-5 0 -16 -7t-24.5 -23.5t-28 -43t-27.5 -65.5q21 11 39.5 28.5t33 36.5t23 37t8.5 28q0 5 -3 7
t-5 2z" />
    <glyph glyph-name="l" unicode="l" horiz-adv-x="169" 
d="M82 0q-24 0 -40 21.5t-26 58t-14.5 85.5t-4.5 104q0 49 3 98t6.5 89t7.5 66t6 29q5 6 16.5 8.5t21.5 2.5q13 0 26 -5t13 -18q0 -6 -3 -34t-6 -69.5t-6 -91t-3 -97.5q0 -31 0.5 -65t2.5 -62t5 -46t8 -18q9 0 21.5 22t24.5 49q13 31 28 71q3 7 10 7q5 0 9 -4t2 -11
q-19 -53 -38 -95q-11 -25 -19 -40t-17 -27t-17.5 -20t-16.5 -8z" />
    <glyph glyph-name="m" unicode="m" horiz-adv-x="487" 
d="M487 198q3 7 10 7q5 0 9 -4t2 -11q-27 -69 -54 -123q-16 -33 -27.5 -52t-23.5 -35t-23.5 -26.5t-22.5 -10.5q-26 0 -42.5 26.5t-16.5 62.5q0 27 4 64.5t9 72t8.5 59t2.5 24.5q-2 0 -9.5 -17.5t-18 -43.5t-22 -56t-22.5 -56t-20 -43.5t-14 -17.5q-4 -2 -14 -2
q-12 0 -26.5 4.5t-16.5 17.5q-2 11 -2.5 39t-1 57.5t-0.5 52.5t-2 23q-1 0 -10 -19.5t-21 -49t-24 -63t-19 -61.5q0 -8 1 -11q0 -5 -7 -7.5t-18 -2.5q-13 0 -25.5 3.5t-14.5 10.5q-12 32 -15 80.5t-1.5 95t5.5 81.5t7 40q8 9 27 9q17 0 35 -7t17 -18q-5 -64 -7.5 -109.5
t-4.5 -76.5q11 26 23 52t22.5 47.5t18.5 36t11 17.5q6 6 24 6q12 0 24 -3.5t16 -9.5q2 -3 3 -19.5t2 -40t1 -50.5t-1 -51q11 27 26.5 65t30.5 72.5t26.5 60t14.5 28.5q5 5 20 5q16 0 34 -6t22 -17q3 -7 1.5 -31.5t-4 -57t-6.5 -68t-6.5 -66t-4 -50t1.5 -19.5q6 0 14 8.5
t16.5 22t18 30.5t18.5 35q20 42 42 96z" />
    <glyph glyph-name="n" unicode="n" horiz-adv-x="391" 
d="M282 6q6 0 14 8.5t17 22t18 30.5t18 35q20 42 42 96q3 7 10 7q5 0 9 -4t2 -11q-27 -69 -54 -123q-16 -33 -27.5 -52t-23.5 -35t-23.5 -26.5t-22.5 -10.5q-27 0 -46 33t-19 95q0 31 3.5 69t6.5 71.5t4.5 56.5t-2.5 23q-7 0 -17.5 -15t-22.5 -38t-25 -51.5t-23.5 -55.5
t-18.5 -49.5t-11 -33.5q-2 -10 -14.5 -15t-25.5 -5q-16 0 -22 6q-13 14 -19.5 45t-8 64t-1 60.5t0.5 34.5q0 8 14.5 13t23.5 5q8 0 18 -1.5t20 -11.5q5 -5 6.5 -28t1.5 -48q0 -30 -1 -67q21 63 44 113q13 29 23.5 46.5t22 32t24 24t25.5 9.5q24 0 44 -15t20 -47
q0 -10 -1.5 -33.5t-3 -52t-3 -59t-2 -55.5t0.5 -41t5 -16z" />
    <glyph glyph-name="o" unicode="o" horiz-adv-x="189" 
d="M115 268q19 -2 31.5 -22t12.5 -62q0 -20 -6.5 -51.5t-18.5 -61t-29 -50.5t-38 -21q-11 0 -25 2t-27 12t-21.5 30t-8.5 57t7.5 69t18.5 56t25 38t27 14q21 0 35.5 -3t16.5 -7zM77 25q2 0 10.5 14.5t18.5 37.5t18 51t8 56q0 35 -7.5 49.5t-18.5 18.5q-7 -12 -14.5 -30
t-13.5 -39.5t-10 -44t-4 -43.5q0 -35 4.5 -52.5t8.5 -17.5z" />
    <glyph glyph-name="p" unicode="p" horiz-adv-x="326" 
d="M395 194q8 0 10.5 -9.5t-8.5 -12.5q-32 -10 -63 -21.5t-60 -24.5q-8 -34 -23 -66t-35 -56.5t-45.5 -39t-54.5 -14.5q-21 0 -30 9.5t-11 20.5q-2 -18 -3.5 -35.5t-3.5 -35.5q-1 -53 -1.5 -88.5t-0.5 -40.5q0 -6 -5.5 -8.5t-13.5 -2.5q-11 0 -21 4t-11 10q-9 54 -13.5 113
t-5.5 116t0.5 108.5t4 91t5 63t4.5 25.5q6 6 13 7.5t15 1.5q11 -1 22.5 -4.5t13.5 -11.5v-15.5v-38t-0.5 -55t-1.5 -66.5q8 36 19.5 73.5t26.5 68t34 50t42 19.5q39 0 64.5 -33.5t25.5 -89.5q0 -13 -1.5 -25.5t-3.5 -25.5q6 2 22.5 8.5t35.5 13.5t36 12t22 5zM80 18
q12 27 41.5 51t67.5 44q11 50 11 99q0 42 -6 62t-10 20q-12 0 -26.5 -22.5t-28.5 -60.5t-27 -88t-22 -105zM113 -23q18 0 36 29.5t32 74.5q-37 -22 -58.5 -44t-21.5 -44q0 -10 4 -13t8 -3z" />
    <glyph glyph-name="q" unicode="q" horiz-adv-x="337" 
d="M337 198q3 7 10 7q5 0 9.5 -4t2.5 -11q-34 -69 -61 -132q-17 -37 -27 -62t-19.5 -50t-16.5 -48t-10 -40q-4 -36 -6 -58t-3 -24q-1 -4 -7.5 -5.5t-14.5 -1.5q-10 0 -19.5 2t-11.5 7q-4 27 -5.5 69.5t0 93.5t5.5 105t10 103q-12 -27 -26 -53.5t-29 -48t-30 -34.5t-29 -13
q-41 0 -60.5 30t-19.5 84q0 30 11 62t31 57.5t48.5 42t63.5 16.5q24 0 39.5 -4t24.5 -11q2 9 5 16t5 12q2 2 9.5 3t15.5 1q10 0 19 -1.5t11 -4.5q0 -2 -2 -31t-5.5 -74t-8 -100.5t-9.5 -109.5q15 35 32 72.5t33 67.5q17 36 35 70zM76 54q9 0 20 12t22.5 30.5t22.5 42
t21 46.5q0 8 -1 19t-3 22t-6.5 18.5t-11.5 7.5q-9 0 -22.5 -12.5t-25.5 -35t-21 -53.5t-9 -68q0 -29 14 -29z" />
    <glyph glyph-name="u" unicode="u" horiz-adv-x="298" 
d="M298 198q3 7 10 7q5 0 9 -4t2 -11q-21 -59 -41 -104q-12 -28 -20.5 -44.5t-17.5 -29.5t-18 -22t-17 -9q-23 0 -35.5 18t-18.5 42.5t-7 51t-1 44.5v17t1 20q-7 -19 -17 -42.5t-22 -44.5t-25 -35t-25 -14q-20 0 -31.5 12.5t-17 31.5t-7 41.5t-1.5 42.5q0 40 7 72t11 47
q1 3 5 5q3 2 7.5 3.5t12.5 1.5q16 0 26.5 -11.5t10.5 -30.5q0 -9 -3 -38.5t-5.5 -61t-3.5 -56t3 -24.5q7 0 19.5 26.5t26 60.5t25.5 67t18 45q5 1 15 1q21 0 32.5 -9t11.5 -18q0 -3 -1.5 -20t-3 -41t-3 -51t-1.5 -49.5t2 -37.5t7 -15q8 0 22 26t27 57q15 37 32 83z" />
    <glyph glyph-name="r" unicode="r" horiz-adv-x="230" 
d="M230 198q1 7 10 7q5 0 9 -4t2 -11q-26 -66 -52 -117q-15 -31 -26 -49t-22.5 -33t-23 -25t-22.5 -10q-32 0 -50.5 24.5t-18.5 67.5q0 29 3.5 60.5t7 60.5t7 54t3.5 40q0 9 -2.5 12.5t-6.5 5.5q-1 -5 -5 -21t-9 -33.5t-11 -31t-12 -13.5q-5 0 -9 5t-2 11q16 46 24 85
q-16 0 -21 10t-2.5 22t11.5 22t21 10q13 0 19 -10.5t0 -36.5q16 0 30.5 -1.5t25 -7.5t17 -17t6.5 -31q0 -8 -2.5 -28.5t-5.5 -47t-6 -55t-4.5 -52t0.5 -39t8 -15.5t14 8.5t16.5 22t18 30.5t18.5 35q20 42 42 96z" />
    <glyph glyph-name="s" unicode="s" horiz-adv-x="197" 
d="M197 198q3 7 10 7q5 0 9 -4t2 -11q-12 -38 -31 -64.5t-39 -46.5q2 -8 2 -14.5v-12.5q0 -50 -17.5 -79t-59.5 -29q-5 0 -12.5 2.5t-14.5 8.5t-12 15t-5 23q0 21 14 34.5t36 27.5q-7 32 -21 74.5t-27 84.5q-3 -7 -5.5 -13t-4.5 -11q-3 -7 -10 -7q-6 0 -10 4t-1 11t6 15
q3 7 6.5 16t7.5 20q-6 20 -9.5 37.5t-3.5 29.5q0 19 9.5 31t23 19.5t29 10.5t27.5 3q15 0 23 -6.5t10.5 -14t1 -14t-5.5 -6.5q-7 0 -9 4t-3.5 8.5t-4 8t-10.5 3.5q-6 0 -11.5 -7t-5.5 -23q0 -17 7 -42.5t17 -56t20.5 -63t17.5 -62.5q15 16 29 38t25 51zM70 -24q5 0 8.5 11
t3.5 39q-11 -9 -18 -17.5t-7 -17.5q0 -15 13 -15z" />
    <glyph glyph-name="t" unicode="t" horiz-adv-x="168" 
d="M168 198q3 7 10 7q5 0 9 -4t2 -11q-19 -53 -38 -95q-11 -25 -19 -40t-17 -27t-17.5 -20t-16.5 -8q-24 0 -40 21.5t-26 58t-14.5 85t-4.5 103.5q0 39 2 78t4 74q-17 -2 -32.5 -2h-26.5h-13q-10 0 -13.5 5t-2.5 11t6 11t11 5t25.5 -0.5t48.5 -0.5q4 43 8 70.5t6 30.5
q5 7 16 9.5t22 2.5q13 0 26 -5.5t13 -17.5q0 -5 -2.5 -28t-5.5 -58q30 2 60 6h2q6 0 8.5 -4t2 -8.5t-4 -8.5t-9.5 -5q-15 -2 -30.5 -3.5t-30.5 -3.5q-3 -40 -5.5 -87t-2.5 -93q0 -31 0.5 -64.5t2.5 -61.5t5 -46t8 -18q9 0 21.5 22t24.5 49q13 31 28 71z" />
    <glyph glyph-name="v" unicode="v" horiz-adv-x="203" 
d="M-17 293q3 7 16.5 10.5t29.5 3.5q15 0 27 -3.5t13 -10.5q6 -48 11 -88.5t9.5 -70t8 -46.5t5.5 -17q1 0 6 16.5t11 41.5t13.5 54.5t13.5 55.5t10.5 44t5.5 21q2 5 6.5 7t9.5 2t9 -2.5t2 -7.5q-1 -3 -5.5 -24.5t-11.5 -52.5t-14.5 -66.5t-15 -66.5t-13.5 -53.5t-9 -26.5
q-4 -6 -12.5 -9.5t-19.5 -3.5t-22 4.5t-16 14.5q-13 27 -26 71t-22.5 87t-15.5 76.5t-4 39.5z" />
    <glyph glyph-name="w" unicode="w" horiz-adv-x="337" 
d="M372 256q15 0 14 -11.5t-13 -14.5q-8 -3 -20.5 -5.5t-26 -5t-25 -4.5t-16.5 -2q1 -9 2.5 -26.5t1.5 -48.5q0 -49 -10.5 -84.5t-26 -58.5t-33.5 -34t-33 -11q-28 0 -40.5 22.5t-17 49.5t-4 50t-1.5 23t-9.5 -15t-19.5 -33t-28 -32.5t-34 -14.5q-11 0 -19 7t-13.5 17.5
t-8.5 22.5t-3 23q0 31 4 70.5t9.5 75t12 61.5t10.5 30q3 3 15 3q8 0 18 -2t19 -5.5t15.5 -8.5t6.5 -10t-2.5 -24t-6 -44t-7 -53t-6.5 -51.5t-4.5 -38.5t-0.5 -15q2 0 12.5 17.5t23 39.5t24 41.5t15.5 22.5q3 5 18 5q8 0 17 -2.5t15 -7.5q4 -4 3.5 -34.5t-1.5 -65.5
t-1.5 -63.5t5.5 -28.5q5 0 14.5 8.5t18.5 27t16 47.5t7 70q0 38 -3.5 58t-4.5 31q-2 11 16 11q8 0 22.5 2.5t30 6t30 6.5t23.5 6z" />
    <glyph glyph-name="x" unicode="x" horiz-adv-x="196" 
d="M152 296q4 8 13 8t16.5 -7t3.5 -17q-2 -4 -10 -18t-20.5 -34t-28.5 -44.5t-35 -50.5q10 -24 19 -46.5t16.5 -41t12.5 -30.5t6 -15q3 -9 -7 -19t-24 -10q-8 0 -15.5 5t-12.5 16q-2 4 -12.5 27t-24.5 56q-13 -17 -25.5 -33t-25.5 -31q-10 -11 -19 -11q-8 0 -11 8.5t4 16.5
q13 15 29.5 36.5t33.5 46.5q-12 27 -24 55.5t-22.5 52.5t-18 41t-10.5 23q-8 18 2.5 27.5t26.5 9.5q11 0 21.5 -5.5t14.5 -16.5q1 -4 5.5 -15.5t11.5 -28.5t16 -38t18 -44q27 42 48 77.5t28 49.5z" />
    <glyph glyph-name="y" unicode="y" horiz-adv-x="345" 
d="M345 198q3 7 10 7q5 0 9.5 -4t1.5 -11q-23 -63 -60.5 -108.5t-77.5 -79.5q-7 -47 -18 -92.5t-26 -81t-35 -57t-45 -21.5q-30 0 -54 20t-24 62q0 22 9.5 39.5t25.5 33t37.5 30t46.5 31.5q8 54 14 109.5t10 101.5q-9 -20 -21.5 -47t-27.5 -51.5t-31 -41.5t-31 -17
q-23 0 -36.5 11t-20.5 28.5t-8.5 37.5t-1.5 38q0 35 8 64t13 42q1 3 5 5q3 1 9 2.5t15 1.5q19 0 31 -10t12 -27q0 -9 -3.5 -35t-7 -54t-4.5 -50t4 -22q6 0 15.5 15.5t20 39t21.5 51t20 51.5t16 40.5t9 18.5q0 12 7 17t17 5q17 0 35.5 -12t17.5 -27q0 -1 -1 -19.5t-3 -48.5
t-5.5 -68.5t-9.5 -79.5q31 29 60 68.5t52 94.5zM82 -210q9 0 17 11.5t15 31t13.5 46t11.5 57.5q-38 -28 -62.5 -51.5t-24.5 -51.5t11 -35.5t19 -7.5z" />
    <glyph glyph-name="z" unicode="z" horiz-adv-x="267" 
d="M267 198q2 6 10 6q5 0 9 -3.5t2 -10.5q-19 -51 -43 -93t-50 -79q5 -36 -3 -82.5t-25.5 -88t-44.5 -69.5t-62 -28q-26 0 -42 13.5t-16 38.5q0 16 9.5 33t25.5 36t37.5 41.5t45.5 50.5q2 13 3 23t1 17q0 21 -10.5 28t-24.5 7q-13 0 -25 -3t-18 -3q-8 0 -14 4.5t-6 15.5
t11.5 41t25.5 65t25.5 67t11.5 47q0 13 -4.5 15t-10.5 2q-8 0 -18 -2t-22 -4q0 -6 -3 -22.5t-7.5 -34.5t-10.5 -32t-13 -14q-5 0 -9 5t-2 13q18 54 19 81q-10 -2 -18.5 -3t-16.5 -1q-20 0 -30.5 13t-10.5 32t11.5 35.5t36.5 16.5q26 0 39.5 -20.5t15.5 -50.5q17 3 34 5.5
t32 2.5q36 0 49 -17t13 -40q0 -19 -11 -46.5t-24.5 -54.5l-24.5 -49t-11 -31q22 14 41 14q30 0 43 -35q21 31 41 67.5t39 80.5zM-4 345q-7 0 -12 -8t-6 -17.5t2.5 -17.5t12.5 -8q5 0 11.5 0.5t14.5 1.5q-1 20 -6 34.5t-17 14.5zM41 -210q11 0 20.5 11t18.5 28.5t16 39.5
t13 45q-35 -39 -58 -66t-23 -45q0 -5 2.5 -9t10.5 -4z" />
    <glyph glyph-name="A" unicode="A" 
d="M161 582q19 -19 30.5 -66t17.5 -108t8 -128t2 -125.5t-1 -101.5t-1 -55q0 -18 -12 -25.5t-26 -7.5q-16 0 -29 7t-13 18v25t-2 52q-18 -5 -38.5 -7t-39.5 -2h-18q-3 -51 -3 -102q0 -5 -9.5 -8.5t-19.5 -3.5q-14 0 -14 7q0 49 2.5 111.5t7 129t11 131.5t15.5 119.5
t20.5 93.5t24.5 52q14 14 38 14q13 0 26 -5t23 -15zM39 78q26 1 51.5 5t44.5 9q-1 40 -3 88.5t-4.5 98.5t-5 97t-5.5 83.5t-6 58.5t-6 22q-6 0 -15 -38t-19 -102t-18.5 -147.5t-13.5 -174.5z" />
    <glyph glyph-name="B" unicode="B" horiz-adv-x="326" 
d="M365 148h3q8 0 9 -7.5t-8 -9.5q-12 -4 -26 -8t-30 -9.5t-35 -11.5q-6 -36 -21 -65.5t-37 -50t-49 -31.5t-56 -11q-19 0 -31 3.5t-21 8.5q0 -5 -2 -9q-1 -4 -8 -6.5t-15 -2.5q-6 0 -12 2t-8 7q-5 18 -8.5 66t-5 109.5t-1 130.5t3.5 129.5t8 106t13 61.5q4 5 7.5 8.5
t17.5 3.5q39 0 43 -22q3 -12 3 -49q15 47 35.5 79t50.5 32q47 0 71.5 -26.5t24.5 -67.5q0 -38 -10.5 -70t-27.5 -57.5t-38 -45t-43 -33.5q54 -10 86.5 -54.5t32.5 -104.5v-10.5t-1 -10.5q19 6 34.5 11t26.5 8q14 4 24 7zM204 147q0 57 -20.5 89t-51.5 32q-10 0 -21 -2
t-20 -5q-4 -60 -8.5 -119t-10.5 -119q20 20 54 37.5t71 32.5q4 13 5.5 26.5t1.5 27.5zM183 556q-18 0 -32.5 -22t-25.5 -57t-18.5 -78.5t-12.5 -86.5q24 12 44 37.5t34.5 56.5t22.5 64t8 60q0 17 -7 21.5t-13 4.5zM99 -30q27 0 52 28t39 70q-44 -19 -77 -40t-33 -40
q0 -18 19 -18z" />
    <glyph glyph-name="C" unicode="C" horiz-adv-x="296" 
d="M177 602q39 0 56.5 -18t20.5 -39.5t-4.5 -39.5t-18.5 -18q-10 0 -11.5 9t-0.5 19.5t0.5 19t-10.5 8.5q-19 0 -37 -31.5t-32.5 -80t-23.5 -107.5t-9 -114q0 -36 1.5 -79t6.5 -79.5t14 -61.5t23 -25q20 0 40 23.5t38.5 58.5t35.5 76t30 75q3 7 9 7t10.5 -5t2.5 -10
q-13 -33 -30.5 -75.5t-38 -80.5t-43 -64t-44.5 -26q-27 0 -55.5 6.5t-52 34.5t-39 85t-15.5 157t18 171t44.5 116.5t57.5 66.5t57 21z" />
    <glyph glyph-name="D" unicode="D" horiz-adv-x="386" 
d="M213 602q50 0 79 -27.5t42 -73t11 -103.5t-15.5 -118.5t-36.5 -118.5t-52.5 -103.5t-63 -73t-67.5 -27.5q-17 0 -25.5 6.5t-11.5 14.5q-4 10 -4 22q0 6 7 6q9 0 9 -6q0 -17 19 -17q24 0 46.5 42t40.5 105t30.5 137t15.5 137t-5 105t-30 42q-20 0 -37 -20t-31 -52.5
t-25 -74.5t-20 -87q-3 -59 -8 -121t-10 -114t-9.5 -89t-8.5 -46q-2 -4 -9.5 -6.5t-15.5 -2.5q-17 0 -22 9q-6 18 -10 66t-5.5 109.5t-1 130.5t3.5 129.5t9 106.5t15 61q4 5 7.5 8.5t19.5 3.5q23 0 34 -5.5t14 -16.5q2 -11 3 -38.5t-1 -67.5q10 35 22 65.5t26.5 53.5t32 36
t38.5 13z" />
    <glyph glyph-name="E" unicode="E" horiz-adv-x="290" 
d="M255 36q13 2 16.5 -11.5t-11.5 -21.5q-26 -13 -53 -23q-26 -9 -55 -16t-59 -7q-25 0 -42.5 22.5t-28 61.5t-15.5 90.5t-5 109.5q0 52 3 103.5t7 93.5t8.5 70t6.5 31q5 6 19 10q0 5 2.5 10.5t8.5 6.5q26 5 56.5 9t57.5 7t48 4.5t29 2.5h2q8 0 12 -5t3.5 -11.5t-4 -12
t-10.5 -5.5q-46 -4 -84 -8t-63 -8q5 -5 5 -12q0 -6 -2.5 -33.5t-6 -67.5t-6.5 -89t-4 -98q38 7 61.5 9.5t36.5 3.5h2q8 0 12 -5t3.5 -11t-4 -11t-10.5 -6q-39 -3 -63 -6.5t-38 -5.5q0 -33 2.5 -70.5t6 -69.5t8 -53t9.5 -21q29 0 54 6.5t44 15.5q22 9 41 21z" />
    <glyph glyph-name="F" unicode="F" horiz-adv-x="214" 
d="M246 589q9 1 13.5 -4t4.5 -11.5t-4 -12t-12 -5.5q-49 -4 -89 -9t-64 -9q0 -10 -1 -39.5t-2.5 -71t-4 -90t-4.5 -98.5q39 7 64 9.5t39 4.5h2q8 0 12 -5t3.5 -11.5t-4.5 -12t-11 -5.5q-44 -3 -69 -7t-38 -7q-2 -43 -3.5 -82.5t-3 -70.5t-2.5 -50.5t-1 -22.5q0 -6 -6 -8.5
t-14 -2.5q-12 0 -24 4.5t-13 11.5q-8 60 -11.5 124.5t-3.5 127t3 119.5t7 100.5t8 69.5t6 28q11 9 25 9q2 3 7 5q26 5 56 8.5t57.5 6.5t48.5 5t29 2z" />
    <glyph glyph-name="G" unicode="G" horiz-adv-x="322" 
d="M226 422q-3 3 -3.5 24.5t-2 46t-7 44t-20.5 19.5t-29 -28t-25.5 -73t-18.5 -100.5t-7 -110.5q0 -129 10.5 -196.5t29.5 -67.5q11 0 22.5 19t22.5 48t20 62.5t14.5 62.5t7 48t-3.5 19l-48 1q-6 0 -9 5t-3 11t3.5 11t11.5 5h12q13 0 32.5 -0.5t33.5 -3.5t14 -18
q0 -33 -6 -73t-18 -80t-30 -76t-41 -59q-16 -16 -47 -16q-17 0 -32 5t-26 16q-15 15 -29.5 37.5t-26 56t-18.5 79t-7 104.5q0 65 11 129t33.5 114.5t57 82t80.5 31.5q39 0 57 -23t24 -52.5t4.5 -57t-1.5 -37.5q0 -5 -8.5 -9.5t-18.5 -4.5t-15 5z" />
    <glyph glyph-name="H" unicode="H" horiz-adv-x="323" 
d="M271 540q3 -13 2.5 -59.5t-3 -109t-6 -132.5t-8 -131.5t-9 -106t-7.5 -54.5q-1 -4 -7 -6.5t-13 -2.5q-14 0 -17 9q-3 12 -5.5 36t-4 56.5t-2.5 71.5t-1 81q-57 -5 -80.5 -10t-29.5 -7q-2 -39 -3.5 -73t-3 -60.5t-2 -43t-0.5 -19.5q0 -6 -6 -8.5t-14 -2.5q-11 0 -23 4.5
t-14 11.5q-8 60 -11.5 124.5t-3 127t3.5 119.5t6.5 100.5t7.5 69.5t6 28q7 6 14.5 7.5t16.5 1.5q13 -2 26 -6t15 -13q1 -2 0 -33t-3 -78.5t-4.5 -106t-5.5 -115.5q39 7 65.5 10t42.5 5q0 54 1.5 106.5t4 97t6.5 77t9 44.5q4 5 7 8.5t15 3.5q33 0 38 -22z" />
    <glyph glyph-name="I" unicode="I" horiz-adv-x="162" 
d="M76 532q13 -2 25.5 -5.5t14.5 -11.5q1 -3 -0.5 -40.5t-4 -92.5t-5.5 -119t-5.5 -119.5t-4.5 -94t-2 -42.5q0 -6 -6 -8.5t-14 -2.5q-12 0 -24 4.5t-13 10.5q-9 54 -12.5 112.5t-3 115t3 107.5t6.5 90t7.5 63t5.5 25q8 5 15.5 6.5t16.5 1.5z" />
    <glyph glyph-name="J" unicode="J" horiz-adv-x="141" 
d="M-24 33q-28 -20 -46 -36t-18 -29q0 -15 14 -15q18 0 30 22t20 58zM90 515q0 -113 -4 -208.5t-15 -170.5q25 21 46 45.5t35 53.5q5 9 13 9q5 0 8 -5t0 -13q-19 -38 -47.5 -69t-60.5 -57q-16 -79 -45.5 -123t-80.5 -44q-18 0 -28.5 3.5t-16 9t-7.5 11.5t-2 11q0 25 28.5 49
t68.5 52q8 54 11.5 120.5t6.5 131t6.5 119t11.5 84.5q6 5 15 6.5t19 1.5q13 0 25.5 -4.5t12.5 -12.5z" />
    <glyph glyph-name="K" unicode="K" horiz-adv-x="237" 
d="M245 580q5 6 12 6q9 0 16.5 -8.5t1.5 -16.5q-31 -54 -61 -108q-18 -31 -30 -53t-25 -46t-25.5 -48t-22.5 -45q9 -31 24 -75.5t29 -85.5q17 -47 35 -98q5 -13 0.5 -18t-10.5 -5q-8 0 -13 7q-13 23 -26 54.5t-25 63.5t-22 60.5t-15 44.5q-2 -4 -3 -7t-2 -5
q-2 -42 -3.5 -80.5t-3 -67.5t-2.5 -48t-1 -22q0 -6 -6 -8.5t-15 -2.5q-12 0 -24.5 4.5t-14.5 12.5q-9 63 -12 131t-3 133.5t3.5 125t7.5 105t8 73t6 29.5q12 10 27 10q17 -2 31.5 -6.5t16.5 -13.5q1 -2 0 -28t-2.5 -66.5t-4 -91.5t-4.5 -105q12 28 31 68t40.5 82t44 82
t42.5 67z" />
    <glyph glyph-name="L" unicode="L" horiz-adv-x="271" 
d="M255 36q13 2 16.5 -11.5t-11.5 -21.5q-26 -13 -53 -23q-26 -9 -55 -16t-59 -7q-25 0 -42.5 22.5t-28 61.5t-15.5 90.5t-5 109.5q0 52 3 103.5t7 93.5t8.5 70t6.5 31q5 6 17.5 9t23.5 3q14 0 27.5 -5.5t13.5 -18.5q0 -7 -3 -37t-6.5 -73.5t-6.5 -96t-3 -103.5q0 -33 2 -72
t5.5 -73t8.5 -56.5t10 -22.5q29 0 54 6.5t44 15.5q22 9 41 21z" />
    <glyph glyph-name="M" unicode="M" horiz-adv-x="416" 
d="M5 -12q-6 26 -8.5 77t-2 114t3 129.5t6.5 123.5t8.5 96.5t8.5 46.5q3 6 19.5 11.5t33.5 5.5q12 0 22.5 -3.5t15.5 -12.5q3 -5 7 -24t8.5 -47t9 -62t9.5 -68q10 -81 21 -181q19 106 35 192q10 51 16 81.5t11.5 57t10 45t6.5 22.5q4 5 12 7.5t19 2.5q17 0 33 -5.5t18 -14.5
q7 -22 9.5 -75.5t2.5 -121t-2.5 -140.5t-5.5 -134.5t-5.5 -104t-4.5 -47.5q-2 -8 -13 -12t-23 -4t-22.5 3.5t-14.5 9.5q-5 13 -8.5 40.5t-5.5 64t-2.5 78.5t0.5 84q0 99 4 216q-6 -22 -13.5 -55t-14 -69t-13 -72.5t-11.5 -66t-8.5 -48.5t-4.5 -22q-5 -10 -24 -10
q-14 0 -24 8q-2 3 -6.5 20t-9 43.5t-10 59t-11.5 66.5q-13 80 -27 179q-5 -45 -7.5 -97.5t-3.5 -105t-0.5 -102t1.5 -88.5t1.5 -63.5t-0.5 -26.5q-2 -5 -9.5 -7t-15.5 -2q-7 0 -13 1.5t-8 6.5z" />
    <glyph glyph-name="N" unicode="N" horiz-adv-x="318" 
d="M266 583q7 -22 9.5 -73.5t2 -117t-2.5 -136t-4.5 -130.5t-5.5 -100.5t-4 -45.5q-2 -8 -12 -11.5t-21 -4.5v-1q-1 -4 -7 -4q-5 0 -11.5 3t-12.5 8q-4 3 -6 6q-3 2 -9.5 26t-15.5 61.5t-19.5 84.5t-21.5 96q-25 114 -55 258q-5 -45 -8 -102.5t-4.5 -117.5t-1.5 -117v-102.5
t0.5 -74.5t-0.5 -31q-2 -5 -9.5 -7.5t-16.5 -2.5q-7 0 -13.5 2t-8.5 7q-6 26 -9 79.5t-2.5 120t3.5 137t7 131t9 102t9 49.5q3 5 13.5 8t22.5 3q10 0 18.5 -2.5t10.5 -8.5t12 -45t23.5 -94.5t27.5 -119t23 -118.5q1 58 3.5 125.5t5.5 126t6.5 99t5.5 43.5q3 5 10.5 7.5
t16.5 2.5q14 0 27 -5.5t15 -13.5z" />
    <glyph glyph-name="O" unicode="O" horiz-adv-x="362" 
d="M225 588q37 -39 52.5 -112.5t15.5 -195.5q0 -61 -9.5 -119t-27.5 -103.5t-44.5 -73t-61.5 -27.5q-30 0 -58 16.5t-49 52t-34 91t-13 133.5t13.5 137t31 100t34.5 64.5t24 31.5q12 14 29.5 20.5t36.5 6.5q18 0 34 -5.5t26 -16.5zM164 -14q11 0 26 19t29 56.5t24 94.5
t10 132q0 76 -5.5 126.5t-13.5 81t-17.5 43.5t-18.5 13t-23.5 -15.5t-29 -51.5t-25 -95t-10.5 -145q0 -121 14.5 -190t39.5 -69z" />
    <glyph glyph-name="P" unicode="P" horiz-adv-x="271" 
d="M311 456q0 -49 -15.5 -88t-39 -68.5t-52 -50.5t-55 -34.5t-47.5 -20t-29 -7.5v-2q-3 -43 -5.5 -83.5t-5.5 -72.5t-5.5 -53.5t-4.5 -28.5q-2 -4 -7.5 -6.5t-12.5 -2.5q-14 0 -17 9q-5 18 -8 66t-4.5 109.5t-1 130.5t3 129.5t7 106.5t11.5 61q4 5 6.5 8.5t15.5 3.5
q18 0 26.5 -5.5t10.5 -16.5q3 -13 3 -53.5t-2 -97.5q8 42 19.5 81t26.5 68t34 46.5t43 17.5q32 0 52.5 -16t32 -39t16 -48t4.5 -43zM207 551q-25 0 -45 -30t-36 -76.5t-27.5 -103t-19.5 -109.5q32 8 60 30.5t48.5 54t32 68.5t11.5 72q0 11 -0.5 27t-2.5 31t-7 25.5t-14 10.5
z" />
    <glyph glyph-name="Q" unicode="Q" horiz-adv-x="344" 
d="M227 -1q17 -22 28 -36.5t17 -23.5q8 -11 1 -18.5t-16 -7.5t-13 7q-13 18 -22.5 31.5t-17.5 24.5q-24 -19 -51 -19q-30 0 -58 16.5t-49 52t-34 91t-13 133.5t13.5 136.5t31 99.5t34.5 65t24 32q12 14 29.5 20.5t36.5 6.5q17 0 33.5 -5.5t26.5 -16.5q37 -39 52.5 -112.5
t15.5 -196.5q0 -42 -4.5 -83t-13 -77.5t-21.5 -67t-30 -52.5zM167 -14q7 0 20 11q-6 7 -10 11l-6 6q-3 3 -5 4q-9 10 -2 19.5t17 9.5q5 0 9 -4q5 -5 8.5 -9.5t7.5 -8.5q19 35 34.5 100t15.5 163q0 75 -5.5 126t-13.5 81.5t-17.5 43.5t-18.5 13t-23.5 -16t-29 -52t-25 -95
t-10.5 -145q0 -120 14.5 -189t39.5 -69z" />
    <glyph glyph-name="R" unicode="R" horiz-adv-x="295" 
d="M127 200l37.5 -75t39.5 -76q22 -42 44 -83q7 -13 1 -18t-16 -5q-13 0 -20 7q-17 21 -35.5 49t-35.5 57t-31.5 56.5t-24.5 47.5q-3 -39 -6.5 -75t-6.5 -64.5t-6 -48t-5 -25.5q-2 -4 -9.5 -6.5t-15.5 -2.5q-7 0 -12.5 2t-7.5 7q-6 18 -10 66t-5.5 109.5t-1 130.5t3.5 129.5
t9 106.5t14 61q4 5 7.5 8.5t18.5 3.5q22 0 32.5 -5.5t13.5 -16.5q2 -10 3 -37.5t-1 -65.5q9 34 20 64t24.5 52.5t30.5 35.5t38 13q32 0 52.5 -16t32 -39t16 -48t4.5 -43q0 -56 -20 -99t-49.5 -74.5t-62.5 -51.5t-60 -31zM215 551q-22 0 -41 -25t-34 -65t-26.5 -90
t-19.5 -100q-1 -9 -1.5 -18.5t-1.5 -19.5q32 8 58.5 31t46.5 54.5t31 67.5t11 71v27t-2.5 31t-7 25.5t-13.5 10.5z" />
    <glyph glyph-name="S" unicode="S" 
d="M201 509q0 -9 -5.5 -13.5t-11.5 -4.5q-7 0 -12 4t-5 13q0 8 -1.5 18.5t-4.5 19.5t-9 15.5t-15 6.5q-4 0 -10 -1.5t-12 -6.5t-10.5 -13.5t-4.5 -22.5q0 -40 19 -87.5t42 -100.5t42 -111.5t19 -120.5q0 -74 -37 -110.5t-89 -36.5q-32 0 -49.5 17.5t-26 43t-10 53.5t-1.5 49
q0 5 5 7.5t11 2.5t11 -2t5 -7q0 -6 1.5 -25.5t6.5 -41t15 -38.5t28 -17q6 0 13.5 2.5t15 10.5t12.5 24t5 43q0 59 -21 115.5t-46.5 109t-46.5 100.5t-21 89q0 14 5 34t18.5 39t37.5 32t62 13q28 0 43 -12.5t22 -29.5t8.5 -34t1.5 -26z" />
    <glyph glyph-name="T" unicode="T" horiz-adv-x="225" 
d="M239 611h3q11 0 15.5 -6.5t4.5 -14.5t-5 -14.5t-14 -7.5q-26 -2 -50 -4.5t-46 -5.5q1 -4 0 -45t-3.5 -100.5t-6 -128.5t-6 -129t-4.5 -101.5t-2 -46.5t-6 -8t-14 -3q-12 0 -23.5 4.5t-13.5 11.5q-11 76 -13.5 159t0 158t8 133.5t9.5 84.5q-16 -3 -28.5 -5t-20.5 -4
q-10 -2 -18 -4h-5q-9 0 -14 6t-6 14t2 15t11 9q34 6 73 12t74 10.5t62 7t37 3.5z" />
    <glyph glyph-name="U" unicode="U" horiz-adv-x="290" 
d="M38 601q8 8 28 8q18 0 35 -7.5t17 -24.5q0 -12 -3 -56.5t-6 -101.5t-6 -117t-3 -104t2.5 -81.5t6 -64.5t8.5 -42t11 -15q17 0 28 42t18 105.5t10.5 137.5t5.5 138t3 107.5t2 45.5q3 7 9.5 9.5t14.5 2.5t14.5 -3t8.5 -9q1 -3 2.5 -13t2.5 -34t1.5 -65t0.5 -107
q0 -199 -37 -296t-96 -97q-58 0 -88.5 74.5t-30.5 202.5q0 64 4.5 127t10.5 114t13 84.5t13 39.5z" />
    <glyph glyph-name="V" unicode="V" horiz-adv-x="277" 
d="M8 564q3 8 12.5 11.5t20.5 3.5q17 0 32.5 -6t15.5 -16q0 -12 2 -40t5 -65.5t6.5 -81t7.5 -87.5q9 -103 20 -225q22 104 43 200q11 57 19 95t15.5 77t14.5 75t11 64q3 16 18 16q8 0 13 -5.5t3 -16.5q-6 -34 -17 -89.5t-23 -119.5t-24.5 -129.5t-23 -119.5l-17.5 -90
t-8 -40q-2 -8 -18 -12.5t-34 -4.5q-12 0 -22 2.5t-15 8.5q-16 37 -27 94t-18 122t-10 131t-4 119.5t-0.5 89t2.5 39.5z" />
    <glyph glyph-name="W" unicode="W" horiz-adv-x="429" 
d="M386 569q2 8 7 11.5t11 3.5q8 0 13 -5t3 -16q-6 -34 -16.5 -89.5t-22.5 -119.5t-25 -129.5t-23.5 -119.5l-17.5 -90t-8 -40q-2 -8 -18.5 -13t-33.5 -5q-12 0 -22 3t-15 9q-14 32 -24 79.5t-17 102.5q-7 -36 -13 -67t-10.5 -54t-7.5 -37.5t-4 -17.5q-2 -8 -18.5 -13
t-33.5 -5q-12 0 -22 3t-15 9q-16 37 -27 94t-18 122t-10 131t-4 119.5t0 89t2 39.5q3 8 13 11.5t21 3.5q17 0 32 -6t16 -16q0 -12 2 -40t5 -65.5t6.5 -81t6.5 -87.5q9 -103 20 -225q7 31 14 67q7 33 15.5 72.5t17.5 84.5l-3 57q0 12 12.5 17.5t29.5 5.5q19 0 36 -6t18 -15
q5 -51 9 -101.5t8 -90.5q4 -48 8 -91q22 104 42 200q12 57 19.5 95t15.5 77t14.5 75t11.5 64z" />
    <glyph glyph-name="X" unicode="X" horiz-adv-x="265" 
d="M144 287q10 -43 20.5 -86t21 -82t20 -71.5t18.5 -55.5q2 -6 -2.5 -12.5t-12.5 -11.5t-18.5 -8.5t-20.5 -3.5q-19 0 -26 13q-14 29 -26.5 71.5t-25.5 92.5q-22 -64 -37.5 -109t-16.5 -49q-3 -10 -14 -10q-8 0 -15.5 7t-4.5 19q10 27 22 60q11 30 24 66.5t28 79.5
q-14 61 -25.5 122t-19.5 110.5t-12 82t-3 36.5q2 10 17 15.5t31 5.5q11 0 18.5 -3t8.5 -10q3 -31 13 -85t24 -118q20 64 36.5 121t22.5 95q2 8 7 11.5t11 3.5q8 0 13.5 -5t3.5 -16q-4 -21 -12 -51.5t-18.5 -67t-23 -76.5t-26.5 -81z" />
    <glyph glyph-name="Y" unicode="Y" horiz-adv-x="236" 
d="M259 568q1 -4 -7 -39t-21.5 -88t-30.5 -118.5t-35 -130.5t-35 -124t-30 -99q-7 -11 -19 -11q-14 0 -26.5 12t-11.5 22q8 33 19.5 82.5t25.5 107.5q-16 50 -31 106t-26.5 109t-20 97t-13.5 69q-2 11 5.5 16.5t17.5 5.5q8 0 14.5 -3.5t8.5 -11.5q4 -22 10.5 -56t15 -73.5
t19 -83t22.5 -85.5q11 47 21.5 92.5t19.5 85.5t15 72.5t9 53.5q1 7 10 10t20 3q17 0 34.5 -5.5t19.5 -15.5z" />
    <glyph glyph-name="Z" unicode="Z" horiz-adv-x="223" 
d="M205 4q9 -1 12.5 -8t3 -15t-5 -14t-12.5 -6q-20 1 -39 1.5t-36 0.5q-26 0 -46.5 -1t-35.5 -2q-18 -1 -32 -2h-9q-14 0 -26 12t-11 22q5 23 13.5 53.5t19.5 67t24 76.5t26 81q-6 -1 -10 -1q-2 -1 -3 -1q-8 -1 -12.5 5.5t-4.5 15t3 15.5t10 8q8 1 15.5 1.5t15.5 0.5
q23 72 41.5 135.5t26.5 105.5q-29 0 -59.5 -1t-59.5 -5q-9 0 -13 6.5t-4.5 14.5t2.5 15.5t10 8.5q26 2 54.5 2.5t55.5 0.5q30 0 54 -0.5t32 -0.5q10 -1 13.5 -9.5t1.5 -16.5q1 -4 -5 -25.5t-17 -56t-25.5 -79t-31.5 -93.5q14 -1 23.5 -1t15.5 -1q9 0 13 -7t3.5 -15t-5 -14.5
t-12.5 -6.5q-15 1 -28 1.5t-24 0.5q-25 -73 -49.5 -144t-41.5 -125q20 1 41.5 1.5t41.5 0.5q30 0 54 -0.5t32 -1.5z" />
    <glyph glyph-name="exclam" unicode="!" horiz-adv-x="113" 
d="M71 88q-2 -3 -7.5 -5t-12.5 -2q-14 0 -17 7q-5 14 -8 51t-4.5 84.5t-1 100.5t3 100t7 82t11.5 47l6.5 6.5t15.5 2.5q18 0 26.5 -4.5t10.5 -12.5q3 -10 3 -46t-2.5 -84t-6 -102t-8 -101.5t-9 -81.5t-7.5 -42zM51 52q26 0 36 -10t10 -25q0 -6 -3 -14.5t-9 -17t-15 -14
t-22 -5.5q-12 0 -20.5 5.5t-14 13.5t-7.5 17t-2 15q0 12 10.5 23.5t36.5 11.5z" />
    <glyph glyph-name="space" unicode=" " horiz-adv-x="173" 
 />
    <glyph glyph-name="quotedbl" unicode="&#x22;" horiz-adv-x="295" 
d="M64 562q17 0 22 -6t8 -10q4 -5 3.5 -23.5t-3.5 -40.5t-7 -43t-8 -30q-2 -5 -7.5 -7t-11.5 -2q-14 0 -18 9q-4 12 -7.5 33.5t-4.5 43t0 39.5t5 23q2 5 9 9.5t20 4.5zM190 546q4 -5 3.5 -23.5t-3.5 -40.5t-7 -43t-8 -30q-2 -5 -7.5 -7t-11.5 -2q-14 0 -18 9
q-4 12 -7.5 33.5t-4.5 43t0 39.5t5 23q2 5 9 9.5t20 4.5q17 0 22 -6t8 -10z" />
    <glyph glyph-name="numbersign" unicode="#" horiz-adv-x="5208" 
d="M2580 298q16 0 30 -4.5t14 -12.5q0 -18 -2.5 -64.5t-10.5 -105.5t-23 -123t-40 -116.5t-62 -87t-88 -34.5q-27 0 -47 10.5t-32.5 26.5t-19 34.5t-6.5 34.5t7.5 31t19 27t26 19t28.5 7q39 0 57 -23q15 9 33 19.5t38 22.5q13 54 22 111t14 105q-9 -20 -22 -46.5
t-27.5 -49.5t-30 -39t-29.5 -16q-20 0 -33 8.5t-20 22t-10 30t-4 33.5q-12 -26 -26.5 -54.5t-30 -52.5t-31 -40t-28.5 -16q-31 0 -49.5 25t-18.5 68q0 28 5 69t11 81.5t11 74.5t5 49q0 13 -5 15.5t-11 2.5q-10 0 -15 -1q-1 -30 -8.5 -70.5t-20 -83t-28.5 -83.5t-33 -73.5
t-34.5 -52.5t-32.5 -20q-31 0 -50 24.5t-19 67.5q0 28 3.5 59.5t7 61t7 54.5t3.5 40q0 9 -2 12.5t-6 5.5q-6 -25 -13 -48t-14 -43q-22 -53 -45 -95q-14 -25 -24.5 -40t-23 -27t-25.5 -20t-27 -8q-24 0 -45 9.5t-37.5 27t-26 43t-9.5 57.5v10q-14 -6 -27.5 -11.5t-26.5 -11.5
q-8 -34 -23 -66t-35 -56.5t-45.5 -39t-54.5 -14.5q-26 0 -34 13.5t-8 26.5q0 35 33.5 66.5t81.5 56.5q11 50 11 99q0 42 -6 62t-10 20q-14 0 -28 -17t-26 -47.5t-23 -71.5t-19 -89q-3 -33 -3 -35q0 -5 -5.5 -7.5t-13.5 -2.5q-12 0 -25 4.5t-14 10.5q-7 44 -10 90.5t-5 94.5
q-15 -3 -29 -5.5t-21 -3.5q2 -9 3.5 -26.5t1.5 -48.5q0 -49 -10.5 -84.5t-26.5 -58.5t-34 -34t-33 -11q-28 0 -40.5 22.5t-17 50t-4 50t-1.5 22.5t-9.5 -15t-19.5 -32.5t-27.5 -32.5t-34.5 -15q-10 0 -18.5 7t-14 17.5t-8.5 22.5t-3 23q0 9 0.5 18t1.5 20q-9 -22 -20 -44.5
t-22 -41t-21.5 -30t-19.5 -11.5q-24 0 -40 14.5t-26 36t-14 47t-4 46.5q0 11 0.5 22t1.5 23q-12 -29 -27 -59t-31.5 -54.5t-33 -40.5t-32.5 -16q-37 0 -56.5 25t-22.5 70q-12 -24 -25 -49t-27 -45t-27.5 -32.5t-25.5 -12.5q-32 0 -50.5 24.5t-18.5 67.5q0 28 3.5 60t7 61
t7 54t3.5 40q0 9 -2.5 12.5t-6.5 5.5q-1 -4 -3.5 -15t-6 -24t-7.5 -26t-9 -22q0 -1 -5.5 -15.5t-14 -36t-19.5 -46.5t-23 -46t-24 -35t-23 -14q-24 0 -40 21t-26 57.5t-14.5 85t-4.5 103.5q0 35 1.5 69.5t3.5 66.5q-32 -5 -65 -10.5t-67 -11.5q13 -31 27 -64t26 -68
t19.5 -71.5t7.5 -74.5q0 -74 -37 -110.5t-89 -36.5q-32 0 -49.5 17.5t-26 43t-10 53.5t-1.5 49q0 5 5 7.5t11 2.5t11 -2t5 -7q0 -6 1.5 -25.5t6.5 -41t15 -38.5t28 -17q6 0 13.5 2.5t15 10.5t12.5 24t5 43q0 38 -9.5 75t-23.5 73t-31 70.5t-32 66.5q-71 -12 -140 -24
t-132.5 -21.5t-119.5 -15t-101 -5.5q-38 0 -61.5 5.5t-37 15t-18 21.5t-4.5 25q0 33 13 43.5t24 10.5q23 0 33.5 -12.5t10.5 -22.5v-13.5t4 -17t12.5 -14.5t25.5 -6q96 0 217 20.5t259 44.5q-11 26 -17.5 49.5t-6.5 45.5q0 14 5 34t18.5 39t37.5 32t62 13q28 0 43 -12.5
t22 -29.5t8.5 -34t1.5 -26t-5.5 -13.5t-11.5 -4.5q-7 0 -12 4t-5 13q0 8 -1.5 18.5t-4.5 19.5t-9 15.5t-15 6.5q-4 0 -10 -1.5t-12 -6.5t-10.5 -13.5t-4.5 -22.5q0 -24 8 -51.5t20 -57.5q37 7 74 12.5t75 10.5l1 11q4 42 8 69.5t6 30.5q5 7 16 9.5t22 2.5q13 0 26 -5.5
t13 -17.5q0 -5 -2.5 -28t-5.5 -57l-1 -5q57 6 113 9.5t112 3.5q62 0 89.5 -19t27.5 -50q0 -15 -6.5 -24t-14.5 -13q-10 -5 -22 -6q-30 0 -30 33q0 8 2.5 11.5t6 6t6 4.5t2.5 7q0 11 -18.5 19t-42.5 8q-47 0 -104 -5.5t-123 -15.5q-3 -38 -5 -82.5t-2 -88.5q0 -31 0.5 -64.5
t2.5 -61t5 -45.5t8 -18q9 0 21.5 22t24.5 48q13 32 28 71q16 46 24 85q-16 0 -21 10t-2.5 22t11.5 22t21 10q13 0 19 -10.5t0 -36.5q16 0 30.5 -1.5t25 -7.5t17 -17.5t6.5 -30.5q0 -8 -2.5 -28.5t-5.5 -47t-6 -55t-4.5 -52t0.5 -39t8 -15.5q9 0 22 17.5t26.5 43t26.5 53.5
t22 48q7 24 20.5 46.5t32 39.5t42 27.5t50.5 10.5q26 0 42 -5t25 -13q2 4 4 10q3 6 10 8.5t15 2.5q18 0 36 -8t16 -18q-10 -44 -13 -86.5t-2 -76t4.5 -54t6.5 -20.5q8 0 20 21.5t24 49.5t22.5 54.5t13.5 36.5q6 43 13 75.5t12 37.5q3 3 15 3q8 0 18.5 -2t19.5 -5.5t15 -8
t6 -10.5q0 -5 -2.5 -23.5t-5.5 -44t-7 -53t-7 -51t-4.5 -39t-0.5 -15.5q2 0 12.5 18t23.5 39.5t24.5 41t14.5 22.5q4 5 18 5q8 0 17.5 -2.5t14.5 -7.5q5 -4 4.5 -34.5t-2 -65.5t-1.5 -63.5t5 -28.5t14.5 8.5t18.5 27.5t16 47.5t7 69.5q0 38 -3 58t-5 31t16 11q11 1 30.5 4.5
t38.5 7.5q0 60 2.5 115t6.5 97t8 68t7 27q8 5 15 6.5t16 1.5q13 -1 26 -5t15 -12q1 -3 -0.5 -37t-3.5 -85t-5 -112t-6 -116q8 27 18.5 51t23 42t27.5 28.5t32 10.5q39 0 64.5 -33.5t25.5 -89.5q0 -13 -1.5 -25.5t-3.5 -25.5q5 2 19.5 7.5t31.5 11.5q4 27 14 51.5t24 42.5
t32 29t39 11q6 0 17.5 -2t23 -7.5t20 -16t8.5 -27.5q0 -30 -27 -56t-64 -34q-1 -5 -1 -16q0 -53 16 -75t28 -22q18 0 36 19.5t33 44.5t25.5 49t13.5 32q9 26 15 48t10 40q-16 0 -21 10t-2.5 22t11.5 22t22 10q12 0 18 -10.5t1 -36.5q17 0 31 -2t24.5 -8t16.5 -17.5t6 -30.5
q0 -8 -2.5 -28t-5.5 -46.5t-6 -55t-4.5 -52t0.5 -39t8 -15.5q12 0 30.5 36t36.5 87.5t31.5 107.5t14.5 95q-11 -3 -24.5 -5.5t-30.5 -2.5q-33 0 -50 12.5t-17 31.5t21 35.5t56 16.5q25 0 47 -18.5t25 -47.5q11 2 21.5 3.5t22.5 1.5q36 0 49 -17.5t13 -40.5q0 -8 -3.5 -32.5
t-7.5 -57.5t-8.5 -69t-7 -66t-1.5 -50t7 -20q10 0 24.5 21.5t29.5 51t28.5 59t20.5 46.5q4 21 9 37t8 24q2 3 6 4q3 2 8.5 3.5t14.5 1.5q19 0 31 -10t12 -27q0 -8 -3.5 -34.5t-6.5 -54.5t-4 -50t3 -22q6 0 16 15t21.5 38t23 51t21 53.5t15.5 44.5t6 26q-1 8 9.5 11t23.5 3z
M2104 341q13 0 24 2l22 4q-3 20 -15.5 34t-29.5 14t-26.5 -8.5t-10.5 -18.5t8 -18.5t28 -8.5zM1800 281q-5 0 -16 -27t-17 -66q15 12 28.5 30.5t13.5 35.5q0 8 -2 17.5t-7 9.5zM743 53q9 0 20 12t22.5 31t22.5 42.5t21 46.5q0 7 -1 18.5t-3 22t-6.5 18t-11.5 7.5
q-9 0 -22.5 -12.5t-25.5 -35t-21 -53t-9 -67.5q0 -17 4.5 -23.5t9.5 -6.5zM1461 -25q18 0 36 29.5t32 74.5q-37 -22 -58.5 -44t-21.5 -44q0 -10 4 -13t8 -3zM2425 -127q0 6 -3 12q-23 -18 -23 -31q0 -8 5 -8q6 0 13.5 8.5t7.5 18.5zM2406 -209q29 0 51 40.5t38 100.5
q-15 -10 -29 -18t-25 -16q4 -11 4 -24q0 -23 -15 -36.5t-31 -13.5q-11 0 -18.5 7t-7.5 22q0 14 9.5 26t26.5 24q-14 11 -36 11q-19 0 -33 -18t-14 -34q0 -38 25 -54.5t55 -16.5zM4027 268q19 -2 31.5 -22t12.5 -62q0 -20 -6.5 -51.5t-18.5 -61t-29 -50.5t-38 -21
q-11 0 -25 2t-27 11.5t-21.5 30t-8.5 57.5v9t1 9q-18 -24 -35 -40q2 -8 2 -14.5v-12.5q0 -50 -17.5 -79t-59.5 -29q-5 0 -12.5 2.5t-14.5 8.5t-12 15t-5 23q0 21 14 34.5t36 27.5q-7 32 -21 74.5t-27 84.5q-3 -7 -5.5 -13t-4.5 -11q-12 -38 -31 -64.5t-39 -45.5
q2 -8 2 -14.5v-13.5q0 -50 -17.5 -78.5t-59.5 -28.5q-5 0 -12.5 2.5t-14.5 8t-12 15t-5 23.5q0 21 14 34t36 28q-4 20 -12 45t-17 52t-18 53.5t-15 49.5q-15 -5 -28.5 -8.5t-24.5 -5.5q10 -22 10 -58q0 -20 -6.5 -51.5t-18.5 -61t-28.5 -50.5t-37.5 -21q-10 0 -24 2
t-27 11.5t-22 28.5t-10 54q-8 -18 -17 -35.5t-18 -31t-18 -21.5t-17 -8q-30 0 -48 33t-27 87q-11 -4 -25 -8.5t-30 -9.5q-6 -36 -21.5 -65.5t-37 -50t-48.5 -31.5t-56 -11q-19 0 -31.5 3.5t-20.5 8.5q0 -5 -2 -9t-8.5 -6.5t-14.5 -2.5q-7 0 -12.5 2t-7.5 7q-5 18 -9 66
t-5.5 109.5t-1 130.5t3.5 129.5t8.5 106.5t13.5 61q4 5 7.5 8.5t17.5 3.5q38 0 43 -22q3 -12 3 -49q14 48 35 79.5t51 31.5q47 0 71.5 -26.5t24.5 -67.5q0 -38 -10.5 -70t-27.5 -57.5t-38.5 -45t-42.5 -33.5q54 -10 86.5 -54.5t32.5 -104.5v-10.5t-1 -10.5q14 5 27 9t23 7
q-4 29 -5.5 62.5t-1.5 68.5q0 49 3 98t6.5 89t7.5 66t6 29q5 6 16.5 8.5t21.5 2.5q13 0 26 -5t13 -18q0 -6 -3 -34t-6 -69.5t-6 -91t-3 -97.5q0 -32 0.5 -65.5t2.5 -61.5t5 -46t8 -18q6 0 15 13t18.5 32t18 39.5t14.5 35.5q11 46 30.5 74.5t38.5 28.5q22 0 36 -3t16 -7
q3 -1 5.5 -1t4.5 -2q11 2 30.5 4t41.5 7q-5 22 -5 35q0 40 25.5 54.5t57.5 14.5q14 0 21.5 -4.5t11.5 -11t4.5 -13.5t0.5 -11q0 -17 -11 -30t-28 -24q11 -38 27.5 -85.5t26.5 -92.5q15 17 29 38.5t25 51.5q4 8 9.5 21t10.5 29q-6 20 -9.5 37.5t-3.5 29.5q0 19 9.5 31
t23 19.5t29 10.5t27.5 3q15 0 23 -6.5t10.5 -14t1 -14t-5.5 -6.5q-7 0 -9 3.5t-3.5 8t-4 8.5t-10.5 4q-6 0 -11.5 -7t-5.5 -23q0 -17 7 -42.5t17 -56t20.5 -63t17.5 -62.5q15 16 28.5 37t24.5 50q12 37 29.5 59.5t34.5 22.5q21 0 35.5 -3t16.5 -7zM3023 556q-19 0 -33.5 -22
t-25 -57t-18 -78.5t-12.5 -86.5q24 12 44 37.5t34.5 56.5t22.5 64t8 60q0 17 -7.5 21.5t-12.5 4.5zM2939 -30q26 0 51.5 28t39.5 70q-44 -19 -77 -40t-33 -40q0 -18 19 -18zM3037 93q4 13 5.5 26.5t1.5 27.5q0 57 -20.5 89t-51.5 32q-11 0 -21.5 -2t-19.5 -5
q-4 -60 -8.5 -119t-10.5 -119q20 20 53.5 37.5t71.5 32.5zM3410 26q2 0 11 14.5t19 37.5t18 51t8 56q0 35 -10 52q-16 0 -23 5q-13 -26 -24.5 -67.5t-11.5 -78.5q0 -35 4.5 -52.5t8.5 -17.5zM3588 -23q5 0 8.5 11t3.5 39q-11 -10 -18 -18t-7 -17q0 -15 13 -15zM3599 334
q0 -14 4 -29q23 15 23 37q0 6 -1.5 12t-11.5 6q-6 0 -10 -5t-4 -21zM3785 -24q5 0 8.5 11t3.5 39q-11 -9 -18 -17.5t-7 -17.5q0 -15 13 -15zM3989 25q2 0 10.5 14.5t18.5 37.5t18 51t8 56q0 35 -7.5 49.5t-18.5 18.5q-7 -12 -14.5 -30t-13.5 -39.5t-10 -44t-4 -43.5
q0 -35 4.5 -52.5t8.5 -17.5zM5135 188q21 0 34.5 -5.5t21 -14.5t10 -19.5t2.5 -20.5q0 -22 -15.5 -29t-26.5 -7q-20 0 -26.5 13.5t-6.5 24.5q0 10 -7 15t-16 5q-45 0 -99.5 -15.5t-113.5 -38.5t-118.5 -49.5t-114 -49.5t-101 -38.5t-78.5 -15.5q-13 0 -27 7t-26 19.5
t-20 28.5t-8 34q0 27 4 64.5t9 72t8.5 59t2.5 24.5q-2 0 -9.5 -17.5t-18 -43.5t-22 -56t-22.5 -56t-20 -43.5t-14 -17.5q-4 -2 -14 -2q-12 0 -26.5 4.5t-16.5 17.5q-2 11 -2.5 39t-1 57.5t-0.5 52.5t-2 23q-1 0 -10 -20t-21 -49t-24 -62.5t-19 -61.5q0 -8 1 -11
q0 -5 -7 -7.5t-18 -2.5q-13 0 -25.5 3.5t-14.5 10.5q-12 31 -15 80t-1.5 95.5t5.5 81.5t7 40q8 9 27 9q17 0 35 -7t17 -18q-5 -64 -7.5 -109.5t-4.5 -76.5q11 26 23 52t22.5 47.5t18.5 36t11 17.5q6 6 24 6q12 0 24 -3.5t16 -9.5q2 -3 3 -19.5t2 -40t1 -50.5t-1 -51
q11 27 26.5 65t30.5 72.5t26.5 60t14.5 28.5q5 5 20 5q16 0 34 -6t22 -17q3 -7 0 -34t-7.5 -63.5t-8 -77.5t-3.5 -75t7 -56.5t23 -22.5q30 0 73.5 16t95 40.5t110 53t118 53t118.5 40.5t112 16z" />
    <glyph glyph-name="dollar" unicode="$" 
d="M241 192q0 -42 -29 -73.5t-72 -39.5q-3 -28 -5.5 -47.5t-4.5 -24.5q-3 -7 -19 -7q-12 0 -15 7q-3 9 -5 28.5t-4 45.5q-22 7 -34 22.5t-17.5 33.5t-6.5 36t-1 29q0 3 6.5 4t14.5 1q10 0 18 -1.5t8 -3.5q0 -3 1.5 -15.5t5 -26t10.5 -24.5t18 -11q6 0 14 1.5t15.5 7
t12.5 15.5t5 27q0 30 -21 61.5t-46.5 62.5t-47 60.5t-21.5 55.5q0 7 3 17t11.5 19.5t22.5 18.5t35 14q5 60 14 79q3 3 5.5 6t14.5 3q29 0 34 -18q4 -14 2 -66q21 -4 32.5 -15t17 -23.5t6.5 -24.5t1 -17t-5 -8t-12 -3q-6 0 -11.5 3t-5.5 8q0 11 -6.5 24.5t-23.5 13.5
q-4 0 -10 -1t-12 -4t-10.5 -8.5t-4.5 -14.5q0 -25 19 -49t42 -50.5t42 -57.5t19 -70z" />
    <glyph glyph-name="percent" unicode="%" horiz-adv-x="296" 
d="M258 538q26 -13 22 -32q-2 -12 -19 -50t-41.5 -89t-53 -107.5t-54 -105.5t-45 -84t-25.5 -42q-3 -3 -9 -3q-8 0 -15.5 4.5t-6.5 11.5q3 17 17.5 57.5t35.5 92t46 108t49 106t44.5 85.5t31.5 46q3 2 5.5 3.5t5.5 1.5q5 0 12 -3zM84 381q-12 0 -20.5 5.5t-13.5 14t-7 17
t-2 14.5q0 13 10 24.5t36 11.5t36 -10t10 -26q0 -6 -3 -14.5t-9 -16.5t-15 -14t-22 -6zM192 182q26 0 36.5 -9.5t10.5 -25.5q0 -6 -3 -14.5t-9 -17t-15.5 -14t-21.5 -5.5q-13 0 -21.5 5.5t-13.5 13.5t-7 17t-2 15q0 12 10.5 23.5t35.5 11.5z" />
    <glyph glyph-name="ampersand" unicode="&#x26;" horiz-adv-x="243" 
d="M169 489q21 -4 31.5 -16t15.5 -26.5t5.5 -28.5t0.5 -23q0 -5 -5 -7.5t-10 -2.5q-11 0 -14 4t-3 9v13t-4 21t-12 19.5t-25 8.5q-5 0 -11.5 -9t-12.5 -23.5t-10 -33t-4 -38.5q0 -30 11.5 -46t23.5 -18q14 -2 16.5 -6.5t-6.5 -7.5q-8 -3 -16.5 -16t-16 -31t-12.5 -38t-5 -37
q0 -14 4 -22t9.5 -11.5t12 -4t11.5 -0.5q9 0 16 6.5t11.5 15t7 16t2.5 10.5q0 5 1.5 9t12.5 4q10 0 13 -4.5t3 -6.5q0 -8 -2 -19t-9 -22t-19.5 -20t-32.5 -14q-3 -34 -6 -56.5t-5 -29.5q-1 -3 -7 -5t-12 -2q-5 0 -9.5 1.5t-5.5 5.5q-3 11 -5.5 32t-4.5 50q-10 1 -23.5 5
t-25.5 11.5t-20 19.5t-8 29q0 47 23 79t58 47q-38 5 -50.5 26.5t-12.5 57.5q0 54 21 80.5t44 36.5q3 31 6 53t8 30l6.5 6.5t14.5 2.5q29 0 34 -17q4 -16 2 -67z" />
    <glyph glyph-name="quotesingle" unicode="'" horiz-adv-x="157" 
d="M44 544q0 8 7 12.5t16 4.5q11 0 21 -6.5t10 -19.5q0 -12 -7.5 -31t-18 -37t-22.5 -31.5t-20 -13.5q-4 0 -8 3t-4 13q0 5 4 14.5t9 23t9 31t4 37.5z" />
    <glyph glyph-name="parenleft" unicode="(" horiz-adv-x="190" 
d="M130 632q17 -6 24 -15t6 -20q0 -11 -8.5 -41t-17.5 -74t-16 -96t-9 -107t0.5 -108t7.5 -97t11 -74t6 -39q0 -6 -8.5 -11.5t-16.5 -5.5t-12 6q-8 13 -20.5 46.5t-23.5 80.5q-11 48 -17.5 103.5t-5.5 113.5t8 113t19 101q11 45 25 76.5t22 41.5q3 3 6 5.5t8 2.5q7 0 12 -2z
" />
    <glyph glyph-name="parenright" unicode=")" horiz-adv-x="190" 
d="M26 -20q1 11 9 41t17 74t16 96t9 107t-0.5 108t-7.5 97t-11 74t-6 39q0 6 8.5 11.5t16.5 5.5t12 -6q8 -13 20.5 -46.5t23.5 -80.5q11 -48 17.5 -103.5t5.5 -113.5t-8 -113t-19 -101q-11 -45 -25 -76.5t-22 -41.5q-3 -3 -6 -5.5t-8 -2.5q-16 0 -29 10t-13 27z" />
    <glyph glyph-name="asterisk" unicode="*" horiz-adv-x="258" 
d="M159 455q15 -15 28 -27.5t19 -20.5q5 -7 3.5 -13.5t-8.5 -6.5q-4 0 -9 3q-9 5 -21 13t-26 18q-2 -17 -3.5 -32t-2.5 -23q-3 -12 -12 -12q-8 0 -11 12q-2 11 -3 26.5t-3 33.5q-17 -9 -30.5 -16t-21.5 -11q-3 -1 -7 -1q-8 0 -11 6t5 14t21.5 18.5t29.5 22.5
q-17 14 -29.5 25t-15.5 16q-4 5 -5.5 12t3.5 12q4 6 11 6q5 0 9 -1.5t7 -3.5q4 -2 12.5 -8t19.5 -16q1 16 1.5 27.5t2.5 16.5q2 6 5.5 11.5t11.5 5.5q11 0 13.5 -8t4.5 -13q2 -4 2.5 -16t-0.5 -29q14 10 25.5 16t16.5 8q3 1 5.5 1.5t5.5 0.5q8 0 14 -7q5 -8 0.5 -15
t-8.5 -11q-3 -5 -16.5 -14t-32.5 -20z" />
    <glyph glyph-name="zero" unicode="0" horiz-adv-x="168" 
d="M312 461q62 0 89.5 -19t27.5 -50q0 -15 -6.5 -24t-14.5 -13q-10 -5 -22 -6q-30 0 -30 33q0 8 2.5 11.5t6 6t6 4.5t2.5 7q0 11 -18.5 19t-42.5 8q-47 0 -104 -5.5t-123 -15.5q-3 -38 -5 -82.5t-2 -88.5q0 -31 0.5 -64.5t2.5 -61t5 -45.5t8 -18q9 0 21.5 22t24.5 49
q13 31 28 70q3 7 10 7q5 0 9 -4t2 -11q-19 -53 -38 -94q-11 -26 -19 -40.5t-17 -26.5t-17.5 -20t-16.5 -8q-24 0 -40 21t-26 57.5t-14.5 85t-4.5 103.5q0 35 1.5 69.5t3.5 66.5q-96 -15 -197.5 -33.5t-197.5 -34.5t-181.5 -27t-148.5 -11q-38 0 -61.5 5.5t-37 15t-18 21.5
t-4.5 25q0 33 13 43.5t24 10.5q23 0 33.5 -12.5t10.5 -22.5v-13.5t4 -17t12.5 -14.5t25.5 -6q69 0 152 11t176 27.5t193.5 34.5t204.5 32l1 11q4 42 8 69.5t6 30.5q5 7 16 9.5t22 2.5q13 0 26 -5.5t13 -17.5q0 -5 -2.5 -28t-5.5 -57l-1 -5q57 6 113 9.5t112 3.5z" />
    <glyph glyph-name="one" unicode="1" horiz-adv-x="454" 
d="M454 198q3 7 10 7q5 0 9 -4t2 -11q-26 -66 -52 -117q-15 -32 -26 -50t-22.5 -33t-23 -25t-22.5 -10q-32 0 -50.5 24.5t-18.5 67.5q0 29 5 69.5t11 81t11 74.5t5 49q0 13 -4.5 16t-10.5 3t-16 -2q-1 -30 -8.5 -70t-20 -82.5t-28.5 -84t-33 -74t-34.5 -52.5t-32.5 -20
q-31 0 -49.5 24.5t-18.5 68.5q0 28 3 59.5t7 61t7 54.5t3 40t-8 17q-6 -24 -13 -47t-14 -43q-3 -8 -10 -8q-5 0 -9 4.5t-2 11.5q8 23 13.5 45t10.5 39q-16 0 -21.5 10t-3 22t11.5 22t22 10q12 0 18.5 -10t0.5 -36q5 -1 17 -1q35 0 48.5 -17t13.5 -40q0 -7 -2.5 -27.5t-6 -47
t-6.5 -55t-4 -52t1 -39t8 -15.5q12 0 30.5 36t36.5 87.5t31 107t14 94.5q-11 -3 -24.5 -5.5t-30.5 -2.5q-32 0 -49.5 13t-17.5 32t21.5 35t55.5 16q25 0 47 -18t26 -47q10 2 20.5 3t22.5 1q36 0 49 -17t13 -40q0 -8 -3.5 -33t-7.5 -57.5t-8.5 -69t-7 -66.5t-1.5 -50t7 -20
t14 8.5t17 22t18 30.5t18 36q20 42 42 96zM188 395q-18 0 -27.5 -8.5t-10 -18.5t8 -18.5t27.5 -8.5q13 0 24.5 2t22.5 4q-4 19 -16 33.5t-29 14.5z" />
    <glyph glyph-name="two" unicode="2" horiz-adv-x="295" 
d="M26 -250q-27 0 -47 10.5t-32.5 26.5t-19 34.5t-6.5 34.5t7.5 31t19 27t26 19t28.5 7q39 0 57 -23q15 9 33 19.5t38 22.5q13 54 22 111t14 105q-9 -20 -22 -46t-27.5 -49.5t-30 -39.5t-29.5 -16q-23 0 -36.5 11.5t-20.5 28.5t-8.5 37t-1.5 38q0 36 8 64.5t13 41.5q2 3 6 5
q3 1 8.5 2.5t14.5 1.5q19 0 31 -10t12 -27q0 -8 -3.5 -34.5t-6.5 -54.5t-4 -50t3 -22q6 0 16 15t21.5 38.5t23 51t21 53t15.5 45t6 25.5q-1 8 9.5 11t23.5 3q16 0 30 -4.5t14 -12.5q0 -18 -2.5 -64.5t-10.5 -105.5t-23 -123t-40 -116.5t-62 -87t-88 -34.5zM53 -127
q0 6 -3 12q-23 -18 -23 -31q0 -8 5 -8q6 0 13.5 8.5t7.5 18.5zM34 -209q29 0 51 40.5t38 100.5q-15 -10 -29 -18t-25 -16q4 -11 4 -24q0 -23 -15 -36.5t-31 -13.5q-11 0 -18.5 7t-7.5 22q0 14 9.5 26t26.5 24q-14 11 -36 11q-19 0 -33 -18t-14 -34q0 -38 25 -54.5t55 -16.5z
" />
    <glyph glyph-name="three" unicode="3" horiz-adv-x="380" 
d="M380 198q1 7 10 7q5 0 9 -4t2 -11q-12 -38 -31 -64.5t-39 -46.5q2 -7 2 -13.5v-13.5q0 -50 -17.5 -78.5t-59.5 -28.5q-5 0 -12.5 2.5t-14.5 8t-12 15t-5 23.5q0 21 14 34t36 27q-4 21 -12 46t-17 51.5l-18 53t-15 49.5q-15 -5 -28.5 -8t-24.5 -5q5 -11 7.5 -25t2.5 -33
q0 -20 -6.5 -51.5t-18.5 -61t-28.5 -50.5t-37.5 -21q-11 0 -25.5 2t-27 12t-21.5 30.5t-9 56.5q0 37 7.5 69t19 56t25 38t26.5 14q22 0 36 -3t16 -7q4 0 10 -2q11 1 30.5 3.5t41.5 7.5q-5 22 -5 34q0 41 25.5 55.5t57.5 14.5q14 0 21.5 -4.5t11.5 -11t4.5 -13t0.5 -11.5
q0 -17 -11 -30.5t-28 -24.5q11 -38 27.5 -85t26.5 -92q15 16 29 38t25 51zM75 26q2 0 11 14.5t19 37t18 50.5t8 56q0 20 -2.5 32.5t-7.5 20.5q-16 0 -23 5q-13 -26 -24.5 -68t-11.5 -79q0 -35 4.5 -52t8.5 -17zM264 333q0 -14 4 -29q23 16 23 38q0 5 -1.5 11.5t-11.5 6.5
q-6 0 -10 -5t-4 -22zM253 -24q5 0 8.5 11t3.5 39q-11 -9 -18 -17t-7 -17q0 -16 13 -16z" />
    <glyph glyph-name="four" unicode="4" horiz-adv-x="1102" 
d="M407 -31q30 0 73.5 16t95 40.5t110 53t118 53t118.5 40.5t112 16q21 0 34.5 -5.5t21 -14.5t10 -19.5t2.5 -20.5q0 -22 -15.5 -29t-26.5 -7q-20 0 -26.5 13.5t-6.5 24.5q0 10 -7 15t-16 5q-45 0 -99.5 -15.5t-113.5 -38.5t-118.5 -49.5t-114 -49.5t-101 -38.5t-78.5 -15.5
q-13 0 -27 7t-26 19.5t-20 28.5t-8 34q0 27 4 64.5t9 72t8.5 59t2.5 24.5q-2 0 -9.5 -17.5t-18 -43.5t-22 -56t-22.5 -56t-20 -43.5t-14 -17.5q-4 -2 -14 -2q-12 0 -26.5 4.5t-16.5 17.5q-2 11 -2.5 39t-1 57.5t-0.5 52.5t-2 23q-1 0 -10 -19.5t-21 -49t-24 -63t-19 -61.5
q0 -8 1 -11q0 -5 -7 -7.5t-18 -2.5q-13 0 -25.5 3.5t-14.5 10.5q-12 32 -15 80.5t-1.5 95t5.5 81.5t7 40q8 9 27 9q17 0 35 -7t17 -18q-5 -64 -7.5 -109.5t-4.5 -76.5q11 26 23 52t22.5 47.5t18.5 36t11 17.5q6 6 24 6q12 0 24 -3.5t16 -9.5q2 -3 3 -19.5t2 -40t1 -50.5
t-1 -51q11 27 26.5 65t30.5 72.5t26.5 60t14.5 28.5q5 5 20 5q16 0 34 -6t22 -17q3 -7 0 -34t-7.5 -63.5t-8 -77.5t-3.5 -75t6.5 -56.5t23.5 -22.5z" />
    <glyph glyph-name="five" unicode="5" horiz-adv-x="223" 
d="M208 571q7 -1 10 -6.5t2 -12t-4.5 -11.5t-9.5 -5q-26 2 -52 2.5t-53 0.5q0 -5 -2 -23t-4 -43t-3.5 -54.5t-1.5 -59.5q32 -2 53.5 -14t34 -31.5t18 -44.5t5.5 -54q0 -74 -16 -117t-36.5 -64.5t-41 -27.5t-29.5 -6q-29 0 -43.5 18t-20 43.5t-5.5 52v43.5q0 5 4.5 7t10.5 2
q5 0 10 -2t5 -7q0 -4 -1 -21t1 -36t9.5 -33.5t23.5 -14.5q9 0 18.5 12.5t16.5 34.5t11.5 51.5t4.5 62.5q0 51 -14 79t-32 28q-8 1 -12 0.5t-8 -0.5q-11 0 -20.5 5t-10.5 17q-2 33 -1 68.5t3 65.5t4.5 50t4.5 22q2 3 7 5q-1 7 2 12.5t8 6.5q14 1 28.5 1.5t29.5 0.5
q32 0 60 -1.5t36 -1.5z" />
    <glyph glyph-name="six" unicode="6" 
d="M167 352q26 0 42 -16.5t24 -40t10.5 -49.5t2.5 -46q0 -43 -9 -79.5t-25 -63.5t-38 -42t-48 -15q-24 0 -44 11.5t-35 40.5t-23 78.5t-8 124.5t11.5 127.5t27 87t30 53t20.5 26.5q9 12 24.5 17.5t32.5 5.5q19 0 36.5 -6.5t25.5 -17.5q14 -20 15 -40.5t1 -55.5
q0 -11 -7.5 -16.5t-15.5 -5.5q-13 0 -13 11q0 47 -7 60t-16 13q-6 0 -15.5 -8.5t-19.5 -31.5t-19 -63.5t-15 -105.5q9 19 23 33t32 14zM141 50q9 0 20 9.5t21 28.5t17.5 46t8.5 63q0 21 -2.5 42t-7.5 38.5t-12.5 28t-16.5 10.5q-10 0 -20 -13t-18 -31.5t-14.5 -38.5
t-10.5 -34q-1 -85 9 -117t26 -32z" />
    <glyph glyph-name="seven" unicode="7" horiz-adv-x="260" 
d="M199 326q9 -1 13 -7t3.5 -13t-5 -12.5t-12.5 -5.5q-9 0 -17 0.5t-16 0.5q-12 -39 -22 -78.5t-19 -76t-17 -68t-16 -55.5q-5 -9 -12.5 -12.5t-15.5 -3.5q-14 0 -23 8t-4 21q18 58 36 127t33 138q-14 0 -23 -1t-15 -1q-8 -1 -12 -2q-9 -1 -13 5t-4.5 13t2.5 13.5t10 7.5
q35 3 64 3q13 59 22.5 111.5t14.5 91.5q-30 0 -60 -0.5t-59 -4.5q-9 -1 -13 5.5t-4.5 15t2.5 15.5t10 8q23 2 49.5 3t52.5 1q13 0 24.5 -0.5t22.5 -0.5q4 1 8 1h8h9t9 -1t8 -1h5q13 0 15 -14l1 -4q0 -7 -3 -15q-6 -26 -22.5 -84t-37.5 -127q8 -1 13.5 -1h9.5z" />
    <glyph glyph-name="eight" unicode="8" horiz-adv-x="248" 
d="M170 342q20 -49 38 -102t18 -110q0 -65 -37 -97.5t-90 -32.5q-32 0 -50 10.5t-26.5 25.5t-10 32t-1.5 30q0 43 24.5 91t56.5 96q-25 53 -46.5 99.5t-21.5 86.5q0 12 5 30t18.5 34.5t37.5 28t62 11.5q28 0 43 -11t22.5 -26t9 -30t1.5 -23q0 -32 -15.5 -68t-37.5 -75z
M121 499q0 -26 9 -55t23 -61q16 29 26 54t10 47q0 8 -1.5 17t-5 17.5t-9.5 14t-15 5.5q-3 0 -9.5 -1.5t-12.5 -6t-10.5 -12t-4.5 -19.5zM95 37q6 0 13.5 2t15 9.5t12.5 21.5t5 38q0 34 -8.5 67.5t-21.5 65.5q-22 -39 -37 -76.5t-15 -72.5q0 -5 1.5 -14t5.5 -18t11 -16t18 -7
z" />
    <glyph glyph-name="nine" unicode="9" horiz-adv-x="272" 
d="M136 572q24 0 44 -11.5t35 -40.5t23 -78.5t8 -124.5t-11.5 -127.5t-26.5 -87t-29.5 -53t-20.5 -26.5q-9 -12 -24.5 -17.5t-32.5 -5.5q-20 0 -37 6.5t-25 17.5q-14 20 -15.5 40.5t-1.5 55.5q0 11 8 16.5t16 5.5q13 0 13 -11q0 -47 7 -60t16 -13q6 0 15.5 8.5t19 31.5
t19 63.5t15.5 105.5q-10 -19 -23.5 -33t-32.5 -14q-26 0 -41.5 16.5t-23.5 40t-10.5 50t-2.5 45.5q0 43 9 79.5t24.5 63.5t37.5 42t48 15zM93 256q10 0 20 13t18 31.5t15 38.5t11 34q2 85 -8.5 117t-27.5 32q-8 0 -19 -9.5t-21.5 -28.5t-17.5 -46t-8 -63q0 -21 2.5 -42
t7.5 -38.5t12 -28t16 -10.5z" />
    <glyph glyph-name="plus" unicode="+" horiz-adv-x="334" 
d="M295 300q8 -7 8.5 -20t-9.5 -18q-6 -2 -20.5 -3.5t-31 -2t-31.5 -0.5h-22q-5 -40 -9.5 -72t-7.5 -38q-2 -2 -7 -3.5t-10 -1.5q-11 0 -14 5q-5 11 -7.5 42t-3.5 69q-39 2 -69.5 4t-37.5 4q-4 2 -5.5 14t3.5 14q11 5 41.5 9t68.5 6q2 39 5.5 70.5t11.5 40.5q3 2 5 4t13 2
q27 0 30 -11q3 -8 2 -37.5t-4 -67.5q32 0 59.5 -2t41.5 -7z" />
    <glyph glyph-name="comma" unicode="," horiz-adv-x="159" 
d="M40 13q0 10 9.5 15t20.5 5q15 0 28 -7.5t13 -22.5q0 -14 -10 -36.5t-23.5 -43.5t-28.5 -36.5t-26 -15.5q-5 0 -10.5 4t-5.5 15q0 6 5 17t11.5 27t11.5 36t5 43z" />
    <glyph glyph-name="hyphen" unicode="-" horiz-adv-x="317" 
d="M250 171q6 -5 6.5 -17t-7.5 -16q-5 -2 -26 -3.5t-48 -1.5q-20 0 -41 0.5t-39 1.5t-30.5 2.5t-15.5 3.5t-4 12.5t3 12.5q5 3 17.5 5.5t29 4t36 2.5t38.5 1q26 0 48 -1.5t33 -6.5z" />
    <glyph glyph-name="period" unicode="." horiz-adv-x="123" 
d="M106 58q0 -6 -3 -14.5t-9 -17t-15.5 -14t-21.5 -5.5t-20.5 5.5t-14 14t-7.5 17t-2 14.5q0 12 10.5 23.5t36.5 11.5q25 0 35.5 -9.5t10.5 -25.5z" />
    <glyph glyph-name="slash" unicode="/" horiz-adv-x="316" 
d="M289 567q30 -14 25 -36q-3 -13 -22 -55.5t-46 -99t-59 -119t-60.5 -117.5t-50 -93.5t-28.5 -47.5q-3 -3 -9 -3q-8 0 -17.5 5t-7.5 13q3 19 19 64t40 102.5t52 120.5t54.5 117.5t49.5 95t35 51.5q3 2 5 4t7 2t13 -4z" />
    <glyph glyph-name="colon" unicode=":" horiz-adv-x="211" 
d="M149 231q0 -6 -3 -14.5t-9 -16.5t-15.5 -14t-21.5 -6t-20.5 5.5t-14 14t-7.5 17t-2 14.5q0 13 10.5 24.5t36.5 11.5q25 0 35.5 -10t10.5 -26zM149 57q0 -6 -3 -14.5t-9 -17t-15.5 -14t-21.5 -5.5t-20.5 5.5t-14 14t-7.5 17t-2 14.5q0 12 10.5 23.5t36.5 11.5
q25 0 35.5 -9.5t10.5 -25.5z" />
    <glyph glyph-name="semicolon" unicode=";" horiz-adv-x="211" 
d="M150 231q0 -6 -3 -14.5t-9 -17t-15.5 -14t-21.5 -5.5t-20.5 5.5t-14 14t-7.5 17t-2 14.5q0 12 10.5 23.5t36.5 11.5q25 0 35.5 -9.5t10.5 -25.5zM67 89q0 10 9 15t20 5q15 0 28 -8t13 -23q0 -14 -10 -36t-23.5 -43t-28.5 -36.5t-26 -15.5q-5 0 -10.5 3.5t-5.5 15.5
q0 6 5.5 17t11.5 26.5t11.5 35.5t5.5 44z" />
    <glyph glyph-name="less" unicode="&#x3c;" horiz-adv-x="329" 
d="M283 401q14 -22 7 -31q-5 -6 -27 -18t-52 -26t-62.5 -28.5t-58.5 -24.5q26 -12 57.5 -27.5t60.5 -31t50 -28t25 -17.5q3 -3 -1 -14.5t-9 -11.5q-14 0 -49.5 13t-75.5 31.5t-75 38t-49 32.5q-3 8 -0.5 16.5t8.5 13.5q12 13 44.5 34t70 41.5t72 35.5t51.5 15q3 -2 5.5 -3
t7.5 -10z" />
    <glyph glyph-name="greater" unicode="&#x3e;" horiz-adv-x="329" 
d="M290 284q6 -5 8.5 -14t-0.5 -16q-13 -13 -48.5 -33t-75.5 -38t-75.5 -31t-49.5 -13q-5 0 -8.5 11.5t-1.5 14.5q4 5 25 17t50 27.5t61 31.5t57 28q-25 10 -58 24.5t-62.5 28.5t-51.5 26t-27 18q-8 8 6 31q5 9 7.5 10t5.5 3q17 0 51.5 -15t72 -35.5t70 -41.5t44.5 -34z" />
    <glyph glyph-name="equal" unicode="=" horiz-adv-x="329" 
d="M270 367q7 -7 7 -20t-8 -18q-6 -3 -31 -4.5t-57 -1.5q-23 0 -47 0.5t-44.5 2t-34.5 3t-18 3.5q-3 2 -4 14.5t3 14.5q6 4 20 7t33 5t40.5 3t43.5 1q31 0 57.5 -2.5t39.5 -7.5zM270 237q7 -7 7 -20t-8 -18q-6 -3 -31 -4.5t-57 -1.5q-23 0 -47 0.5t-44.5 2t-34.5 3t-18 3.5
q-3 2 -4 14.5t3 14.5q6 3 20.5 6t33.5 5t41 3t44 1q30 0 56 -2t39 -7z" />
    <glyph glyph-name="question" unicode="?" horiz-adv-x="277" 
d="M85 56q25 0 35.5 -9.5t10.5 -25.5q0 -6 -3 -14.5t-9 -17t-15.5 -14t-21.5 -5.5t-20.5 5.5t-14 14t-7.5 17t-2 14.5q0 12 10.5 23.5t36.5 11.5zM58 92q-12 36 1.5 83t35 97t41.5 99t20 89q0 28 -5 51.5t-22 23.5q-9 0 -16.5 -6.5t-12.5 -15.5t-8 -19.5t-3 -19.5
q0 -8 -5 -12.5t-11 -4.5q-7 0 -12.5 4.5t-5.5 13.5t1.5 26.5t9 34.5t22.5 29.5t43 12.5q38 0 58.5 -13t30.5 -32t12 -39t2 -34q0 -41 -21.5 -87t-48 -93.5t-48 -95t-21.5 -92.5q0 -5 -4.5 -7.5t-10.5 -2.5q-7 0 -13.5 2.5t-8.5 7.5z" />
    <glyph glyph-name="at" unicode="@" horiz-adv-x="473" 
d="M320 37q-19 0 -31.5 11t-20 28t-10.5 36.5t-3 35.5v17q-9 -21 -20 -41.5t-22 -36.5t-23 -26t-23 -10q-32 0 -49.5 20t-17.5 62q0 24 9.5 49.5t26 46.5t39.5 35t50 14q30 0 47 -10q1 2 1 3.5t1 3.5q3 7 17 7q8 0 18 -2.5t18.5 -6.5t14 -8.5t4.5 -8.5q-8 -34 -14 -68
t-8.5 -61t-0.5 -44t11 -17q21 0 38.5 21.5t26 53.5t7 69t-18 69t-49.5 53.5t-88 21.5q-53 0 -94.5 -29t-67 -72t-32.5 -93.5t8.5 -93.5t56 -72t109.5 -29q40 0 70 12t52 29q4 4 9 4q8 0 11 -11t-4 -19q-15 -13 -36 -23q-18 -9 -43 -15.5t-59 -6.5q-96 0 -151.5 33.5t-77 83
t-12 108t43.5 108t88.5 83t123.5 33.5q70 0 112 -25.5t61 -64.5t18 -83.5t-16 -83.5t-41.5 -64.5t-58.5 -25.5zM188 104q7 0 14.5 8t15 20.5t15.5 28.5t15 32q0 5 -1 12.5t-3 15t-5 13t-9 5.5q-7 0 -16.5 -9t-17.5 -24t-14 -35.5t-6 -43.5q0 -13 3.5 -18t8.5 -5z" />
    <glyph glyph-name="bracketleft" unicode="[" horiz-adv-x="266" 
d="M219 -20q9 0 12.5 -6.5t3 -13.5t-5 -12.5t-12.5 -5.5q-19 1 -35 1.5t-30 0.5q-29 0 -46.5 -1.5t-25.5 -2.5l-6 -1h-2q-13 0 -16 10q-4 19 -7.5 67t-5 110.5t-1.5 133t2 136t5.5 119t9.5 80.5q-5 8 -2 19t12 12q28 2 52 2.5t44 0.5h32.5t21.5 -1q9 -1 12.5 -7t3 -13
t-5 -12.5t-12.5 -5.5q-16 1 -30 1.5t-26 0.5q-11 0 -20 -0.5t-17 -0.5q2 -20 1.5 -64.5t-2.5 -102.5t-5 -123t-6.5 -126.5t-7.5 -113t-7 -81.5q17 1 32 1.5t29 0.5q21 0 36.5 -0.5t24.5 -1.5z" />
    <glyph glyph-name="bracketright" unicode="]" horiz-adv-x="271" 
d="M204 619q5 -19 8 -66.5t4.5 -110t1 -133.5t-2.5 -136.5t-5.5 -119t-9.5 -80.5q5 -8 2 -18.5t-12 -11.5q-25 -2 -47 -3t-41 -1q-21 0 -37 1t-24 1q-9 0 -12.5 6.5t-3 13.5t5.5 12.5t12 5.5q30 -2 53 -2h40q-2 20 -1.5 65t2.5 102.5t5 123t6.5 126.5t7 112.5t7.5 81.5
q-14 -1 -26 -1h-23q-26 0 -44.5 0.5t-28.5 1.5q-9 0 -12.5 6.5t-3 13.5t5.5 12.5t12 5.5q22 -2 40 -2h32q26 0 41.5 1t22.5 2l9 1q13 0 16 -10z" />
    <glyph glyph-name="backslash" unicode="\" horiz-adv-x="223" 
d="M34 556q9 3 17 3q15 0 21 -12q6 -11 18 -51t26.5 -94t30 -115.5t28 -115.5t20.5 -93t8 -49q0 -5 -7 -10t-15 -5q-7 0 -10 5q-9 15 -24.5 55t-33 92.5t-35 112t-31.5 112.5t-22.5 93.5t-6.5 55.5q2 5 3.5 9t12.5 7z" />
    <glyph glyph-name="asciicircum" unicode="^" horiz-adv-x="254" 
d="M202 387q11 -6 4 -14t-16 -8q-4 0 -13.5 6t-20 13.5t-20 15t-13.5 11.5q-4 -4 -13 -11t-20 -14.5t-21.5 -13t-16.5 -5.5q-10 0 -15.5 9t1.5 14q23 17 37 28.5t22 19.5q9 9 14 15q11 5 16 5t8 -3q17 -21 29.5 -34t21.5 -21q9 -9 16 -13z" />
    <glyph glyph-name="underscore" unicode="_" horiz-adv-x="404" 
d="M338 -9q8 -6 8.5 -17.5t-10.5 -15.5q-8 -2 -38.5 -3.5t-70.5 -1.5q-29 0 -59.5 0.5t-56.5 1.5t-44.5 2.5t-23.5 3.5q-4 2 -5.5 12.5t3.5 12.5q8 3 26 5.5t42.5 4t53 2.5t56.5 1q38 0 70.5 -1.5t48.5 -6.5z" />
    <glyph glyph-name="grave" unicode="`" horiz-adv-x="223" 
d="M167 397q3 -1 4.5 -4.5t0.5 -8t-5 -8t-12 -3.5t-25 6t-34.5 15t-30.5 20t-13 21q0 9 6 13.5t14 4.5t13 -5q4 -4 14 -11.5t22.5 -15.5t25 -14.5t20.5 -9.5z" />
    <glyph glyph-name="braceleft" unicode="{" horiz-adv-x="213" 
d="M185 626q9 0 12 -6t1.5 -12.5t-6 -12.5t-10.5 -6q-35 0 -48.5 -14.5t-13.5 -40.5q0 -13 2.5 -41t1.5 -60.5t-8 -64.5t-26 -53q12 -7 18 -27t7.5 -47.5t0 -58.5t-4 -58.5t-5 -49t-2.5 -30.5q0 -26 16.5 -45t48.5 -19q7 0 10.5 -6t3.5 -12.5t-3.5 -12.5t-10.5 -6
q-55 0 -88.5 27.5t-33.5 73.5q0 23 3 62.5t4 79.5t-2.5 72t-16.5 41t-15.5 18.5t11.5 20.5q14 10 19 26.5t5 39t-2 50.5t-2 62q0 33 10.5 54.5t28.5 34t42.5 17t52.5 4.5z" />
    <glyph glyph-name="braceright" unicode="}" horiz-adv-x="188" 
d="M-7 -60q-9 0 -12 6t-1.5 12.5t6 12.5t10.5 6q35 0 48.5 15t13.5 41q0 13 -2.5 51t-2 82.5t8 86.5t26.5 63q-18 10 -22.5 39t-2.5 62t6.5 63t4.5 43q0 26 -16.5 44.5t-49.5 18.5q-6 0 -9.5 6t-3.5 13t3.5 13t9.5 6q56 0 89 -28t33 -74q0 -23 -3 -52.5t-4 -57t2.5 -50
t16.5 -30.5q14 -9 16.5 -19t-11.5 -20t-19 -36.5t-5 -61t2 -73t2 -71.5q0 -34 -10.5 -55.5t-28.5 -34t-42.5 -17t-52.5 -4.5z" />
    <glyph glyph-name="bar" unicode="|" horiz-adv-x="218" 
d="M114 583q24 0 29 -23q2 -13 1.5 -59.5t-2 -108.5t-4.5 -132.5t-6 -131.5t-6.5 -105.5t-5.5 -54.5q-3 -9 -16 -9q-10 0 -13 9q-3 18 -5.5 66t-3.5 109.5t-0.5 130.5t2.5 129.5t5.5 106.5t8.5 61q2 5 4.5 8.5t11.5 3.5z" />
    <glyph glyph-name="asciitilde" unicode="~" horiz-adv-x="314" 
d="M78 412q5 6 14 15t19 17t20 13.5t16 5.5q9 0 14.5 -7.5t10 -16t9.5 -16t14 -7.5t18.5 6t17.5 14q10 9 19 20q3 4 9 4q5 0 9 -2.5t2 -6.5q-10 -18 -22 -32q-10 -14 -23.5 -23.5t-28.5 -9.5t-25 6.5t-16 14t-9 14t-5 6.5t-9.5 -5.5t-16 -12.5t-16.5 -13t-11 -8
q-4 -2 -9.5 8t-0.5 16z" />
    <glyph glyph-name="exclamdown" unicode="&#xa1;" horiz-adv-x="113" 
d="M46 440q2 3 7.5 5t12.5 2q14 0 17 -7q5 -14 8 -51t4.5 -84.5t1 -100.5t-3 -100t-7 -82t-11.5 -47l-6.5 -6.5t-15.5 -2.5q-18 0 -26.5 4.5t-10.5 12.5q-3 10 -3 46t2.5 84t6 102t8 101.5t9 81.5t7.5 42zM66 476q-26 0 -36 10t-10 25q0 6 3 14.5t9 17t15 14t22 5.5
q12 0 20.5 -5.5t14 -13.5t7.5 -17t2 -15q0 -12 -10.5 -23.5t-36.5 -11.5z" />
    <glyph glyph-name="cent" unicode="&#xa2;" horiz-adv-x="253" 
d="M210 203q0 -7 -2 -17.5t-7 -21.5t-15 -20t-27 -13q-3 -33 -6 -55.5t-5 -28.5q-3 -7 -19 -7q-12 0 -15 7q-4 11 -6 33.5t-4 53.5q-15 4 -30 13t-26 24t-18 36.5t-7 51.5q0 36 8 62t20.5 44.5t28 30t30.5 17.5q2 35 6 60t9 35q3 4 5.5 6.5t14.5 2.5q29 0 34 -17
q2 -8 2.5 -31.5t-0.5 -55.5q24 -16 24 -47q0 -10 -4 -14t-9 -4t-9.5 3.5t-4.5 11.5q0 7 -2.5 13t-7.5 6t-14 -8.5t-18 -25t-15.5 -40t-6.5 -54.5q0 -16 2.5 -33t7 -31.5t12 -24t16.5 -9.5q7 0 17.5 11t10.5 41q0 10 12 10q6 0 12 -4t6 -11z" />
    <glyph glyph-name="sterling" unicode="&#xa3;" horiz-adv-x="386" 
d="M328 46q8 -7 8.5 -20t-9.5 -17q-7 -3 -35.5 -4.5t-64.5 -1.5q-26 0 -52.5 0.5t-50 1.5t-41 2.5t-24.5 3.5q-22 2 -28.5 9.5t-4.5 16.5t10.5 16t16.5 7q16 0 23.5 28.5t9.5 100.5q-17 2 -29 3t-16 3q-3 2 -4 14.5t3 14.5q11 6 46 11v24v10t1 10q-39 2 -46 6q-3 2 -4 14
t3 14q6 4 19 6.5t30 4.5q5 56 17.5 95t26 65.5t25.5 41t17 21.5q9 12 24 17.5t32 5.5q20 0 37.5 -6.5t25.5 -17.5q14 -20 15 -39.5t1 -54.5q0 -10 -8 -15.5t-16 -5.5q-5 0 -8.5 3t-3.5 8q0 46 -7 58.5t-16 12.5q-6 0 -15 -7.5t-18.5 -28t-18.5 -56t-15 -92.5q29 0 53.5 -2.5
t36.5 -7.5q7 -6 7 -19.5t-8 -18.5q-6 -3 -30 -4.5t-56 -1.5h-8q0 -5 -0.5 -10.5t-0.5 -10.5q-1 -4 -1 -7.5v-6.5q9 0 22.5 -0.5t27 -1.5t26 -3t21.5 -5q7 -7 7 -20t-8 -18q-6 -3 -30 -4.5t-56 -1.5h-14q-5 -48 -13.5 -80.5t-19.5 -52.5q18 2 38 2h40q35 0 65.5 -2t44.5 -7z
" />
    <glyph glyph-name="yen" unicode="&#xa5;" horiz-adv-x="298" 
d="M202 559q2 6 12 9t22 3q19 0 35.5 -5.5t14.5 -14.5q-6 -22 -16 -50.5t-21.5 -60t-24 -63.5t-23.5 -61q15 -2 26.5 -3.5t18.5 -4.5q7 -7 7.5 -20t-8.5 -18q-5 -2 -23 -3.5t-42 -2.5q-4 -8 -7 -15t-5 -13v-8q26 0 46.5 -2t31.5 -7q7 -7 7.5 -20t-8.5 -18q-6 -3 -29 -4.5
t-52 -1.5q-3 -29 -6 -59t-6.5 -55t-6.5 -42.5t-6 -22.5q-1 -2 -6.5 -3t-11.5 -1q-5 0 -9.5 1t-5.5 3q-4 8 -6.5 26.5t-4 43.5t-2 53.5t0.5 56.5q-30 2 -52.5 4t-27.5 4q-3 2 -4.5 14.5t2.5 14.5q8 5 32 8.5t53 5.5q2 11 2.5 20.5t2.5 17.5q-32 2 -57.5 4t-30.5 4
q-3 2 -4.5 14.5t2.5 14.5q8 5 27.5 8t45.5 5q-11 34 -20.5 69t-17.5 66t-14 56.5t-9 41.5q-2 9 6 14t18 5q8 0 14 -3.5t8 -9.5q3 -17 8.5 -42t13 -54.5t17 -62t19.5 -64.5q19 60 38 116t36 112z" />
    <glyph glyph-name="dieresis" unicode="&#xa8;" horiz-adv-x="236" 
d="M40 400q0 8 8 21.5t25 13.5t23.5 -13t6.5 -22q0 -8 -7 -16t-24 -8q-18 0 -25 6.5t-7 17.5zM125 400q0 8 8.5 21.5t25.5 13.5t23.5 -13t6.5 -22q0 -8 -7.5 -16t-24.5 -8t-24.5 6.5t-7.5 17.5z" />
    <glyph glyph-name="copyright" unicode="&#xa9;" horiz-adv-x="538" 
d="M287 385q58 0 99.5 -21.5t67 -55.5t35 -77.5t4 -87.5t-25.5 -85t-53 -70q-2 -4 -4 -6q-14 -12 -34 -22q-18 -9 -41.5 -15.5t-55.5 -7.5h-1q-98 0 -154.5 33t-78.5 83t-12.5 108t43 108t88 83t123.5 33zM278 -33q57 1 95 30.5t58 72.5t21 93t-16.5 92.5t-53 71t-89.5 28.5
t-95.5 -29t-67 -72t-32.5 -93t8.5 -93.5t55.5 -72t110 -28.5h6zM331 86q0 5 3.5 7t8.5 2q6 0 12 -3.5t6 -10.5q0 -8 -2.5 -20.5t-9.5 -24.5t-20.5 -20.5t-36.5 -8.5q-18 0 -39 5.5t-38.5 20t-29 40t-11.5 64.5q0 49 14.5 80.5t34.5 49.5t41.5 25t35.5 7q27 0 41.5 -16.5
t14.5 -39.5q0 -9 -4.5 -13.5t-8.5 -4.5q-6 0 -10 4t-4 12q0 6 -2.5 12.5t-7.5 6.5t-14 -8.5t-18 -25t-15.5 -40t-6.5 -54.5q0 -16 2.5 -33.5t7.5 -31.5t12 -23.5t17 -9.5q7 0 17 11t10 41z" />
    <glyph glyph-name="guillemotleft" unicode="&#xab;" horiz-adv-x="451" 
d="M52 211q20 -12 45.5 -28t48.5 -31.5t39.5 -27.5t19.5 -17q2 -3 -1 -14.5t-7 -11.5q-11 0 -39 13t-59.5 31t-59.5 38t-39 33q-3 7 -1 16t7 14q9 12 34 33t55 41.5t58 36t42 15.5q2 -2 4 -3t6 -10q11 -23 5 -31q-4 -6 -21.5 -18t-41 -26t-49.5 -28.5t-46 -24.5zM428 339
q12 -23 6 -31q-4 -6 -26.5 -18t-52 -26t-62 -28.5t-58.5 -24.5q26 -12 57.5 -28t60.5 -31.5t50 -27.5t25 -17q2 -3 -2 -14.5t-9 -11.5q-13 0 -48.5 13t-75.5 31t-75 38t-49 33q-4 7 -1.5 16t9.5 14q12 12 44 33.5t69.5 42t72.5 35.5t51 15q4 -2 6.5 -3t7.5 -10z" />
    <glyph glyph-name="registered" unicode="&#xae;" horiz-adv-x="303" 
d="M159 570q48 0 75 -24.5t34.5 -59t-3 -71.5t-37.5 -61q-2 -2 -20 -14t-53 -13h-4q-52 0 -82 18t-41.5 45t-6.5 58.5t23.5 58.5t48 45t66.5 18zM154 343q31 1 52 17t31.5 39.5t11 50t-9 49.5t-29 38.5t-48.5 15.5t-51.5 -15.5t-36 -39t-17.5 -50.5t4.5 -50.5t30.5 -39
t59 -15.5h3zM183 521q23 0 30.5 -12.5t7.5 -20.5q0 -13 -7.5 -22.5t-18 -16.5t-22.5 -11.5t-22 -7.5q6 -8 13.5 -17t14.5 -17q8 -9 16 -19q4 -5 -5 -5q-4 0 -8 2q-13 9 -26 23.5t-21 23.5q-2 -18 -4 -31.5t-4 -16.5q-2 -2 -9 -2q-6 0 -8 2q-3 6 -5 26.5t-1.5 43t3 42
t7.5 24.5q2 2 3 2.5t7 0.5q14 0 16 -5q3 -4 1 -23q7 15 16.5 26t25.5 11zM192 488q0 5 -1 13t-8 8q-17 0 -28.5 -20t-16.5 -43q-1 -2 -0.5 -4t-0.5 -4q23 4 39 19t16 31z" />
    <glyph glyph-name="macron" unicode="&#xaf;" horiz-adv-x="249" 
d="M208 414q5 -5 5.5 -13t-6.5 -10q-5 -2 -23.5 -2.5t-43.5 -0.5q-18 0 -38 0.5t-36.5 1t-28.5 1.5t-15 2q-2 1 -3 8t2 9q10 5 42.5 7t67.5 2q25 0 45.5 -1t31.5 -4z" />
    <glyph glyph-name="degree" unicode="&#xb0;" horiz-adv-x="212" 
d="M108 483q13 0 22 -6t14 -14.5t7.5 -17.5t2.5 -16q0 -13 -12 -28t-39 -15q-26 0 -36 13.5t-10 29.5q0 6 3 15.5t9.5 18t16 14.5t22.5 6zM103 401q12 0 18 11t6 20t-4.5 22.5t-15.5 13.5q-12 0 -17.5 -14t-5.5 -22q0 -11 3.5 -21t15.5 -10z" />
    <glyph glyph-name="acute" unicode="&#xb4;" horiz-adv-x="229" 
d="M59 398q8 3 20 9.5t24.5 14.5t22.5 15.5t14 11.5q5 5 13 5q7 0 13.5 -4.5t6.5 -13.5q0 -10 -13 -21t-30 -20t-34.5 -15t-25.5 -6t-12 3.5t-4.5 8t1 8t4.5 4.5z" />
    <glyph glyph-name="guillemotright" unicode="&#xbb;" horiz-adv-x="478" 
d="M455 223q5 -5 7 -14t-1 -16q-10 -13 -38.5 -33t-60 -38t-59.5 -31t-39 -13q-4 0 -7 11.5t-1 14.5q3 5 19.5 17t39.5 27.5t48.5 31.5t45.5 28q-20 10 -46 24.5t-49.5 28.5t-41 26t-21.5 18q-2 4 -1.5 11t6.5 20q4 9 6 10t5 3q14 0 42 -15.5t57.5 -36t54.5 -41.5t34 -33z
M284 223q7 -5 9.5 -14t-0.5 -16q-14 -13 -49.5 -33t-75.5 -38t-75 -31t-49 -13q-5 0 -9 11.5t-2 14.5q4 5 25 17t50 27.5t61 31.5t58 28q-26 10 -58.5 24.5t-62.5 28.5t-52 26t-27 18q-6 8 6 31q5 9 8 10t6 3q17 0 51.5 -15t72 -35.5t69.5 -41.5t44 -34z" />
    <glyph glyph-name="questiondown" unicode="&#xbf;" horiz-adv-x="277" 
d="M174 492q-25 0 -35.5 9.5t-10.5 25.5q0 6 3 14.5t9 17t15.5 14t21.5 5.5t20.5 -5.5t14 -14t7.5 -17t2 -14.5q0 -12 -10.5 -23.5t-36.5 -11.5zM201 456q12 -36 -1.5 -83t-35 -97t-41.5 -99t-20 -89q0 -28 5 -51.5t22 -23.5q9 0 16.5 6.5t12.5 15.5t8 19.5t3 19.5
q0 8 5 12.5t11 4.5q7 0 12.5 -4.5t5.5 -13.5t-1.5 -26.5t-9 -34.5t-22.5 -29.5t-43 -12.5q-37 0 -58 13t-31 32t-12 39t-2 34q0 41 21.5 87t48 93.5t48 95t21.5 92.5q0 5 4.5 7.5t10.5 2.5q7 0 13.5 -2.5t8.5 -7.5z" />
    <glyph glyph-name="Agrave" unicode="&#xc0;" 
d="M161 682q3 -1 4.5 -4.5t0.5 -8t-5 -8t-12 -3.5t-25 6t-34.5 15t-30.5 20t-13 21q0 9 6 13.5t14 4.5t13 -5q4 -4 14 -11.5t22.5 -15.5t25 -14.5t20.5 -9.5zM161 582q19 -19 30.5 -66t17.5 -108t8 -128t2 -125.5t-1 -101.5t-1 -55q0 -18 -12 -25.5t-26 -7.5q-16 0 -29 7
t-13 18v25t-2 52q-18 -5 -38.5 -7t-39.5 -2h-18q-3 -51 -3 -102q0 -5 -9.5 -8.5t-19.5 -3.5q-14 0 -14 7q0 49 2.5 111.5t7 129t11 131.5t15.5 119.5t20.5 93.5t24.5 52q14 14 38 14q13 0 26 -5t23 -15zM39 78q26 1 51.5 5t44.5 9q-1 40 -3 88.5t-4.5 98.5t-5 97t-5.5 83.5
t-6 58.5t-6 22q-6 0 -15 -38t-19 -102t-18.5 -147.5t-13.5 -174.5z" />
    <glyph glyph-name="Aacute" unicode="&#xc1;" 
d="M161 582q19 -19 30.5 -66t17.5 -108t8 -128t2 -125.5t-1 -101.5t-1 -55q0 -18 -12 -25.5t-26 -7.5q-16 0 -29 7t-13 18v25t-2 52q-18 -5 -38.5 -7t-39.5 -2h-18q-3 -51 -3 -102q0 -5 -9.5 -8.5t-19.5 -3.5q-14 0 -14 7q0 49 2.5 111.5t7 129t11 131.5t15.5 119.5
t20.5 93.5t24.5 52q14 14 38 14q13 0 26 -5t23 -15zM39 78q26 1 51.5 5t44.5 9q-1 40 -3 88.5t-4.5 98.5t-5 97t-5.5 83.5t-6 58.5t-6 22q-6 0 -15 -38t-19 -102t-18.5 -147.5t-13.5 -174.5zM54 675q8 3 20 9.5t24.5 14.5t22.5 15.5t14 11.5q5 5 13 5q7 0 13.5 -4.5
t6.5 -13.5q0 -10 -13 -21t-30 -20t-34.5 -15t-25.5 -6t-12 3.5t-4.5 8t1 8t4.5 4.5z" />
    <glyph glyph-name="tilde" unicode="&#x2dc;" horiz-adv-x="314" 
d="M78 412q5 6 14 15t19 17t20 13.5t16 5.5q9 0 14.5 -5.5t10 -12t9.5 -12t14 -5.5t18.5 4.5t17.5 9.5q10 6 19 14q3 4 9 4q5 0 9 -2.5t2 -6.5q-10 -18 -22 -32q-10 -14 -23.5 -23.5t-28.5 -9.5t-25 4.5t-16 10t-9 10t-5 4.5t-9.5 -3.5t-16 -8.5t-16.5 -9t-11 -6
q-4 -2 -9.5 8t-0.5 16z" />
    <glyph glyph-name="Adieresis" unicode="&#xc4;" 
d="M32 690q0 8 8 21.5t25 13.5t23.5 -13t6.5 -22q0 -8 -7 -16t-24 -8q-18 0 -25 6.5t-7 17.5zM117 690q0 8 8.5 21.5t25.5 13.5t23.5 -13t6.5 -22q0 -8 -7.5 -16t-24.5 -8t-24.5 6.5t-7.5 17.5zM161 582q19 -19 30.5 -66t17.5 -108t8 -128t2 -125.5t-1 -101.5t-1 -55
q0 -18 -12 -25.5t-26 -7.5q-16 0 -29 7t-13 18v25t-2 52q-18 -5 -38.5 -7t-39.5 -2h-18q-3 -51 -3 -102q0 -5 -9.5 -8.5t-19.5 -3.5q-14 0 -14 7q0 49 2.5 111.5t7 129t11 131.5t15.5 119.5t20.5 93.5t24.5 52q14 14 38 14q13 0 26 -5t23 -15zM39 78q26 1 51.5 5t44.5 9
q-1 40 -3 88.5t-4.5 98.5t-5 97t-5.5 83.5t-6 58.5t-6 22q-6 0 -15 -38t-19 -102t-18.5 -147.5t-13.5 -174.5z" />
    <glyph glyph-name="circumflex" unicode="&#x2c6;" horiz-adv-x="254" 
d="M202 387q11 -6 4 -14t-16 -8q-4 0 -13.5 6t-20 13.5t-20 15t-13.5 11.5q-4 -4 -13 -11t-20 -14.5t-21.5 -13t-16.5 -5.5q-10 0 -15.5 9t1.5 14q23 17 37 28.5t22 19.5q9 9 14 15q11 5 16 5t8 -3q17 -21 29.5 -34t21.5 -21q9 -9 16 -13z" />
    <glyph glyph-name="Acircumflex" unicode="&#xc2;" 
d="M161 582q19 -19 30.5 -66t17.5 -108t8 -128t2 -125.5t-1 -101.5t-1 -55q0 -18 -12 -25.5t-26 -7.5q-16 0 -29 7t-13 18v25t-2 52q-18 -5 -38.5 -7t-39.5 -2h-18q-3 -51 -3 -102q0 -5 -9.5 -8.5t-19.5 -3.5q-14 0 -14 7q0 49 2.5 111.5t7 129t11 131.5t15.5 119.5
t20.5 93.5t24.5 52q14 14 38 14q13 0 26 -5t23 -15zM39 78q26 1 51.5 5t44.5 9q-1 40 -3 88.5t-4.5 98.5t-5 97t-5.5 83.5t-6 58.5t-6 22q-6 0 -15 -38t-19 -102t-18.5 -147.5t-13.5 -174.5zM197 655q11 -6 4 -14t-16 -8q-4 0 -13.5 6t-20 13.5t-20 15t-13.5 11.5
q-4 -4 -13 -11t-20 -14.5t-21.5 -13t-16.5 -5.5q-10 0 -15.5 9t1.5 14q23 17 37 28.5t22 19.5q9 9 14 15q11 5 16 5t8 -3q17 -21 29.5 -34t21.5 -21q9 -9 16 -13z" />
    <glyph glyph-name="Atilde" unicode="&#xc3;" 
d="M161 582q19 -19 30.5 -66t17.5 -108t8 -128t2 -125.5t-1 -101.5t-1 -55q0 -18 -12 -25.5t-26 -7.5q-16 0 -29 7t-13 18v25t-2 52q-18 -5 -38.5 -7t-39.5 -2h-18q-3 -51 -3 -102q0 -5 -9.5 -8.5t-19.5 -3.5q-14 0 -14 7q0 49 2.5 111.5t7 129t11 131.5t15.5 119.5
t20.5 93.5t24.5 52q14 14 38 14q13 0 26 -5t23 -15zM39 78q26 1 51.5 5t44.5 9q-1 40 -3 88.5t-4.5 98.5t-5 97t-5.5 83.5t-6 58.5t-6 22q-6 0 -15 -38t-19 -102t-18.5 -147.5t-13.5 -174.5zM27 670q5 6 14 15t19 17t20 13.5t16 5.5q9 0 14.5 -5.5t10 -12t9.5 -12t14 -5.5
t18.5 4.5t17.5 9.5q10 6 19 14q3 4 9 4q5 0 9 -2.5t2 -6.5q-10 -18 -22 -32q-10 -14 -23.5 -23.5t-28.5 -9.5t-25 4.5t-16 10t-9 10t-5 4.5t-9.5 -3.5t-16 -8.5t-16.5 -9t-11 -6q-4 -2 -9.5 8t-0.5 16z" />
    <glyph glyph-name="Aring" unicode="&#xc5;" 
d="M118 834q13 0 22 -6t14 -14.5t7.5 -17.5t2.5 -16q0 -13 -12 -28t-39 -15q-26 0 -36 13.5t-10 29.5q0 6 3 15.5t9.5 18t16 14.5t22.5 6zM113 752q12 0 18 11t6 20t-4.5 22.5t-15.5 13.5q-12 0 -17.5 -14t-5.5 -22q0 -11 3.5 -21t15.5 -10zM161 582q19 -19 30.5 -66
t17.5 -108t8 -128t2 -125.5t-1 -101.5t-1 -55q0 -18 -12 -25.5t-26 -7.5q-16 0 -29 7t-13 18v25t-2 52q-18 -5 -38.5 -7t-39.5 -2h-18q-3 -51 -3 -102q0 -5 -9.5 -8.5t-19.5 -3.5q-14 0 -14 7q0 49 2.5 111.5t7 129t11 131.5t15.5 119.5t20.5 93.5t24.5 52q14 14 38 14
q13 0 26 -5t23 -15zM39 78q26 1 51.5 5t44.5 9q-1 40 -3 88.5t-4.5 98.5t-5 97t-5.5 83.5t-6 58.5t-6 22q-6 0 -15 -38t-19 -102t-18.5 -147.5t-13.5 -174.5z" />
    <glyph glyph-name="AE" unicode="&#xc6;" horiz-adv-x="408" 
d="M377 21q9 1 13 -4t4 -11.5t-3.5 -12t-11.5 -5.5q-40 -3 -73.5 -7t-58.5 -8q-29 -4 -53 -8h-6q-3 -1 -10 -1q-15 0 -27.5 7t-12.5 18q0 5 -0.5 25.5t-1.5 51.5q-18 -5 -37.5 -7t-37.5 -2q-6 0 -11.5 0.5t-10.5 0.5q-1 -26 -1.5 -51.5t-0.5 -51.5q0 -5 -10 -8.5t-19 -3.5
q-6 0 -10.5 2t-4.5 6q0 49 2.5 111.5t7 129t11.5 132t16 120t20 93t24 51.5q14 14 38 14q21 0 38.5 -11.5t25.5 -31.5q3 7 10 8q26 5 56 9t57.5 6.5t48.5 4.5t29 2q9 1 13 -4t4 -11.5t-3.5 -12t-11.5 -5.5q-40 -3 -73.5 -7t-58.5 -7q-29 -5 -53 -9h-7q8 -25 13.5 -59
t9.5 -72.5t6 -79.5t3 -82q37 6 60.5 8.5t36.5 4.5h2q8 0 12 -5t4 -11t-4 -11.5t-11 -6.5q-38 -3 -62 -6t-38 -6q1 -71 0 -126.5t-2 -76.5q24 4 49.5 7t48 5t39 3.5t23.5 1.5zM40 78q25 1 51 5t44 9q-1 40 -3 88.5t-4 98.5t-5 97t-5.5 83.5t-6 58.5t-6.5 22q-6 0 -15 -38.5
t-19 -102.5t-18.5 -147.5t-12.5 -173.5z" />
    <glyph glyph-name="Ccedilla" unicode="&#xc7;" horiz-adv-x="296" 
d="M297 199q1 6 9 6q5 0 9.5 -4.5t2.5 -10.5q-13 -33 -30.5 -75.5t-38 -80.5t-43 -64t-44.5 -26q-8 0 -13 1l-14 -37q15 -3 28 -9q11 -5 19.5 -12.5t8.5 -20.5q0 -10 -7 -20.5t-16.5 -19.5t-19.5 -14.5t-17 -5.5q-4 0 -7.5 2.5t-3.5 10.5q0 3 3.5 9.5t8 14.5t8 15.5
t3.5 14.5q0 8 -6 10.5t-13.5 3t-13.5 2t-6 7.5q0 10 7.5 27t11.5 24q-23 4 -45.5 17t-39.5 44t-27.5 83.5t-10.5 135.5q0 100 17.5 171.5t44.5 116.5t58 66t57 21q39 0 56.5 -18t20.5 -39.5t-5 -39.5t-18 -18q-11 0 -12 8.5t0 19t0.5 19.5t-9.5 9q-19 0 -37.5 -31.5
t-33 -80.5t-23.5 -107.5t-9 -112.5q0 -37 1.5 -79.5t6.5 -79.5t14 -61.5t23 -24.5q20 0 40 23.5t38.5 58.5t35.5 75.5t31 75.5z" />
    <glyph glyph-name="Egrave" unicode="&#xc8;" horiz-adv-x="290" 
d="M192 654q5 -2 5 -13t-17 -11q-8 0 -25 6t-34.5 15t-30.5 20t-13 21q0 9 6 13.5t14 4.5t13 -5q4 -4 14 -11.5t22.5 -15.5t25 -15t20.5 -9zM255 36q4 2 6 2q8 0 11 -13.5t-12 -21.5q-26 -13 -53 -23q-26 -9 -55 -16t-59 -7q-25 0 -42.5 22.5t-28 61.5t-15.5 90.5t-5 109.5
q0 52 3 103.5t7 93.5t8.5 70t6.5 31q5 6 19 10q0 5 2.5 10.5t8.5 6.5q26 5 56.5 9t57.5 7t48 4.5t29 2.5h2q8 0 12 -5t3.5 -11.5t-4 -12t-10.5 -5.5q-46 -4 -84 -8t-63 -8q5 -5 5 -12q0 -6 -2.5 -33.5t-6 -67.5t-6.5 -89t-4 -98q38 7 61.5 9.5t36.5 3.5q9 1 13.5 -4t4.5 -11
t-4 -11.5t-11 -6.5q-39 -3 -63 -6.5t-38 -5.5q0 -33 2.5 -70.5t6 -69.5t8 -53t9.5 -21q29 0 54 6.5t44 15.5q22 9 41 21z" />
    <glyph glyph-name="Eacute" unicode="&#xc9;" horiz-adv-x="290" 
d="M255 36q13 2 16.5 -11.5t-11.5 -21.5q-26 -13 -53 -23q-26 -9 -55 -16t-59 -7q-25 0 -42.5 22.5t-28 61.5t-15.5 90.5t-5 109.5q0 52 3 103.5t7 93.5t8.5 70t6.5 31q5 6 19 10q0 5 2.5 10.5t8.5 6.5q26 5 56.5 9t57.5 7t48 4.5t29 2.5h2q8 0 12 -5t3.5 -11.5t-4 -12
t-10.5 -5.5q-46 -4 -84 -8t-63 -8q5 -5 5 -12q0 -6 -2.5 -33.5t-6 -67.5t-6.5 -89t-4 -98q38 7 61.5 9.5t36.5 3.5h2q8 0 12 -5t3.5 -11t-4 -11t-10.5 -6q-39 -3 -63 -6.5t-38 -5.5q0 -33 2.5 -70.5t6 -69.5t8 -53t9.5 -21q29 0 54 6.5t44 15.5q22 9 41 21zM83 648
q8 3 20 9.5t24.5 14.5t22.5 15.5t14 11.5q5 5 13 5q7 0 13.5 -4.5t6.5 -13.5q0 -10 -13 -21t-30 -20t-34.5 -15t-25.5 -6t-12 3.5t-4.5 8t1 8t4.5 4.5z" />
    <glyph glyph-name="Ecircumflex" unicode="&#xca;" horiz-adv-x="290" 
d="M255 36q13 2 16.5 -11.5t-11.5 -21.5q-26 -13 -53 -23q-26 -9 -55 -16t-59 -7q-25 0 -42.5 22.5t-28 61.5t-15.5 90.5t-5 109.5q0 52 3 103.5t7 93.5t8.5 70t6.5 31q5 6 19 10q0 5 2.5 10.5t8.5 6.5q26 5 56.5 9t57.5 7t48 4.5t29 2.5h2q8 0 12 -5t3.5 -11.5t-4 -12
t-10.5 -5.5q-46 -4 -84 -8t-63 -8q5 -5 5 -12q0 -6 -2.5 -33.5t-6 -67.5t-6.5 -89t-4 -98q38 7 61.5 9.5t36.5 3.5h2q8 0 12 -5t3.5 -11t-4 -11t-10.5 -6q-39 -3 -63 -6.5t-38 -5.5q0 -33 2.5 -70.5t6 -69.5t8 -53t9.5 -21q29 0 54 6.5t44 15.5q22 9 41 21zM218 645
q11 -6 4 -14t-16 -8q-4 0 -13.5 6t-20 13.5t-20 15t-13.5 11.5q-4 -4 -13 -11t-20 -14.5t-21.5 -13t-16.5 -5.5q-10 0 -15.5 9t1.5 14q23 17 37 28.5t22 19.5q9 9 14 15q11 5 16 5t8 -3q17 -21 29.5 -34t21.5 -21q9 -9 16 -13z" />
    <glyph glyph-name="Edieresis" unicode="&#xcb;" horiz-adv-x="290" 
d="M63 660q0 8 8 21.5t25 13.5t23.5 -13t6.5 -22q0 -8 -7 -16t-24 -8q-18 0 -25 6.5t-7 17.5zM148 660q0 8 8.5 21.5t25.5 13.5t23.5 -13t6.5 -22q0 -8 -7.5 -16t-24.5 -8t-24.5 6.5t-7.5 17.5zM255 36q13 2 16.5 -11.5t-11.5 -21.5q-26 -13 -53 -23q-26 -9 -55 -16t-59 -7
q-25 0 -42.5 22.5t-28 61.5t-15.5 90.5t-5 109.5q0 52 3 103.5t7 93.5t8.5 70t6.5 31q5 6 19 10q0 5 2.5 10.5t8.5 6.5q26 5 56.5 9t57.5 7t48 4.5t29 2.5h2q8 0 12 -5t3.5 -11.5t-4 -12t-10.5 -5.5q-46 -4 -84 -8t-63 -8q5 -5 5 -12q0 -6 -2.5 -33.5t-6 -67.5t-6.5 -89
t-4 -98q38 7 61.5 9.5t36.5 3.5h2q8 0 12 -5t3.5 -11t-4 -11t-10.5 -6q-39 -3 -63 -6.5t-38 -5.5q0 -33 2.5 -70.5t6 -69.5t8 -53t9.5 -21q29 0 54 6.5t44 15.5q22 9 41 21z" />
    <glyph glyph-name="Igrave" unicode="&#xcc;" horiz-adv-x="162" 
d="M137 622q3 -1 4.5 -4.5t0.5 -8t-5 -8t-12 -3.5t-25 6t-34.5 15t-30.5 20t-13 21q0 9 6 13.5t14 4.5q6 0 13 -5q3 -4 13.5 -11.5t23 -15.5t25 -14.5t20.5 -9.5zM76 532q13 -2 25.5 -5.5t14.5 -11.5q1 -3 -0.5 -40.5t-4 -92.5t-5.5 -119t-5.5 -119.5t-4.5 -94t-2 -42.5
q0 -6 -6 -8.5t-14 -2.5q-12 0 -24 4.5t-13 10.5q-9 54 -12.5 112.5t-3 115t3 107.5t6.5 90t7.5 63t5.5 25q8 6 15.5 7t16.5 1z" />
    <glyph glyph-name="Iacute" unicode="&#xcd;" horiz-adv-x="162" 
d="M76 532q13 -2 25.5 -5.5t14.5 -11.5q1 -3 -0.5 -40.5t-4 -92.5t-5.5 -119t-5.5 -119.5t-4.5 -94t-2 -42.5q0 -6 -6 -8.5t-14 -2.5q-12 0 -24 4.5t-13 10.5q-9 54 -12.5 112.5t-3 115t3 107.5t6.5 90t7.5 63t5.5 25q8 5 15.5 6.5t16.5 1.5zM28 625q8 3 20 9.5t24.5 14.5
t22.5 15.5t14 11.5q5 5 13 5q7 0 13.5 -4.5t6.5 -13.5q0 -10 -13 -21t-30 -20t-34.5 -15t-25.5 -6t-12 3.5t-4.5 8t1 8t4.5 4.5z" />
    <glyph glyph-name="Icircumflex" unicode="&#xce;" horiz-adv-x="162" 
d="M76 532q13 -2 25.5 -5.5t14.5 -11.5q1 -3 -0.5 -40.5t-4 -92.5t-5.5 -119t-5.5 -119.5t-4.5 -94t-2 -42.5q0 -6 -6 -8.5t-14 -2.5q-12 0 -24 4.5t-13 10.5q-9 54 -12.5 112.5t-3 115t3 107.5t6.5 90t7.5 63t5.5 25q8 5 15.5 6.5t16.5 1.5zM155 604q11 -6 4 -14t-16 -8
q-4 0 -13.5 6t-20 13.5t-20 15t-13.5 11.5q-4 -4 -13 -11t-20 -14.5t-21.5 -13t-16.5 -5.5q-10 0 -15.5 9t1.5 14q23 17 37 28.5t22 19.5q9 9 14 15q11 5 16 5t8 -3q17 -21 29.5 -34t21.5 -21q9 -9 16 -13z" />
    <glyph glyph-name="Idieresis" unicode="&#xcf;" horiz-adv-x="162" 
d="M6 612q0 8 8 21.5t25 13.5t23.5 -13t6.5 -22q0 -8 -7 -16t-24 -8q-18 0 -25 6.5t-7 17.5zM91 612q0 8 8.5 21.5t25.5 13.5t23.5 -13t6.5 -22q0 -8 -7.5 -16t-24.5 -8t-24.5 6.5t-7.5 17.5zM76 532q13 -2 25.5 -5.5t14.5 -11.5q1 -3 -0.5 -40.5t-4 -92.5t-5.5 -119
t-5.5 -119.5t-4.5 -94t-2 -42.5q0 -6 -6 -8.5t-14 -2.5q-12 0 -24 4.5t-13 10.5q-9 54 -12.5 112.5t-3 115t3 107.5t6.5 90t7.5 63t5.5 25q8 5 15.5 6.5t16.5 1.5z" />
    <glyph glyph-name="Eth" unicode="&#xd0;" horiz-adv-x="386" 
 />
    <glyph glyph-name="Ntilde" unicode="&#xd1;" horiz-adv-x="318" 
d="M266 583q7 -22 9.5 -73.5t2 -117t-2.5 -136t-4.5 -130.5t-5.5 -100.5t-4 -45.5q-2 -8 -12 -11.5t-21 -4.5v-1q-1 -4 -7 -4q-5 0 -11.5 3t-12.5 8q-4 3 -6 6q-3 2 -9.5 26t-15.5 61.5t-19.5 84.5t-21.5 96q-25 114 -55 258q-5 -45 -8 -102.5t-4.5 -117.5t-1.5 -117v-102.5
t0.5 -74.5t-0.5 -31q-2 -5 -9.5 -7.5t-16.5 -2.5q-7 0 -13.5 2t-8.5 7q-6 26 -9 79.5t-2.5 120t3.5 137t7 131t9 102t9 49.5q3 5 13.5 8t22.5 3q10 0 18.5 -2.5t10.5 -8.5t12 -45t23.5 -94.5t27.5 -119t23 -118.5q1 58 3.5 125.5t5.5 126t6.5 99t5.5 43.5q3 5 10.5 7.5
t16.5 2.5q14 0 27 -5.5t15 -13.5zM57 660q5 6 14 15t19 17t20 13.5t16 5.5q9 0 14.5 -5.5t10 -12t9.5 -12t14 -5.5t18.5 4.5t17.5 9.5q10 6 19 14q3 4 9 4q5 0 9 -2.5t2 -6.5q-10 -18 -22 -32q-10 -14 -23.5 -23.5t-28.5 -9.5t-25 4.5t-16 10t-9 10t-5 4.5t-9.5 -3.5
t-16 -8.5t-16.5 -9t-11 -6q-4 -2 -9.5 8t-0.5 16z" />
    <glyph glyph-name="Ograve" unicode="&#xd2;" horiz-adv-x="362" 
d="M232 662q3 -1 4.5 -4.5t0.5 -8t-5 -8t-12 -3.5t-25 6t-34.5 15t-30.5 20t-13 21q0 9 6 13.5t14 4.5t13 -5q4 -4 14 -11.5t22.5 -15.5t25 -14.5t20.5 -9.5zM225 588q37 -39 52.5 -112.5t15.5 -195.5q0 -61 -9.5 -119t-27.5 -103.5t-44.5 -73t-61.5 -27.5q-30 0 -58 16.5
t-49 52t-34 91t-13 133.5t13.5 137t31 100t34.5 64.5t24 31.5q12 14 29.5 20.5t36.5 6.5q18 0 34 -5.5t26 -16.5zM164 -14q11 0 26 19t29 56.5t24 94.5t10 132q0 76 -5.5 126.5t-13.5 81t-17.5 43.5t-18.5 13t-23.5 -15.5t-29 -51.5t-25 -95t-10.5 -145q0 -121 14.5 -190
t39.5 -69z" />
    <glyph glyph-name="Oacute" unicode="&#xd3;" horiz-adv-x="362" 
d="M225 588q37 -39 52.5 -112.5t15.5 -195.5q0 -61 -9.5 -119t-27.5 -103.5t-44.5 -73t-61.5 -27.5q-30 0 -58 16.5t-49 52t-34 91t-13 133.5t13.5 137t31 100t34.5 64.5t24 31.5q12 14 29.5 20.5t36.5 6.5q18 0 34 -5.5t26 -16.5zM164 -14q11 0 26 19t29 56.5t24 94.5
t10 132q0 76 -5.5 126.5t-13.5 81t-17.5 43.5t-18.5 13t-23.5 -15.5t-29 -51.5t-25 -95t-10.5 -145q0 -121 14.5 -190t39.5 -69zM117 665q8 3 20 9.5t24.5 14.5t22.5 15.5t14 11.5q5 5 13 5q7 0 13.5 -4.5t6.5 -13.5q0 -10 -13 -21t-30 -20t-34.5 -15t-25.5 -6t-12 3.5
t-4.5 8t1 8t4.5 4.5z" />
    <glyph glyph-name="Ocircumflex" unicode="&#xd4;" horiz-adv-x="362" 
d="M225 588q37 -39 52.5 -112.5t15.5 -195.5q0 -61 -9.5 -119t-27.5 -103.5t-44.5 -73t-61.5 -27.5q-30 0 -58 16.5t-49 52t-34 91t-13 133.5t13.5 137t31 100t34.5 64.5t24 31.5q12 14 29.5 20.5t36.5 6.5q18 0 34 -5.5t26 -16.5zM164 -14q11 0 26 19t29 56.5t24 94.5
t10 132q0 76 -5.5 126.5t-13.5 81t-17.5 43.5t-18.5 13t-23.5 -15.5t-29 -51.5t-25 -95t-10.5 -145q0 -121 14.5 -190t39.5 -69zM245 657q11 -6 4 -14t-16 -8q-4 0 -13.5 6t-20 13.5t-20 15t-13.5 11.5q-4 -4 -13 -11t-20 -14.5t-21.5 -13t-16.5 -5.5q-10 0 -15.5 9t1.5 14
q23 17 37 28.5t22 19.5q9 9 14 15q11 5 16 5t8 -3q17 -21 29.5 -34t21.5 -21q9 -9 16 -13z" />
    <glyph glyph-name="Otilde" unicode="&#xd5;" horiz-adv-x="362" 
d="M225 588q37 -39 52.5 -112.5t15.5 -195.5q0 -61 -9.5 -119t-27.5 -103.5t-44.5 -73t-61.5 -27.5q-30 0 -58 16.5t-49 52t-34 91t-13 133.5t13.5 137t31 100t34.5 64.5t24 31.5q12 14 29.5 20.5t36.5 6.5q18 0 34 -5.5t26 -16.5zM164 -14q11 0 26 19t29 56.5t24 94.5
t10 132q0 76 -5.5 126.5t-13.5 81t-17.5 43.5t-18.5 13t-23.5 -15.5t-29 -51.5t-25 -95t-10.5 -145q0 -121 14.5 -190t39.5 -69zM95 667q5 6 14 15t19 17t20 13.5t16 5.5q9 0 14.5 -5.5t10 -12t9.5 -12t14 -5.5t18.5 4.5t17.5 9.5q10 6 19 14q3 4 9 4q5 0 9 -2.5t2 -6.5
q-10 -18 -22 -32q-10 -14 -23.5 -23.5t-28.5 -9.5t-25 4.5t-16 10t-9 10t-5 4.5t-9.5 -3.5t-16 -8.5t-16.5 -9t-11 -6q-4 -2 -9.5 8t-0.5 16z" />
    <glyph glyph-name="Odieresis" unicode="&#xd6;" horiz-adv-x="362" 
d="M87 683q0 8 8 21.5t25 13.5t23.5 -13t6.5 -22q0 -8 -7 -16t-24 -8q-18 0 -25 6.5t-7 17.5zM172 683q0 8 8.5 21.5t25.5 13.5t23.5 -13t6.5 -22q0 -8 -7.5 -16t-24.5 -8t-24.5 6.5t-7.5 17.5zM225 588q37 -39 52.5 -112.5t15.5 -195.5q0 -61 -9.5 -119t-27.5 -103.5
t-44.5 -73t-61.5 -27.5q-30 0 -58 16.5t-49 52t-34 91t-13 133.5t13.5 137t31 100t34.5 64.5t24 31.5q12 14 29.5 20.5t36.5 6.5q18 0 34 -5.5t26 -16.5zM164 -14q11 0 26 19t29 56.5t24 94.5t10 132q0 76 -5.5 126.5t-13.5 81t-17.5 43.5t-18.5 13t-23.5 -15.5t-29 -51.5
t-25 -95t-10.5 -145q0 -121 14.5 -190t39.5 -69z" />
    <glyph glyph-name="Oslash" unicode="&#xd8;" horiz-adv-x="362" 
d="M301 598q19 -9 11 -32q-7 -21 -36 -85q9 -38 13 -88t4 -113q0 -61 -9.5 -119t-27.5 -103.5t-44.5 -73t-61.5 -27.5q-27 0 -52 13t-45 41q-8 -14 -12.5 -23.5t-7.5 -13.5q-3 -5 -10 -5q-5 0 -8.5 3.5t-1.5 10.5q2 9 7.5 24t13.5 35q-17 35 -27.5 87t-10.5 121
q0 78 13.5 137t31 100t34.5 64.5t24 31.5q12 14 29.5 20.5t36.5 6.5q37 0 56.5 -19t34.5 -49q18 35 28 49q3 4 5 6t6 2zM110 245v-19q31 72 64 144t60 128q-8 29 -18 41.5t-18 12.5q-9 0 -23.5 -15.5t-29 -51.5t-25 -95t-10.5 -145zM253 288q0 78 -6 129q-29 -65 -65 -140.5
t-68 -141.5q6 -71 18.5 -110t31.5 -39q11 0 26 19t29 56.5t24 94.5t10 132z" />
    <glyph glyph-name="Ugrave" unicode="&#xd9;" horiz-adv-x="290" 
d="M200 659q5 -2 5 -13t-17 -11q-8 0 -25 6t-34.5 15t-30.5 20t-13 21q0 8 6 13t14 5t13 -5q4 -4 14 -11.5t22.5 -15.5t25 -15t20.5 -9zM38 601q8 8 28 8q18 0 35 -7.5t17 -24.5q0 -12 -3 -56.5t-6 -101.5t-6 -117t-3 -104t2.5 -81.5t6 -64.5t8.5 -42t11 -15q17 0 28 42
t18 105.5t10.5 137.5t5.5 138t3 107.5t2 45.5q3 7 9.5 9.5t14.5 2.5t14.5 -3t8.5 -9q1 -3 2.5 -13t2.5 -34t1.5 -65t0.5 -107q0 -199 -37 -296t-96 -97q-58 0 -88.5 74.5t-30.5 202.5q0 64 4.5 127t10.5 114t13 84.5t13 39.5z" />
    <glyph glyph-name="Uacute" unicode="&#xda;" horiz-adv-x="290" 
d="M38 601q8 8 28 8q18 0 35 -7.5t17 -24.5q0 -12 -3 -56.5t-6 -101.5t-6 -117t-3 -104t2.5 -81.5t6 -64.5t8.5 -42t11 -15q17 0 28 42t18 105.5t10.5 137.5t5.5 138t3 107.5t2 45.5q3 7 9.5 9.5t14.5 2.5t14.5 -3t8.5 -9q1 -3 2.5 -13t2.5 -34t1.5 -65t0.5 -107
q0 -199 -37 -296t-96 -97q-58 0 -88.5 74.5t-30.5 202.5q0 64 4.5 127t10.5 114t13 84.5t13 39.5zM91 663q8 3 20 9.5t24.5 14.5t22.5 15.5t14 11.5q5 5 13 5q7 0 13.5 -4.5t6.5 -13.5q0 -10 -13 -21t-30 -20t-34.5 -15t-25.5 -6t-12 3.5t-4.5 8t1 8t4.5 4.5z" />
    <glyph glyph-name="Ucircumflex" unicode="&#xdb;" horiz-adv-x="290" 
d="M38 601q8 8 28 8q18 0 35 -7.5t17 -24.5q0 -12 -3 -56.5t-6 -101.5t-6 -117t-3 -104t2.5 -81.5t6 -64.5t8.5 -42t11 -15q17 0 28 42t18 105.5t10.5 137.5t5.5 138t3 107.5t2 45.5q3 7 9.5 9.5t14.5 2.5t14.5 -3t8.5 -9q1 -3 2.5 -13t2.5 -34t1.5 -65t0.5 -107
q0 -199 -37 -296t-96 -97q-58 0 -88.5 74.5t-30.5 202.5q0 64 4.5 127t10.5 114t13 84.5t13 39.5zM226 650q11 -6 4 -14t-16 -8q-4 0 -13.5 6t-20 13.5t-20 15t-13.5 11.5q-4 -4 -13 -11t-20 -14.5t-21.5 -13t-16.5 -5.5q-10 0 -15.5 9t1.5 14q23 17 37 28.5t22 19.5
q9 9 14 15q11 5 16 5t8 -3q17 -21 29.5 -34t21.5 -21q9 -9 16 -13z" />
    <glyph glyph-name="Udieresis" unicode="&#xdc;" horiz-adv-x="290" 
d="M71 673q0 8 8 21.5t25 13.5t23.5 -13t6.5 -22q0 -8 -7 -16t-24 -8q-18 0 -25 6.5t-7 17.5zM156 673q0 8 8.5 21.5t25.5 13.5t23.5 -13t6.5 -22q0 -8 -7.5 -16t-24.5 -8t-24.5 6.5t-7.5 17.5zM38 601q8 8 28 8q18 0 35 -7.5t17 -24.5q0 -12 -3 -56.5t-6 -101.5t-6 -117
t-3 -104t2.5 -81.5t6 -64.5t8.5 -42t11 -15q17 0 28 42t18 105.5t10.5 137.5t5.5 138t3 107.5t2 45.5q3 7 9.5 9.5t14.5 2.5t14.5 -3t8.5 -9q1 -3 2.5 -13t2.5 -34t1.5 -65t0.5 -107q0 -199 -37 -296t-96 -97q-58 0 -88.5 74.5t-30.5 202.5q0 64 4.5 127t10.5 114t13 84.5
t13 39.5z" />
    <glyph glyph-name="Yacute" unicode="&#xdd;" horiz-adv-x="236" 
d="M259 568q1 -4 -7 -39t-21.5 -88t-30.5 -118.5t-35 -130.5t-35 -124t-30 -99q-7 -11 -19 -11q-14 0 -26.5 12t-11.5 22q8 33 19.5 82.5t25.5 107.5q-16 50 -31 106t-26.5 109t-20 97t-13.5 69q-2 11 5.5 16.5t17.5 5.5q8 0 14.5 -3.5t8.5 -11.5q4 -22 10.5 -56t15 -73.5
t19 -83t22.5 -85.5q11 47 21.5 92.5t19.5 85.5t15 72.5t9 53.5q1 7 10 10t20 3q17 0 34.5 -5.5t19.5 -15.5zM64 658q8 3 20 9.5t24.5 14.5t22.5 15.5t14 11.5q5 5 13 5q7 0 13.5 -4.5t6.5 -13.5q0 -10 -13 -21t-30 -20t-34.5 -15t-25.5 -6t-12 3.5t-4.5 8t1 8t4.5 4.5z" />
    <glyph glyph-name="germandbls" unicode="&#xdf;" horiz-adv-x="281" 
d="M149 224q30 -10 51 -37t21 -63q0 -29 -9 -53t-23.5 -40.5t-34 -25.5t-40.5 -9q-17 0 -16.5 8t6.5 8q12 0 21.5 10t15.5 26.5t9 37t3 41.5q0 28 -11.5 51.5t-24.5 25.5q-12 0 -19 5.5t-10 13t-3 14t3 9.5q23 0 44 27t36 67t23 87t4 86q-2 20 -11 25.5t-15 5.5
q-26 0 -44.5 -41.5t-30 -105t-17.5 -139t-8.5 -142.5t-2 -115.5t1.5 -59.5q-1 -5 -7.5 -7t-14.5 -2q-7 0 -13 2t-8 7q-19 81 -24 160.5t1 152t22 135t37.5 108.5t48 72t54.5 26t48.5 -9t34.5 -23t21.5 -31.5t8.5 -34.5q4 -47 -8 -90t-32 -78t-44 -62t-44 -43z" />
    <glyph glyph-name="ae" unicode="&#xe6;" horiz-adv-x="418" 
d="M418 198q3 7 10 7q5 0 9 -4t2 -11q-22 -53 -45 -95q-14 -25 -24.5 -40t-23 -27t-25.5 -20t-27 -8q-24 0 -45 9.5t-37.5 27t-26 43t-9.5 57.5q0 5 0.5 9t0.5 9q-11 -25 -24.5 -52.5t-29 -50.5t-31.5 -37.5t-33 -14.5q-40 0 -59.5 30t-19.5 84q0 30 11 62t31 57.5t48.5 42
t63.5 16.5q37 0 54.5 -9.5t23.5 -22.5q14 21 33 33.5t42 12.5q6 0 17.5 -2t23 -7.5t20 -16t8.5 -27.5q0 -30 -27 -56t-64 -34q-1 -5 -1 -16q0 -52 16 -74.5t28 -22.5q20 0 39.5 23t35.5 51q18 33 35 74zM77 53q11 0 22 12.5t22.5 32t22 43t19.5 44.5q0 8 -1 19t-3 21.5
t-6.5 18t-11.5 7.5q-9 0 -22.5 -12.5t-26 -35t-21.5 -53t-9 -67.5q0 -17 4.5 -23.5t10.5 -6.5zM300 281q-5 0 -16 -27t-17 -66q15 12 28.5 30.5t13.5 35.5q0 8 -2 17.5t-7 9.5z" />
    <glyph glyph-name="ccedilla" unicode="&#xe7;" horiz-adv-x="253" 
d="M253 198q3 7 10 7q5 0 9 -4t2 -11q-2 -6 -17 -36t-39 -64.5t-54 -62t-61 -27.5h-3l-14 -35q16 -3 28 -8q11 -5 19.5 -13t8.5 -21q0 -9 -6.5 -19.5t-16 -19.5t-20 -14.5t-17.5 -5.5q-4 0 -7.5 2t-3.5 10q0 4 3.5 11t8 14.5t8 15t3.5 13.5q0 9 -6 11t-13.5 3t-13.5 2.5
t-6 7.5q0 10 7 26t11 24q-15 3 -30 11.5t-27 23t-19 37t-7 54.5q0 49 14.5 80.5t35 49.5t42 25t35.5 7q26 0 40.5 -16t14.5 -39q0 -10 -4 -14t-9 -4t-9.5 3.5t-4.5 11.5q0 7 -2.5 13t-7.5 6q-4 0 -13 -8.5t-18 -25t-16 -40t-7 -54.5q0 -16 1 -33.5t4.5 -32t9.5 -24t15 -9.5
q23 1 46 23.5t42.5 52t34 57t19.5 39.5z" />
    <glyph glyph-name="igrave" unicode="&#xec;" horiz-adv-x="177" 
d="M91 397q2 -1 3.5 -4.5t1 -8t-4.5 -8t-12 -3.5t-25 6t-34.5 15t-30.5 20t-13 21q0 9 6 13.5t14 4.5q6 0 13 -5q3 -4 13.5 -11.5t23 -15.5t25 -14.5t20.5 -9.5zM177 198q1 7 9 7q5 0 9.5 -4t2.5 -11q-19 -53 -39 -95q-11 -25 -19 -40t-16.5 -27t-17 -20t-16.5 -8
q-25 0 -42.5 14t-28 39t-15 59t-4.5 74q0 38 3.5 63t5.5 31q2 9 14 13.5t23 4.5q15 0 26 -5.5t11 -10.5q0 -3 -1.5 -15.5t-3.5 -31t-3.5 -41t-1.5 -45.5q0 -31 3 -50t7.5 -29.5t9.5 -14.5t8 -4q9 0 21.5 23t25.5 51q14 32 29 73z" />
    <glyph glyph-name="iacute" unicode="&#xed;" horiz-adv-x="177" 
d="M177 198q1 7 9 7q5 0 9.5 -4t2.5 -11q-19 -53 -39 -95q-11 -25 -19 -40t-16.5 -27t-17 -20t-16.5 -8q-25 0 -42.5 14t-28 39t-15 59t-4.5 74q0 38 3.5 63t5.5 31q2 9 14 13.5t23 4.5q15 0 26 -5.5t11 -10.5q0 -3 -1.5 -15.5t-3.5 -31t-3.5 -41t-1.5 -45.5q0 -31 3 -50
t7.5 -29.5t9.5 -14.5t8 -4q9 0 21.5 23t25.5 51q14 32 29 73zM1 398q8 3 20 9.5t24.5 14.5t22.5 15.5t14 11.5q5 5 13 5q7 0 13.5 -4.5t6.5 -13.5q0 -10 -13 -21t-30 -20t-34.5 -15t-25.5 -6t-12 3.5t-4.5 8t1 8t4.5 4.5z" />
    <glyph glyph-name="icircumflex" unicode="&#xee;" horiz-adv-x="177" 
d="M177 198q1 7 9 7q5 0 9.5 -4t2.5 -11q-19 -53 -39 -95q-11 -25 -19 -40t-16.5 -27t-17 -20t-16.5 -8q-25 0 -42.5 14t-28 39t-15 59t-4.5 74q0 38 3.5 63t5.5 31q2 9 14 13.5t23 4.5q15 0 26 -5.5t11 -10.5q0 -3 -1.5 -15.5t-3.5 -31t-3.5 -41t-1.5 -45.5q0 -31 3 -50
t7.5 -29.5t9.5 -14.5t8 -4q9 0 21.5 23t25.5 51q14 32 29 73zM126 387q11 -6 4 -14t-16 -8q-4 0 -13.5 6t-20 13.5t-20 15t-13.5 11.5q-4 -4 -13 -11t-20 -14.5t-21.5 -13t-16.5 -5.5q-10 0 -15.5 9t1.5 14q23 17 37 28.5t22 19.5q9 9 14 15q11 5 16 5t8 -3q17 -21 29.5 -34
t21.5 -21q9 -9 16 -13z" />
    <glyph glyph-name="idieresis" unicode="&#xef;" horiz-adv-x="177" 
d="M177 198q1 7 9 7q5 0 9.5 -4t2.5 -11q-19 -53 -39 -95q-11 -25 -19 -40t-16.5 -27t-17 -20t-16.5 -8q-25 0 -42.5 14t-28 39t-15 59t-4.5 74q0 38 3.5 63t5.5 31q2 9 14 13.5t23 4.5q15 0 26 -5.5t11 -10.5q0 -3 -1.5 -15.5t-3.5 -31t-3.5 -41t-1.5 -45.5q0 -31 3 -50
t7.5 -29.5t9.5 -14.5t8 -4q9 0 21.5 23t25.5 51q14 32 29 73zM-16 400q0 8 8 21.5t25 13.5t23.5 -13t6.5 -22q0 -8 -7 -16t-24 -8q-18 0 -25 6.5t-7 17.5zM69 400q0 8 8.5 21.5t25.5 13.5t23.5 -13t6.5 -22q0 -8 -7.5 -16t-24.5 -8t-24.5 6.5t-7.5 17.5z" />
    <glyph glyph-name="oslash" unicode="&#xf8;" horiz-adv-x="189" 
d="M166 294q16 -9 13 -20q-1 -5 -7 -20t-16 -36q3 -15 3 -34q0 -20 -6.5 -51.5t-18.5 -61t-29 -50.5t-38 -21h-10.5t-11.5 1q-4 -6 -6 -10.5t-4 -6.5q-8 -1 -14 1.5t-5 6.5l2 8t3 10q-15 9 -25.5 29.5t-10.5 61.5q0 37 7.5 69t18.5 56t25 38t27 14q21 0 35.5 -3t16.5 -7
q10 -2 17 -6q13 24 20 30q3 3 7 3t7 -1zM106 252q-11 -20 -23 -55.5t-17 -71.5q14 31 28 61.5t26 54.5q-5 7 -14 11zM77 25q2 0 9.5 12.5t16.5 32.5t17 45t11 51q-15 -32 -32 -64t-31 -59q5 -18 9 -18z" />
    <glyph glyph-name="Nacute" unicode="&#x143;" horiz-adv-x="318" 
d="M266 583q7 -22 9.5 -73.5t2 -117t-2.5 -136t-4.5 -130.5t-5.5 -100.5t-4 -45.5q-2 -8 -12 -11.5t-21 -4.5v-1q-1 -4 -7 -4q-5 0 -11.5 3t-12.5 8q-4 3 -6 6q-3 2 -9.5 26t-15.5 61.5t-19.5 84.5t-21.5 96q-25 114 -55 258q-5 -45 -8 -102.5t-4.5 -117.5t-1.5 -117v-102.5
t0.5 -74.5t-0.5 -31q-2 -5 -9.5 -7.5t-16.5 -2.5q-7 0 -13.5 2t-8.5 7q-6 26 -9 79.5t-2.5 120t3.5 137t7 131t9 102t9 49.5q3 5 13.5 8t22.5 3q10 0 18.5 -2.5t10.5 -8.5t12 -45t23.5 -94.5t27.5 -119t23 -118.5q1 58 3.5 125.5t5.5 126t6.5 99t5.5 43.5q3 5 10.5 7.5
t16.5 2.5q14 0 27 -5.5t15 -13.5zM90 646q8 3 20 9.5t24.5 14.5t22.5 15.5t14 11.5q5 5 13 5q7 0 13.5 -4.5t6.5 -13.5q0 -10 -13 -21t-30 -20t-34.5 -15t-25.5 -6t-12 3.5t-4.5 8t1 8t4.5 4.5z" />
    <glyph glyph-name="OE" unicode="&#x152;" horiz-adv-x="523" 
d="M487 57q13 2 16.5 -11.5t-11.5 -21.5q-26 -13 -53 -23q-26 -9 -55 -16t-59 -7q-24 0 -41 21t-28 57q-18 -45 -44.5 -72t-61.5 -27q-30 0 -58 16.5t-49 52t-34 91t-13 133.5t13.5 137t31 100t34.5 64.5t24 31.5q12 14 29.5 20.5t36.5 6.5q37 0 55.5 -18t34.5 -48
q3 15 4 16q5 6 19 10q0 5 2.5 10.5t8.5 6.5q26 5 56.5 9t57.5 7t48 4.5t29 2.5h2q8 0 12 -5t3.5 -11t-4 -11.5t-10.5 -6.5q-46 -3 -84 -7.5t-63 -8.5q5 -5 5 -12q0 -6 -2.5 -33.5t-6 -67.5t-6.5 -89t-4 -98q38 7 61.5 9.5t36.5 3.5h2q8 0 12 -5t3.5 -11t-4 -11t-10.5 -6
q-39 -3 -63 -6.5t-38 -5.5q0 -33 2.5 -70.5t6 -69.5t8 -53t9.5 -21q29 0 54 6.5t44 15.5q22 9 41 21zM164 -14q16 0 39 38t37 115q-6 56 -6 123q0 49 2.5 97.5t6.5 90.5q-8 57 -21 79.5t-24 22.5q-9 0 -23.5 -15.5t-29 -51.5t-25 -95t-10.5 -145q0 -121 14.5 -190t39.5 -69z
" />
    <glyph glyph-name="oe" unicode="&#x153;" horiz-adv-x="357" 
d="M357 198q3 7 10 7q5 0 9 -4t2 -11q-22 -53 -45 -95q-14 -25 -24.5 -40t-23 -27t-25.5 -20t-27 -8q-33 0 -61 18t-43 52q-12 -24 -27 -39.5t-32 -15.5q-11 0 -25 2t-27 12t-21.5 30t-8.5 57t7.5 69t18.5 56t25 38t27 14q21 0 35.5 -3t16.5 -7q20 -3 32 -24q14 21 33.5 34
t42.5 13q6 0 17.5 -2t23 -7.5t20 -16t8.5 -27.5q0 -30 -27 -56t-64 -34q-1 -5 -1 -16q0 -52 16 -74.5t28 -22.5q20 0 39.5 23t35.5 51q18 33 35 74zM239 281q-5 0 -16 -27t-17 -66q15 12 28.5 30.5t13.5 35.5q0 8 -2 17.5t-7 9.5zM80 40q2 0 14 20.5t23 51.5q-1 6 -1.5 12
t-0.5 13q0 23 4.5 46.5t13.5 43.5q-3 19 -9.5 28t-14.5 12q-7 -12 -14.5 -30t-13.5 -39.5t-10 -44t-4 -43.5q0 -35 4.5 -52.5t8.5 -17.5z" />
    <glyph glyph-name="Scaron" unicode="&#x160;" 
d="M32 705q-11 7 -4 14.5t16 7.5q5 0 14 -6t19.5 -13.5t20 -15t13.5 -11.5q23 21 38.5 29.5t25.5 12.5q4 2 7 2q10 0 15.5 -9t-1.5 -14q-23 -17 -37 -28.5t-22 -19.5q-9 -9 -14 -15q-11 -5 -16 -5t-8 3q-17 21 -29.5 34t-21.5 21q-9 9 -16 13zM201 509q0 -9 -5.5 -13.5
t-11.5 -4.5q-7 0 -12 4t-5 13q0 8 -1.5 18.5t-4.5 19.5t-9 15.5t-15 6.5q-4 0 -10 -1.5t-12 -6.5t-10.5 -13.5t-4.5 -22.5q0 -40 19 -87.5t42 -100.5t42 -111.5t19 -120.5q0 -74 -37 -110.5t-89 -36.5q-32 0 -49.5 17.5t-26 43t-10 53.5t-1.5 49q0 5 5 7.5t11 2.5t11 -2
t5 -7q0 -6 1.5 -25.5t6.5 -41t15 -38.5t28 -17q6 0 13.5 2.5t15 10.5t12.5 24t5 43q0 59 -21 115.5t-46.5 109t-46.5 100.5t-21 89q0 14 5 34t18.5 39t37.5 32t62 13q28 0 43 -12.5t22 -29.5t8.5 -34t1.5 -26z" />
    <glyph glyph-name="Ydieresis" unicode="&#x178;" horiz-adv-x="236" 
d="M39 658q0 8 8 21.5t25 13.5t23.5 -13t6.5 -22q0 -8 -7 -16t-24 -8q-18 0 -25 6.5t-7 17.5zM124 658q0 8 8.5 21.5t25.5 13.5t23.5 -13t6.5 -22q0 -8 -7.5 -16t-24.5 -8t-24.5 6.5t-7.5 17.5zM259 568q1 -4 -7 -39t-21.5 -88t-30.5 -118.5t-35 -130.5t-35 -124t-30 -99
q-7 -11 -19 -11q-14 0 -26.5 12t-11.5 22q8 33 19.5 82.5t25.5 107.5q-16 50 -31 106t-26.5 109t-20 97t-13.5 69q-2 11 5.5 16.5t17.5 5.5q8 0 14.5 -3.5t8.5 -11.5q4 -22 10.5 -56t15 -73.5t19 -83t22.5 -85.5q11 47 21.5 92.5t19.5 85.5t15 72.5t9 53.5q1 7 10 10t20 3
q17 0 34.5 -5.5t19.5 -15.5z" />
    <glyph glyph-name="Zcaron" unicode="&#x17d;" horiz-adv-x="223" 
d="M36 699q-11 7 -4 14.5t16 7.5q5 0 14 -6t19.5 -13.5t20 -15t13.5 -11.5q23 21 38.5 29.5t25.5 12.5q4 2 7 2q10 0 15.5 -9t-1.5 -14q-23 -17 -37 -28.5t-22 -19.5q-9 -9 -14 -15q-11 -5 -16 -5t-8 3q-17 21 -29.5 34t-21.5 21q-9 9 -16 13zM205 4q9 -1 12.5 -8t3 -15
t-5 -14t-12.5 -6q-20 1 -39 1.5t-36 0.5q-26 0 -46.5 -1t-35.5 -2q-18 -1 -32 -2h-9q-14 0 -26 12t-11 22q5 23 13.5 53.5t19.5 67t24 76.5t26 81q-6 -1 -10 -1q-2 -1 -3 -1q-8 -1 -12.5 5.5t-4.5 15t3 15.5t10 8q8 1 15.5 1.5t15.5 0.5q23 72 41.5 135.5t26.5 105.5
q-29 0 -59.5 -1t-59.5 -5q-9 0 -13 6.5t-4.5 14.5t2.5 15.5t10 8.5q26 2 54.5 2.5t55.5 0.5q30 0 54 -0.5t32 -0.5q10 -1 13.5 -9.5t1.5 -16.5q1 -4 -5 -25.5t-17 -56t-25.5 -79t-31.5 -93.5q14 -1 23.5 -1t15.5 -1q9 0 13 -7t3.5 -15t-5 -14.5t-12.5 -6.5q-15 1 -28 1.5
t-24 0.5q-25 -73 -49.5 -144t-41.5 -125q20 1 41.5 1.5t41.5 0.5q30 0 54 -0.5t32 -1.5z" />
    <glyph glyph-name="endash" unicode="&#x2013;" horiz-adv-x="317" 
d="M250 171q6 -5 6.5 -17t-7.5 -16q-5 -2 -26 -3.5t-48 -1.5q-20 0 -41 0.5t-39 1.5t-30.5 2.5t-15.5 3.5t-4 12.5t3 12.5q5 3 17.5 5.5t29 4t36 2.5t38.5 1q26 0 48 -1.5t33 -6.5z" />
    <glyph glyph-name="emdash" unicode="&#x2014;" horiz-adv-x="428" 
d="M363 171q10 -5 10.5 -17t-11.5 -16q-8 -2 -40.5 -3.5t-74.5 -1.5q-31 0 -63.5 0.5t-60 1.5t-46.5 2.5t-25 3.5q-4 2 -5.5 12.5t4.5 12.5q8 3 27 5.5t45 4t55.5 2.5t59.5 1q41 0 75 -1.5t50 -6.5z" />
    <glyph glyph-name="quoteleft" unicode="&#x2018;" horiz-adv-x="158" 
d="M94 524q17 0 22 -3t8 -7q4 -5 -1.5 -19.5t-14 -32t-17.5 -34t-14 -25.5q-2 -4 -6 -5.5t-9 -1.5q-7 0 -13 3t-7 10q-2 30 6.5 60t16.5 41q4 5 10 9.5t19 4.5z" />
    <glyph glyph-name="quoteright" unicode="&#x2019;" horiz-adv-x="158" 
d="M94 524q17 0 22 -3t8 -7q4 -5 -1.5 -19.5t-14 -32t-17.5 -34t-14 -25.5q-2 -4 -6 -5.5t-9 -1.5q-7 0 -13 3t-7 10q-2 30 6.5 60t16.5 41q4 5 10 9.5t19 4.5z" />
    <glyph glyph-name="quotesinglbase" unicode="&#x201a;" horiz-adv-x="158" 
d="M94 137q17 0 22 -3t8 -7q4 -5 -1.5 -19.5t-14 -32t-17.5 -34t-14 -25.5q-2 -4 -6 -5.5t-9 -1.5q-8 0 -14 3t-6 10q-2 30 6.5 60t16.5 41q4 5 10 9.5t19 4.5z" />
    <glyph glyph-name="quotedblleft" unicode="&#x201c;" horiz-adv-x="295" 
d="M94 524q17 0 22 -3t8 -7q4 -5 -1.5 -19.5t-14 -32t-17.5 -34t-14 -25.5q-2 -4 -6 -5.5t-9 -1.5q-7 0 -13 3t-7 10q-2 30 6.5 60t16.5 41q4 5 10 9.5t19 4.5zM222 512q4 -5 -2 -19t-15 -30.5t-18.5 -32.5t-12.5 -25q-2 -4 -7 -6t-10 -2q-7 0 -12.5 3t-6.5 9q-1 14 1 29.5
t6 29.5t8 25.5t8 16.5t10 9.5t19 4.5q17 0 23 -4t9 -8z" />
    <glyph glyph-name="quotedblright" unicode="&#x201d;" horiz-adv-x="295" 
d="M94 524q17 0 22 -3t8 -7q4 -5 -1.5 -19.5t-14 -32t-17.5 -34t-14 -25.5q-2 -4 -6 -5.5t-9 -1.5q-7 0 -13 3t-7 10q-2 30 6.5 60t16.5 41q4 5 10 9.5t19 4.5zM222 512q4 -5 -2 -19t-15 -30.5t-18.5 -32.5t-12.5 -25q-2 -4 -7 -6t-10 -2q-7 0 -12.5 3t-6.5 9q-1 14 1 29.5
t6 29.5t8 25.5t8 16.5t10 9.5t19 4.5q17 0 23 -4t9 -8z" />
    <glyph glyph-name="quotedblbase" unicode="&#x201e;" horiz-adv-x="295" 
d="M94 127q17 0 22 -3t8 -7q4 -5 -1.5 -19.5t-14 -32t-17.5 -34t-14 -25.5q-2 -4 -6 -5.5t-9 -1.5q-8 0 -14 3t-6 10q-2 30 6.5 60t16.5 41q4 5 10 9.5t19 4.5zM222 115q4 -5 -2 -19t-15 -30.5t-18.5 -32.5t-12.5 -25q-3 -8 -18 -8q-7 0 -12.5 3t-5.5 9q-1 14 1 29.5t6 29.5
t8 25.5t8 16.5t10 9.5t19 4.5q17 0 23 -4t9 -8z" />
    <glyph glyph-name="bullet" unicode="&#x2022;" horiz-adv-x="188" 
d="M111 240q0 -6 -3 -14.5t-9 -16.5t-15.5 -14t-21.5 -6t-20.5 5.5t-14 14t-7.5 17t-2 14.5q0 13 10.5 24.5t36.5 11.5q25 0 35.5 -10t10.5 -26z" />
    <glyph glyph-name="ellipsis" unicode="&#x2026;" horiz-adv-x="466" 
d="M106 58q0 -6 -3 -14.5t-9 -17t-15.5 -14t-21.5 -5.5t-20.5 5.5t-14 14t-7.5 17t-2 14.5q0 12 10.5 23.5t36.5 11.5q25 0 35.5 -9.5t10.5 -25.5zM255 58q0 -6 -3 -14.5t-9 -17t-15.5 -14t-21.5 -5.5t-20.5 5.5t-14 14t-7.5 17t-2 14.5q0 12 10.5 23.5t36.5 11.5
q25 0 35.5 -9.5t10.5 -25.5zM400 58q0 -6 -3 -14.5t-9 -17t-15.5 -14t-21.5 -5.5t-20.5 5.5t-14 14t-7.5 17t-2 14.5q0 12 10.5 23.5t36.5 11.5q25 0 35.5 -9.5t10.5 -25.5z" />
    <glyph glyph-name="perthousand" unicode="&#x2030;" horiz-adv-x="430" 
d="M258 538q26 -13 22 -32q-2 -12 -19 -50t-41.5 -89t-53 -107.5t-54 -105.5t-45 -84t-25.5 -42q-3 -3 -9 -3q-8 0 -15.5 4.5t-6.5 11.5q3 17 17.5 57.5t35.5 92t46 108t49 106t44.5 85.5t31.5 46q3 2 5.5 3.5t5.5 1.5q5 0 12 -3zM84 381q-12 0 -20.5 5.5t-13.5 14t-7 17
t-2 14.5q0 13 10 24.5t36 11.5t36 -10t10 -26q0 -6 -3 -14.5t-9 -16.5t-15 -14t-22 -6zM192 182q26 0 36.5 -9.5t10.5 -25.5q0 -6 -3 -14.5t-9 -17t-15.5 -14t-21.5 -5.5q-13 0 -21.5 5.5t-13.5 13.5t-7 17t-2 15q0 12 10.5 23.5t35.5 11.5zM332 182q25 0 35.5 -9.5
t10.5 -25.5q0 -6 -3 -14.5t-9 -17t-15.5 -14t-21.5 -5.5t-20.5 5.5t-14 14t-7.5 17t-2 14.5q0 12 10.5 23.5t36.5 11.5z" />
    <glyph glyph-name="guilsinglleft" unicode="&#x2039;" horiz-adv-x="329" 
d="M283 401q14 -22 7 -31q-5 -6 -27 -18t-52 -26t-62.5 -28.5t-58.5 -24.5q26 -12 57.5 -27.5t60.5 -31t50 -28t25 -17.5q3 -3 -1 -14.5t-9 -11.5q-14 0 -49.5 13t-75.5 31.5t-75 38t-49 32.5q-3 8 -0.5 16.5t8.5 13.5q12 13 44.5 34t70 41.5t72 35.5t51.5 15q3 -2 5.5 -3
t7.5 -10z" />
    <glyph glyph-name="guilsinglright" unicode="&#x203a;" horiz-adv-x="329" 
d="M290 284q6 -5 8.5 -14t-0.5 -16q-13 -13 -48.5 -33t-75.5 -38t-75.5 -31t-49.5 -13q-5 0 -8.5 11.5t-1.5 14.5q4 5 25 17t50 27.5t61 31.5t57 28q-25 10 -58 24.5t-62.5 28.5t-51.5 26t-27 18q-8 8 6 31q5 9 7.5 10t5.5 3q17 0 51.5 -15t72 -35.5t70 -41.5t44.5 -34z" />
    <glyph glyph-name="Euro" unicode="&#x20ac;" horiz-adv-x="344" 
d="M288 495q-10 0 -11.5 6.5t-0.5 14t0.5 14t-9.5 6.5q-17 0 -34 -14t-31 -40.5t-24 -64.5t-13 -85q26 0 47 -2t32 -7q7 -7 7 -20t-8 -18q-6 -3 -28 -4.5t-51 -1.5v-18t1 -18q26 0 47 -2t32 -7q7 -7 7 -20.5t-8 -17.5q-6 -3 -27 -4.5t-49 -1.5q5 -70 20 -108t44 -38
q14 0 19.5 10.5t8.5 23t7.5 23t14.5 10.5q11 0 13.5 -17.5t-4 -38t-24 -38t-47.5 -17.5q-22 0 -46 11t-46 34t-39 59.5t-25 87.5q-20 2 -34 3.5t-18 3.5q-3 2 -4.5 14t3.5 14q11 8 48 11q-1 10 -1 19.5v20.5q-18 5 -30 6.5t-16 3.5q-3 2 -4.5 14t3.5 14q5 4 18.5 7t30.5 5
q6 66 24.5 114t44 78.5t54 45t52.5 14.5q39 0 56.5 -13.5t20.5 -29t-4.5 -29t-18.5 -13.5z" />
    <glyph glyph-name="trademark" unicode="&#x2122;" horiz-adv-x="296" 
d="M106 572q6 1 6 -5t-5 -7q-17 -2 -26 -3v-1q0 -1 -0.5 -23.5t-2 -49.5t-2.5 -50t-1 -25q0 -3 -6 -3q-3 0 -6.5 1t-3.5 3q-3 21 -3.5 43.5t0 43t2 36t2.5 22.5q-7 -1 -13 -2q-3 0 -5 -1q-6 -1 -7 5t4 7q18 4 39.5 6t27.5 3zM211 564q3 -9 3 -35.5t-0.5 -55.5t-2 -52.5
t-1.5 -25.5q-2 -5 -10 -5t-10 4q-3 7 -4 26.5t-1 40.5q0 24 1 53q-3 -9 -5.5 -22.5t-5 -25.5t-4.5 -21t-2 -10q-1 -3 -7 -3q-4 2 -8 18.5t-8 34.5q-4 22 -8 49q-2 -18 -2.5 -40.5t0 -42t0.5 -33.5v-15q-1 -3 -7 -3q-4 11 -5.5 36.5t-1 52.5t2 48.5t3.5 24.5q3 5 14 5
q8 0 11 -5q2 -3 4 -17t4 -30q2 -19 5 -42q6 25 10 45q5 19 8.5 33t4.5 16t8 2q5 0 9 -1.5t5 -3.5z" />
    <glyph glyph-name="agrave" unicode="&#xe0;" horiz-adv-x="358" 
d="M358 198q3 7 10 7q5 0 9 -4t2 -11q-21 -59 -41 -104q-12 -28 -20.5 -44.5t-17.5 -29.5t-18 -22t-17 -9q-24 0 -40 14.5t-26 36t-14 47t-4 46.5q0 11 0.5 22t1.5 23q-12 -28 -27 -58.5t-31.5 -55t-33 -40.5t-32.5 -16q-41 0 -60.5 30t-19.5 84q0 30 11 62t31 57.5t48.5 42
t63.5 16.5q26 0 42 -5t25 -13q2 4 4 10q3 6 10 8.5t15 2.5q18 0 36 -8t16 -18q-10 -44 -13 -86.5t-2 -76t4.5 -54t6.5 -20.5q8 0 22 26t27 57q15 37 32 83zM76 53q9 0 20 12t22.5 31t22.5 42.5t21 46.5q0 8 -1 19t-3 21.5t-6.5 18t-11.5 7.5q-9 0 -22.5 -12.5t-25.5 -35
t-21 -53t-9 -67.5q0 -17 4.5 -23.5t9.5 -6.5zM234 397q3 -1 4.5 -4.5t0.5 -8t-5 -8t-12 -3.5t-25 6t-34.5 15t-30.5 20t-13 21q0 9 6 13.5t14 4.5t13 -5q4 -4 14 -11.5t22.5 -15.5t25 -14.5t20.5 -9.5z" />
    <glyph glyph-name="aacute" unicode="&#xe1;" horiz-adv-x="358" 
d="M358 198q3 7 10 7q5 0 9 -4t2 -11q-21 -59 -41 -104q-12 -28 -20.5 -44.5t-17.5 -29.5t-18 -22t-17 -9q-24 0 -40 14.5t-26 36t-14 47t-4 46.5q0 11 0.5 22t1.5 23q-12 -28 -27 -58.5t-31.5 -55t-33 -40.5t-32.5 -16q-41 0 -60.5 30t-19.5 84q0 30 11 62t31 57.5t48.5 42
t63.5 16.5q26 0 42 -5t25 -13q2 4 4 10q3 6 10 8.5t15 2.5q18 0 36 -8t16 -18q-10 -44 -13 -86.5t-2 -76t4.5 -54t6.5 -20.5q8 0 22 26t27 57q15 37 32 83zM76 53q9 0 20 12t22.5 31t22.5 42.5t21 46.5q0 8 -1 19t-3 21.5t-6.5 18t-11.5 7.5q-9 0 -22.5 -12.5t-25.5 -35
t-21 -53t-9 -67.5q0 -17 4.5 -23.5t9.5 -6.5zM125 398q8 3 20 9.5t24.5 14.5t22.5 15.5t14 11.5q5 5 13 5q7 0 13.5 -4.5t6.5 -13.5q0 -10 -13 -21t-30 -20t-34.5 -15t-25.5 -6t-12 3.5t-4.5 8t1 8t4.5 4.5z" />
    <glyph glyph-name="acircumflex" unicode="&#xe2;" horiz-adv-x="358" 
d="M358 198q3 7 10 7q5 0 9 -4t2 -11q-21 -59 -41 -104q-12 -28 -20.5 -44.5t-17.5 -29.5t-18 -22t-17 -9q-24 0 -40 14.5t-26 36t-14 47t-4 46.5q0 11 0.5 22t1.5 23q-12 -28 -27 -58.5t-31.5 -55t-33 -40.5t-32.5 -16q-41 0 -60.5 30t-19.5 84q0 30 11 62t31 57.5t48.5 42
t63.5 16.5q26 0 42 -5t25 -13q2 4 4 10q3 6 10 8.5t15 2.5q18 0 36 -8t16 -18q-10 -44 -13 -86.5t-2 -76t4.5 -54t6.5 -20.5q8 0 22 26t27 57q15 37 32 83zM76 53q9 0 20 12t22.5 31t22.5 42.5t21 46.5q0 8 -1 19t-3 21.5t-6.5 18t-11.5 7.5q-9 0 -22.5 -12.5t-25.5 -35
t-21 -53t-9 -67.5q0 -17 4.5 -23.5t9.5 -6.5zM260 387q11 -6 4 -14t-16 -8q-4 0 -13.5 6t-20 13.5t-20 15t-13.5 11.5q-4 -4 -13 -11t-20 -14.5t-21.5 -13t-16.5 -5.5q-10 0 -15.5 9t1.5 14q23 17 37 28.5t22 19.5q9 9 14 15q11 5 16 5t8 -3q17 -21 29.5 -34t21.5 -21
q9 -9 16 -13z" />
    <glyph glyph-name="atilde" unicode="&#xe3;" horiz-adv-x="358" 
d="M358 198q3 7 10 7q5 0 9 -4t2 -11q-21 -59 -41 -104q-12 -28 -20.5 -44.5t-17.5 -29.5t-18 -22t-17 -9q-24 0 -40 14.5t-26 36t-14 47t-4 46.5q0 11 0.5 22t1.5 23q-12 -28 -27 -58.5t-31.5 -55t-33 -40.5t-32.5 -16q-41 0 -60.5 30t-19.5 84q0 30 11 62t31 57.5t48.5 42
t63.5 16.5q26 0 42 -5t25 -13q2 4 4 10q3 6 10 8.5t15 2.5q18 0 36 -8t16 -18q-10 -44 -13 -86.5t-2 -76t4.5 -54t6.5 -20.5q8 0 22 26t27 57q15 37 32 83zM76 53q9 0 20 12t22.5 31t22.5 42.5t21 46.5q0 8 -1 19t-3 21.5t-6.5 18t-11.5 7.5q-9 0 -22.5 -12.5t-25.5 -35
t-21 -53t-9 -67.5q0 -17 4.5 -23.5t9.5 -6.5zM84 412q5 6 14 15t19 17t20 13.5t16 5.5q9 0 14.5 -5.5t10 -12t9.5 -12t14 -5.5t18.5 4.5t17.5 9.5q10 6 19 14q3 4 9 4q5 0 9 -2.5t2 -6.5q-10 -18 -22 -32q-10 -14 -23.5 -23.5t-28.5 -9.5t-25 4.5t-16 10t-9 10t-5 4.5
t-9.5 -3.5t-16 -8.5t-16.5 -9t-11 -6q-4 -2 -9.5 8t-0.5 16z" />
    <glyph glyph-name="adieresis" unicode="&#xe4;" horiz-adv-x="358" 
d="M358 198q3 7 10 7q5 0 9 -4t2 -11q-21 -59 -41 -104q-12 -28 -20.5 -44.5t-17.5 -29.5t-18 -22t-17 -9q-24 0 -40 14.5t-26 36t-14 47t-4 46.5q0 11 0.5 22t1.5 23q-12 -28 -27 -58.5t-31.5 -55t-33 -40.5t-32.5 -16q-41 0 -60.5 30t-19.5 84q0 30 11 62t31 57.5t48.5 42
t63.5 16.5q26 0 42 -5t25 -13q2 4 4 10q3 6 10 8.5t15 2.5q18 0 36 -8t16 -18q-10 -44 -13 -86.5t-2 -76t4.5 -54t6.5 -20.5q8 0 22 26t27 57q15 37 32 83zM76 53q9 0 20 12t22.5 31t22.5 42.5t21 46.5q0 8 -1 19t-3 21.5t-6.5 18t-11.5 7.5q-9 0 -22.5 -12.5t-25.5 -35
t-21 -53t-9 -67.5q0 -17 4.5 -23.5t9.5 -6.5zM105 400q0 8 8 21.5t25 13.5t23.5 -13t6.5 -22q0 -8 -7 -16t-24 -8q-18 0 -25 6.5t-7 17.5zM190 400q0 8 8.5 21.5t25.5 13.5t23.5 -13t6.5 -22q0 -8 -7.5 -16t-24.5 -8t-24.5 6.5t-7.5 17.5z" />
    <glyph glyph-name="aring" unicode="&#xe5;" horiz-adv-x="358" 
d="M213 483q13 0 22 -6t14 -14.5t7.5 -17.5t2.5 -16q0 -13 -12 -28t-39 -15q-26 0 -36 13.5t-10 29.5q0 6 3 15.5t9.5 18t16 14.5t22.5 6zM208 401q12 0 18 11t6 20t-4.5 22.5t-15.5 13.5q-12 0 -17.5 -14t-5.5 -22q0 -11 3.5 -21t15.5 -10zM358 198q3 7 10 7q5 0 9 -4
t2 -11q-21 -59 -41 -104q-12 -28 -20.5 -44.5t-17.5 -29.5t-18 -22t-17 -9q-24 0 -40 14.5t-26 36t-14 47t-4 46.5q0 11 0.5 22t1.5 23q-12 -28 -27 -58.5t-31.5 -55t-33 -40.5t-32.5 -16q-41 0 -60.5 30t-19.5 84q0 30 11 62t31 57.5t48.5 42t63.5 16.5q26 0 42 -5t25 -13
q2 4 4 10q3 6 10 8.5t15 2.5q18 0 36 -8t16 -18q-10 -44 -13 -86.5t-2 -76t4.5 -54t6.5 -20.5q8 0 22 26t27 57q15 37 32 83zM76 53q9 0 20 12t22.5 31t22.5 42.5t21 46.5q0 8 -1 19t-3 21.5t-6.5 18t-11.5 7.5q-9 0 -22.5 -12.5t-25.5 -35t-21 -53t-9 -67.5
q0 -17 4.5 -23.5t9.5 -6.5z" />
    <glyph glyph-name="egrave" unicode="&#xe8;" horiz-adv-x="234" 
d="M234 198q3 7 10 7q5 0 9 -4t2 -11q-22 -53 -45 -95q-14 -25 -24.5 -40t-23 -27t-25.5 -20t-27 -8q-24 0 -45 9.5t-37.5 27t-26 43t-9.5 57.5t8.5 62.5t23 54t35 38t44.5 14.5q6 0 17.5 -2t23 -7.5t20 -16t8.5 -27.5q0 -30 -27 -56t-64 -34q-1 -5 -1 -16q0 -52 16 -74.5
t28 -22.5q20 0 39.5 23t35.5 51q18 33 35 74zM116 281q-5 0 -16 -27t-17 -66q15 12 28.5 30.5t13.5 35.5q0 8 -2 17.5t-7 9.5zM172 397q3 -1 4.5 -4.5t0.5 -8t-5 -8t-12 -3.5t-25 6t-34.5 15t-30.5 20t-13 21q0 9 6 13.5t14 4.5t13 -5q4 -4 14 -11.5t22.5 -15.5t25 -14.5
t20.5 -9.5z" />
    <glyph glyph-name="eacute" unicode="&#xe9;" horiz-adv-x="234" 
d="M234 198q3 7 10 7q5 0 9 -4t2 -11q-22 -53 -45 -95q-14 -25 -24.5 -40t-23 -27t-25.5 -20t-27 -8q-24 0 -45 9.5t-37.5 27t-26 43t-9.5 57.5t8.5 62.5t23 54t35 38t44.5 14.5q6 0 17.5 -2t23 -7.5t20 -16t8.5 -27.5q0 -30 -27 -56t-64 -34q-1 -5 -1 -16q0 -52 16 -74.5
t28 -22.5q20 0 39.5 23t35.5 51q18 33 35 74zM116 281q-5 0 -16 -27t-17 -66q15 12 28.5 30.5t13.5 35.5q0 8 -2 17.5t-7 9.5zM63 398q8 3 20 9.5t24.5 14.5t22.5 15.5t14 11.5q5 5 13 5q7 0 13.5 -4.5t6.5 -13.5q0 -10 -13 -21t-30 -20t-34.5 -15t-25.5 -6t-12 3.5t-4.5 8
t1 8t4.5 4.5z" />
    <glyph glyph-name="ecircumflex" unicode="&#xea;" horiz-adv-x="234" 
d="M234 198q3 7 10 7q5 0 9 -4t2 -11q-22 -53 -45 -95q-14 -25 -24.5 -40t-23 -27t-25.5 -20t-27 -8q-24 0 -45 9.5t-37.5 27t-26 43t-9.5 57.5t8.5 62.5t23 54t35 38t44.5 14.5q6 0 17.5 -2t23 -7.5t20 -16t8.5 -27.5q0 -30 -27 -56t-64 -34q-1 -5 -1 -16q0 -52 16 -74.5
t28 -22.5q20 0 39.5 23t35.5 51q18 33 35 74zM116 281q-5 0 -16 -27t-17 -66q15 12 28.5 30.5t13.5 35.5q0 8 -2 17.5t-7 9.5zM198 387q11 -6 4 -14t-16 -8q-4 0 -13.5 6t-20 13.5t-20 15t-13.5 11.5q-4 -4 -13 -11t-20 -14.5t-21.5 -13t-16.5 -5.5q-10 0 -15.5 9t1.5 14
q23 17 37 28.5t22 19.5q9 9 14 15q11 5 16 5t8 -3q17 -21 29.5 -34t21.5 -21q9 -9 16 -13z" />
    <glyph glyph-name="edieresis" unicode="&#xeb;" horiz-adv-x="234" 
d="M234 198q3 7 10 7q5 0 9 -4t2 -11q-22 -53 -45 -95q-14 -25 -24.5 -40t-23 -27t-25.5 -20t-27 -8q-24 0 -45 9.5t-37.5 27t-26 43t-9.5 57.5t8.5 62.5t23 54t35 38t44.5 14.5q6 0 17.5 -2t23 -7.5t20 -16t8.5 -27.5q0 -30 -27 -56t-64 -34q-1 -5 -1 -16q0 -52 16 -74.5
t28 -22.5q20 0 39.5 23t35.5 51q18 33 35 74zM116 281q-5 0 -16 -27t-17 -66q15 12 28.5 30.5t13.5 35.5q0 8 -2 17.5t-7 9.5zM43 400q0 8 8 21.5t25 13.5t23.5 -13t6.5 -22q0 -8 -7 -16t-24 -8q-18 0 -25 6.5t-7 17.5zM128 400q0 8 8.5 21.5t25.5 13.5t23.5 -13t6.5 -22
q0 -8 -7.5 -16t-24.5 -8t-24.5 6.5t-7.5 17.5z" />
    <glyph glyph-name="ntilde" unicode="&#xf1;" horiz-adv-x="391" 
d="M282 6q6 0 14 8.5t17 22t18 30.5t18 35q20 42 42 96q3 7 10 7q5 0 9 -4t2 -11q-27 -69 -54 -123q-16 -33 -27.5 -52t-23.5 -35t-23.5 -26.5t-22.5 -10.5q-27 0 -46 33t-19 95q0 31 3.5 69t6.5 71.5t4.5 56.5t-2.5 23q-7 0 -17.5 -15t-22.5 -38t-25 -51.5t-23.5 -55.5
t-18.5 -49.5t-11 -33.5q-2 -10 -14.5 -15t-25.5 -5q-16 0 -22 6q-13 14 -19.5 45t-8 64t-1 60.5t0.5 34.5q0 8 14.5 13t23.5 5q8 0 18 -1.5t20 -11.5q5 -5 6.5 -28t1.5 -48q0 -30 -1 -67q21 63 44 113q13 29 23.5 46.5t22 32t24 24t25.5 9.5q24 0 44 -15t20 -47
q0 -10 -1.5 -33.5t-3 -52t-3 -59t-2 -55.5t0.5 -41t5 -16zM100 412q5 6 14 15t19 17t20 13.5t16 5.5q9 0 14.5 -5.5t10 -12t9.5 -12t14 -5.5t18.5 4.5t17.5 9.5q10 6 19 14q3 4 9 4q5 0 9 -2.5t2 -6.5q-10 -18 -22 -32q-10 -14 -23.5 -23.5t-28.5 -9.5t-25 4.5t-16 10t-9 10
t-5 4.5t-9.5 -3.5t-16 -8.5t-16.5 -9t-11 -6q-4 -2 -9.5 8t-0.5 16z" />
    <glyph glyph-name="ograve" unicode="&#xf2;" horiz-adv-x="189" 
d="M115 268q19 -2 31.5 -22t12.5 -62q0 -20 -6.5 -51.5t-18.5 -61t-29 -50.5t-38 -21q-11 0 -25 2t-27 12t-21.5 30t-8.5 57t7.5 69t18.5 56t25 38t27 14q21 0 35.5 -3t16.5 -7zM77 25q2 0 10.5 14.5t18.5 37.5t18 51t8 56q0 35 -7.5 49.5t-18.5 18.5q-7 -12 -14.5 -30
t-13.5 -39.5t-10 -44t-4 -43.5q0 -35 4.5 -52.5t8.5 -17.5zM150 397q3 -1 4.5 -4.5t0.5 -8t-5 -8t-12 -3.5t-25 6t-34.5 15t-30.5 20t-13 21q0 9 6 13.5t14 4.5t13 -5q4 -4 14 -11.5t22.5 -15.5t25 -14.5t20.5 -9.5z" />
    <glyph glyph-name="oacute" unicode="&#xf3;" horiz-adv-x="189" 
d="M115 268q19 -2 31.5 -22t12.5 -62q0 -20 -6.5 -51.5t-18.5 -61t-29 -50.5t-38 -21q-11 0 -25 2t-27 12t-21.5 30t-8.5 57t7.5 69t18.5 56t25 38t27 14q21 0 35.5 -3t16.5 -7zM77 25q2 0 10.5 14.5t18.5 37.5t18 51t8 56q0 35 -7.5 49.5t-18.5 18.5q-7 -12 -14.5 -30
t-13.5 -39.5t-10 -44t-4 -43.5q0 -35 4.5 -52.5t8.5 -17.5zM41 398q8 3 20 9.5t24.5 14.5t22.5 15.5t14 11.5q5 5 13 5q7 0 13.5 -4.5t6.5 -13.5q0 -10 -13 -21t-30 -20t-34.5 -15t-25.5 -6t-12 3.5t-4.5 8t1 8t4.5 4.5z" />
    <glyph glyph-name="ocircumflex" unicode="&#xf4;" horiz-adv-x="189" 
d="M115 268q19 -2 31.5 -22t12.5 -62q0 -20 -6.5 -51.5t-18.5 -61t-29 -50.5t-38 -21q-11 0 -25 2t-27 12t-21.5 30t-8.5 57t7.5 69t18.5 56t25 38t27 14q21 0 35.5 -3t16.5 -7zM77 25q2 0 10.5 14.5t18.5 37.5t18 51t8 56q0 35 -7.5 49.5t-18.5 18.5q-7 -12 -14.5 -30
t-13.5 -39.5t-10 -44t-4 -43.5q0 -35 4.5 -52.5t8.5 -17.5zM175 387q11 -6 4 -14t-16 -8q-4 0 -13.5 6t-20 13.5t-20 15t-13.5 11.5q-4 -4 -13 -11t-20 -14.5t-21.5 -13t-16.5 -5.5q-10 0 -15.5 9t1.5 14q23 17 37 28.5t22 19.5q9 9 14 15q11 5 16 5t8 -3q17 -21 29.5 -34
t21.5 -21q9 -9 16 -13z" />
    <glyph glyph-name="otilde" unicode="&#xf5;" horiz-adv-x="189" 
d="M115 268q19 -2 31.5 -22t12.5 -62q0 -20 -6.5 -51.5t-18.5 -61t-29 -50.5t-38 -21q-11 0 -25 2t-27 12t-21.5 30t-8.5 57t7.5 69t18.5 56t25 38t27 14q21 0 35.5 -3t16.5 -7zM77 25q2 0 10.5 14.5t18.5 37.5t18 51t8 56q0 35 -7.5 49.5t-18.5 18.5q-7 -12 -14.5 -30
t-13.5 -39.5t-10 -44t-4 -43.5q0 -35 4.5 -52.5t8.5 -17.5zM-1 412q5 6 14 15t19 17t20 13.5t16 5.5q9 0 14.5 -5.5t10 -12t9.5 -12t14 -5.5t18.5 4.5t17.5 9.5q10 6 19 14q3 4 9 4q5 0 9 -2.5t2 -6.5q-10 -18 -22 -32q-10 -14 -23.5 -23.5t-28.5 -9.5t-25 4.5t-16 10t-9 10
t-5 4.5t-9.5 -3.5t-16 -8.5t-16.5 -9t-11 -6q-4 -2 -9.5 8t-0.5 16z" />
    <glyph glyph-name="odieresis" unicode="&#xf6;" horiz-adv-x="189" 
d="M115 268q19 -2 31.5 -22t12.5 -62q0 -20 -6.5 -51.5t-18.5 -61t-29 -50.5t-38 -21q-11 0 -25 2t-27 12t-21.5 30t-8.5 57t7.5 69t18.5 56t25 38t27 14q21 0 35.5 -3t16.5 -7zM77 25q2 0 10.5 14.5t18.5 37.5t18 51t8 56q0 35 -7.5 49.5t-18.5 18.5q-7 -12 -14.5 -30
t-13.5 -39.5t-10 -44t-4 -43.5q0 -35 4.5 -52.5t8.5 -17.5zM20 400q0 8 8 21.5t25 13.5t23.5 -13t6.5 -22q0 -8 -7 -16t-24 -8q-18 0 -25 6.5t-7 17.5zM105 400q0 8 8.5 21.5t25.5 13.5t23.5 -13t6.5 -22q0 -8 -7.5 -16t-24.5 -8t-24.5 6.5t-7.5 17.5z" />
    <glyph glyph-name="ugrave" unicode="&#xf9;" horiz-adv-x="298" 
d="M298 198q3 7 10 7q5 0 9 -4t2 -11q-21 -59 -41 -104q-12 -28 -20.5 -44.5t-17.5 -29.5t-18 -22t-17 -9q-23 0 -35.5 18t-18.5 42.5t-7 51t-1 44.5v17t1 20q-7 -19 -17 -42.5t-22 -44.5t-25 -35t-25 -14q-20 0 -31.5 12.5t-17 31.5t-7 41.5t-1.5 42.5q0 40 7 72t11 47
q1 3 5 5q3 2 7.5 3.5t12.5 1.5q16 0 26.5 -11.5t10.5 -30.5q0 -9 -3 -38.5t-5.5 -61t-3.5 -56t3 -24.5q7 0 19.5 26.5t26 60.5t25.5 67t18 45q5 1 15 1q21 0 32.5 -9t11.5 -18q0 -3 -1.5 -20t-3 -41t-3 -51t-1.5 -49.5t2 -37.5t7 -15q8 0 22 26t27 57q15 37 32 83zM204 397
q3 -1 4.5 -4.5t0.5 -8t-5 -8t-12 -3.5t-25 6t-34.5 15t-30.5 20t-13 21q0 9 6 13.5t14 4.5t13 -5q4 -4 14 -11.5t22.5 -15.5t25 -14.5t20.5 -9.5z" />
    <glyph glyph-name="uacute" unicode="&#xfa;" horiz-adv-x="298" 
d="M298 198q3 7 10 7q5 0 9 -4t2 -11q-21 -59 -41 -104q-12 -28 -20.5 -44.5t-17.5 -29.5t-18 -22t-17 -9q-23 0 -35.5 18t-18.5 42.5t-7 51t-1 44.5v17t1 20q-7 -19 -17 -42.5t-22 -44.5t-25 -35t-25 -14q-20 0 -31.5 12.5t-17 31.5t-7 41.5t-1.5 42.5q0 40 7 72t11 47
q1 3 5 5q3 2 7.5 3.5t12.5 1.5q16 0 26.5 -11.5t10.5 -30.5q0 -9 -3 -38.5t-5.5 -61t-3.5 -56t3 -24.5q7 0 19.5 26.5t26 60.5t25.5 67t18 45q5 1 15 1q21 0 32.5 -9t11.5 -18q0 -3 -1.5 -20t-3 -41t-3 -51t-1.5 -49.5t2 -37.5t7 -15q8 0 22 26t27 57q15 37 32 83zM95 398
q8 3 20 9.5t24.5 14.5t22.5 15.5t14 11.5q5 5 13 5q7 0 13.5 -4.5t6.5 -13.5q0 -10 -13 -21t-30 -20t-34.5 -15t-25.5 -6t-12 3.5t-4.5 8t1 8t4.5 4.5z" />
    <glyph glyph-name="ucircumflex" unicode="&#xfb;" horiz-adv-x="298" 
d="M298 198q3 7 10 7q5 0 9 -4t2 -11q-21 -59 -41 -104q-12 -28 -20.5 -44.5t-17.5 -29.5t-18 -22t-17 -9q-23 0 -35.5 18t-18.5 42.5t-7 51t-1 44.5v17t1 20q-7 -19 -17 -42.5t-22 -44.5t-25 -35t-25 -14q-20 0 -31.5 12.5t-17 31.5t-7 41.5t-1.5 42.5q0 40 7 72t11 47
q1 3 5 5q3 2 7.5 3.5t12.5 1.5q16 0 26.5 -11.5t10.5 -30.5q0 -9 -3 -38.5t-5.5 -61t-3.5 -56t3 -24.5q7 0 19.5 26.5t26 60.5t25.5 67t18 45q5 1 15 1q21 0 32.5 -9t11.5 -18q0 -3 -1.5 -20t-3 -41t-3 -51t-1.5 -49.5t2 -37.5t7 -15q8 0 22 26t27 57q15 37 32 83zM230 387
q11 -6 4 -14t-16 -8q-4 0 -13.5 6t-20 13.5t-20 15t-13.5 11.5q-4 -4 -13 -11t-20 -14.5t-21.5 -13t-16.5 -5.5q-10 0 -15.5 9t1.5 14q23 17 37 28.5t22 19.5q9 9 14 15q11 5 16 5t8 -3q17 -21 29.5 -34t21.5 -21q9 -9 16 -13z" />
    <glyph glyph-name="udieresis" unicode="&#xfc;" horiz-adv-x="298" 
d="M298 198q3 7 10 7q5 0 9 -4t2 -11q-21 -59 -41 -104q-12 -28 -20.5 -44.5t-17.5 -29.5t-18 -22t-17 -9q-23 0 -35.5 18t-18.5 42.5t-7 51t-1 44.5v17t1 20q-7 -19 -17 -42.5t-22 -44.5t-25 -35t-25 -14q-20 0 -31.5 12.5t-17 31.5t-7 41.5t-1.5 42.5q0 40 7 72t11 47
q1 3 5 5q3 2 7.5 3.5t12.5 1.5q16 0 26.5 -11.5t10.5 -30.5q0 -9 -3 -38.5t-5.5 -61t-3.5 -56t3 -24.5q7 0 19.5 26.5t26 60.5t25.5 67t18 45q5 1 15 1q21 0 32.5 -9t11.5 -18q0 -3 -1.5 -20t-3 -41t-3 -51t-1.5 -49.5t2 -37.5t7 -15q8 0 22 26t27 57q15 37 32 83zM75 400
q0 8 8 21.5t25 13.5t23.5 -13t6.5 -22q0 -8 -7 -16t-24 -8q-18 0 -25 6.5t-7 17.5zM160 400q0 8 8.5 21.5t25.5 13.5t23.5 -13t6.5 -22q0 -8 -7.5 -16t-24.5 -8t-24.5 6.5t-7.5 17.5z" />
    <glyph glyph-name="yacute" unicode="&#xfd;" horiz-adv-x="345" 
d="M345 198q3 7 10 7q5 0 9.5 -4t1.5 -11q-23 -63 -60.5 -108.5t-77.5 -79.5q-7 -47 -18 -92.5t-26 -81t-35 -57t-45 -21.5q-30 0 -54 20t-24 62q0 22 9.5 39.5t25.5 33t37.5 30t46.5 31.5q8 54 14 109.5t10 101.5q-9 -20 -21.5 -47t-27.5 -51.5t-31 -41.5t-31 -17
q-23 0 -36.5 11t-20.5 28.5t-8.5 37.5t-1.5 38q0 35 8 64t13 42q1 3 5 5q3 1 9 2.5t15 1.5q19 0 31 -10t12 -27q0 -9 -3.5 -35t-7 -54t-4.5 -50t4 -22q6 0 15.5 15.5t20 39t21.5 51t20 51.5t16 40.5t9 18.5q0 12 7 17t17 5q17 0 35.5 -12t17.5 -27q0 -1 -1 -19.5t-3 -48.5
t-5.5 -68.5t-9.5 -79.5q31 29 60 68.5t52 94.5zM82 -210q9 0 17 11.5t15 31t13.5 46t11.5 57.5q-38 -28 -62.5 -51.5t-24.5 -51.5t11 -35.5t19 -7.5zM118 398q8 3 20 9.5t24.5 14.5t22.5 15.5t14 11.5q5 5 13 5q7 0 13.5 -4.5t6.5 -13.5q0 -10 -13 -21t-30 -20t-34.5 -15
t-25.5 -6t-12 3.5t-4.5 8t1 8t4.5 4.5z" />
    <glyph glyph-name="ydieresis" unicode="&#xff;" horiz-adv-x="345" 
d="M345 198q3 7 10 7q5 0 9.5 -4t1.5 -11q-23 -63 -60.5 -108.5t-77.5 -79.5q-7 -47 -18 -92.5t-26 -81t-35 -57t-45 -21.5q-30 0 -54 20t-24 62q0 22 9.5 39.5t25.5 33t37.5 30t46.5 31.5q8 54 14 109.5t10 101.5q-9 -20 -21.5 -47t-27.5 -51.5t-31 -41.5t-31 -17
q-23 0 -36.5 11t-20.5 28.5t-8.5 37.5t-1.5 38q0 35 8 64t13 42q1 3 5 5q3 1 9 2.5t15 1.5q19 0 31 -10t12 -27q0 -9 -3.5 -35t-7 -54t-4.5 -50t4 -22q6 0 15.5 15.5t20 39t21.5 51t20 51.5t16 40.5t9 18.5q0 12 7 17t17 5q17 0 35.5 -12t17.5 -27q0 -1 -1 -19.5t-3 -48.5
t-5.5 -68.5t-9.5 -79.5q31 29 60 68.5t52 94.5zM82 -210q9 0 17 11.5t15 31t13.5 46t11.5 57.5q-38 -28 -62.5 -51.5t-24.5 -51.5t11 -35.5t19 -7.5zM98 400q0 8 8 21.5t25 13.5t23.5 -13t6.5 -22q0 -8 -7 -16t-24 -8q-18 0 -25 6.5t-7 17.5zM183 400q0 8 8.5 21.5
t25.5 13.5t23.5 -13t6.5 -22q0 -8 -7.5 -16t-24.5 -8t-24.5 6.5t-7.5 17.5z" />
    <glyph glyph-name="amacron" unicode="&#x101;" horiz-adv-x="358" 
d="M358 198q3 7 10 7q5 0 9 -4t2 -11q-21 -59 -41 -104q-12 -28 -20.5 -44.5t-17.5 -29.5t-18 -22t-17 -9q-24 0 -40 14.5t-26 36t-14 47t-4 46.5q0 11 0.5 22t1.5 23q-12 -28 -27 -58.5t-31.5 -55t-33 -40.5t-32.5 -16q-41 0 -60.5 30t-19.5 84q0 30 11 62t31 57.5t48.5 42
t63.5 16.5q26 0 42 -5t25 -13q2 4 4 10q3 6 10 8.5t15 2.5q18 0 36 -8t16 -18q-10 -44 -13 -86.5t-2 -76t4.5 -54t6.5 -20.5q8 0 22 26t27 57q15 37 32 83zM76 53q9 0 20 12t22.5 31t22.5 42.5t21 46.5q0 8 -1 19t-3 21.5t-6.5 18t-11.5 7.5q-9 0 -22.5 -12.5t-25.5 -35
t-21 -53t-9 -67.5q0 -17 4.5 -23.5t9.5 -6.5zM271 414q5 -5 5.5 -13t-6.5 -10q-5 -2 -23.5 -2.5t-43.5 -0.5q-18 0 -38 0.5t-36.5 1t-28.5 1.5t-15 2q-2 1 -3 8t2 9q10 5 42.5 7t67.5 2q25 0 45.5 -1t31.5 -4z" />
    <glyph glyph-name="abreve" unicode="&#x103;" horiz-adv-x="358" 
d="M97 440q-2 6 2.5 9.5t10.5 3.5q10 0 15 -8q7 -10 16 -17q7 -8 16.5 -13t20.5 -5t21 6t19 14q9 9 18 20q5 5 11 5q7 0 12.5 -5t1.5 -13q-8 -19 -21 -34q-12 -14 -28 -24t-39 -10t-37.5 11t-23.5 25q-10 15 -15 35zM358 198q3 7 10 7q5 0 9 -4t2 -11q-21 -59 -41 -104
q-12 -28 -20.5 -44.5t-17.5 -29.5t-18 -22t-17 -9q-24 0 -40 14.5t-26 36t-14 47t-4 46.5q0 11 0.5 22t1.5 23q-12 -28 -27 -58.5t-31.5 -55t-33 -40.5t-32.5 -16q-41 0 -60.5 30t-19.5 84q0 30 11 62t31 57.5t48.5 42t63.5 16.5q26 0 42 -5t25 -13q2 4 4 10q3 6 10 8.5
t15 2.5q18 0 36 -8t16 -18q-10 -44 -13 -86.5t-2 -76t4.5 -54t6.5 -20.5q8 0 22 26t27 57q15 37 32 83zM76 53q9 0 20 12t22.5 31t22.5 42.5t21 46.5q0 8 -1 19t-3 21.5t-6.5 18t-11.5 7.5q-9 0 -22.5 -12.5t-25.5 -35t-21 -53t-9 -67.5q0 -17 4.5 -23.5t9.5 -6.5z" />
    <glyph glyph-name="scaron" unicode="&#x161;" horiz-adv-x="197" 
d="M19 502q-11 7 -4 14.5t16 7.5q5 0 14 -6t19.5 -13.5t20 -15t13.5 -11.5q23 21 38.5 29.5t25.5 12.5q4 2 7 2q10 0 15.5 -9t-1.5 -14q-23 -17 -37 -28.5t-22 -19.5q-9 -9 -14 -15q-11 -5 -16 -5t-8 3q-17 21 -29.5 34t-21.5 21q-9 9 -16 13zM197 198q3 7 10 7q5 0 9 -4
t2 -11q-12 -38 -31 -64.5t-39 -46.5q2 -8 2 -14.5v-12.5q0 -50 -17.5 -79t-59.5 -29q-5 0 -12.5 2.5t-14.5 8.5t-12 15t-5 23q0 21 14 34.5t36 27.5q-7 32 -21 74.5t-27 84.5q-3 -7 -5.5 -13t-4.5 -11q-3 -7 -10 -7q-6 0 -10 4t-1 11t6 15q3 7 6.5 16t7.5 20
q-6 20 -9.5 37.5t-3.5 29.5q0 19 9.5 31t23 19.5t29 10.5t27.5 3q15 0 23 -6.5t10.5 -14t1 -14t-5.5 -6.5q-7 0 -9 4t-3.5 8.5t-4 8t-10.5 3.5q-6 0 -11.5 -7t-5.5 -23q0 -17 7 -42.5t17 -56t20.5 -63t17.5 -62.5q15 16 29 38t25 51zM70 -24q5 0 8.5 11t3.5 39
q-11 -9 -18 -17.5t-7 -17.5q0 -15 13 -15z" />
    <glyph glyph-name="zcaron" unicode="&#x17e;" horiz-adv-x="267" 
d="M53 432q-11 7 -4 14.5t16 7.5q5 0 14 -6t19.5 -13.5t20 -15t13.5 -11.5q23 21 38.5 29.5t25.5 12.5q4 2 7 2q10 0 15.5 -9t-1.5 -14q-23 -17 -37 -28.5t-22 -19.5q-9 -9 -14 -15q-11 -5 -16 -5t-8 3q-17 21 -29.5 34t-21.5 21q-9 9 -16 13zM267 198q2 6 10 6q5 0 9 -3.5
t2 -10.5q-19 -51 -43 -93t-50 -79q5 -36 -3 -82.5t-25.5 -88t-44.5 -69.5t-62 -28q-26 0 -42 13.5t-16 38.5q0 16 9.5 33t25.5 36t37.5 41.5t45.5 50.5q2 13 3 23t1 17q0 21 -10.5 28t-24.5 7q-13 0 -25 -3t-18 -3q-8 0 -14 4.5t-6 15.5t11.5 41t25.5 65t25.5 67t11.5 47
q0 13 -4.5 15t-10.5 2q-8 0 -18 -2t-22 -4q0 -6 -3 -22.5t-7.5 -34.5t-10.5 -32t-13 -14q-5 0 -9 5t-2 13q18 54 19 81q-10 -2 -18.5 -3t-16.5 -1q-20 0 -30.5 13t-10.5 32t11.5 35.5t36.5 16.5q26 0 39.5 -20.5t15.5 -50.5q17 3 34 5.5t32 2.5q36 0 49 -17t13 -40
q0 -19 -11 -46.5t-24.5 -54.5l-24.5 -49t-11 -31q22 14 41 14q30 0 43 -35q21 31 41 67.5t39 80.5zM-4 345q-7 0 -12 -8t-6 -17.5t2.5 -17.5t12.5 -8q5 0 11.5 0.5t14.5 1.5q-1 20 -6 34.5t-17 14.5zM41 -210q11 0 20.5 11t18.5 28.5t16 39.5t13 45q-35 -39 -58 -66t-23 -45
q0 -5 2.5 -9t10.5 -4z" />
  </font>
</defs>
</svg>
